<?xml version="1.0" encoding="UTF-8"?>
<svg id="Layer_2" data-name="Layer 2" xmlns="http://www.w3.org/2000/svg" xmlns:xlink="http://www.w3.org/1999/xlink" viewBox="0 0 101.97 97.8">
  <defs>
    <style>
      .cls-1 {
        fill: none;
      }

      .cls-2 {
        fill: #000;
      }

      .cls-3 {
        clip-path: url(#clippath);
      }
    </style>
    <clipPath id="clippath">
      <rect class="cls-1" width="101.97" height="97.8"/>
    </clipPath>
  </defs>
  <g id="svg2">
    <g id="g780">
      <g class="cls-3">
        <g id="g782">
          <path id="path788" class="cls-2" d="M52.07,82.09h5.03c.21-3.61,1.46-7.02,3.61-9.89-2.34-2.07-5.33-3.4-8.64-3.64v13.53ZM42.69,82.09c-.2-3.02-1.22-5.87-2.97-8.31-1.91,2.28-3.13,5.16-3.36,8.31h6.33ZM42.69,84.26h-6.33c.23,3.15,1.45,6.03,3.36,8.31,1.74-2.43,2.77-5.29,2.97-8.31M44.87,82.09h5.03v-13.53c-3.3.24-6.3,1.58-8.64,3.64,2.15,2.87,3.4,6.28,3.61,9.89M59.28,84.26c.2,3.02,1.23,5.88,2.97,8.31,1.91-2.29,3.13-5.16,3.37-8.31h-6.33ZM59.28,82.09h6.33c-.23-3.15-1.45-6.03-3.37-8.31-1.74,2.43-2.77,5.29-2.97,8.31M41.26,94.15c2.33,2.07,5.33,3.4,8.64,3.64v-13.53h-5.03c-.21,3.61-1.46,7.02-3.61,9.89M52.07,84.26v13.53c3.3-.24,6.3-1.58,8.64-3.64-2.15-2.87-3.4-6.28-3.61-9.89h-5.03ZM49.9,15.71h-5.03c-.21,3.61-1.46,7.02-3.61,9.89,2.33,2.07,5.33,3.4,8.64,3.64v-13.53ZM59.28,15.71c.2,3.02,1.23,5.87,2.97,8.31,1.91-2.29,3.13-5.16,3.37-8.31h-6.33ZM59.28,13.53h6.33c-.23-3.15-1.45-6.03-3.37-8.31-1.74,2.43-2.77,5.29-2.97,8.31M57.1,15.71h-5.03v13.53c3.3-.24,6.3-1.57,8.64-3.64-2.15-2.87-3.4-6.28-3.61-9.89M42.69,13.53c-.2-3.02-1.23-5.88-2.97-8.31-1.91,2.28-3.13,5.16-3.37,8.31h6.33ZM42.69,15.71h-6.33c.23,3.15,1.46,6.03,3.37,8.31,1.74-2.43,2.77-5.29,2.97-8.31M60.71,3.64C58.37,1.58,55.37.24,52.07,0v13.53h5.03c.21-3.61,1.46-7.02,3.61-9.89M44.87,13.53c-.21-3.61-1.46-7.02-3.61-9.89C43.59,1.57,46.59.24,49.9,0v13.53h-5.03ZM56.72,47.77l-4.23-4.22,5.76-5.7h7.14l-1.19,5.14h-2.56l-4.91,4.79ZM45.25,49.99l4.23,4.25-5.72,5.69h-6.85l1.19-5.12h2.26l4.89-4.82ZM33.85,54.81h2.62l-1.19,5.12h-7.19l-2.66-3.23,1.21-5.2,3.43-2.75-2.23-2.68,1.21-4.99,4.19-3.22h5.46l-1.21,5.2h-.9l-.73,3.02h3.43l-1.26,5.45h-3.4l-.78,3.29ZM61.31,54.79h1.55l-1.21,5.14h-4.29l-16.65-16.92h-1.54l1.17-5.16h4.31l16.66,16.94ZM75.73,46.02l-3.41,2.74,2.22,2.67-1.26,5.29-4.22,3.2h-5.78l1.21-5.14h1.23l.78-3.38h-3.43l1.26-5.45h3.4l.72-2.97h-2.62l1.19-5.14h7.18l2.68,3.21-1.17,4.96ZM37.06,61.28h-.01c-7.49,7.5-19.68,7.5-27.17,0-7.49-7.49-7.49-19.69,0-27.18l12.39-12.4,5.94,5.93-14.58,14.58,11.17,11.17.36-1.56-9.61-9.61,13.62-13.62,7.87,7.88h3.07L12.62,8.99l-1.54,1.54,9.65,9.65-12.39,12.4C0,40.92,0,54.49,8.34,62.83c5.96,5.96,14.59,7.66,22.08,5.1l-19.34,19.34,1.54,1.54,27.52-27.52h-3.07ZM93.63,34.97c-5.96-5.96-14.59-7.66-22.08-5.1l19.34-19.34-1.54-1.54-27.49,27.49h3.07c7.49-7.47,19.67-7.47,27.16.02,7.49,7.49,7.49,19.69,0,27.18l-12.39,12.4-5.93-5.94,14.58-14.58-10.9-10.9-.37,1.55,9.35,9.35-13.62,13.62-7.9-7.9h-3.07l27.52,27.52,1.54-1.54-9.65-9.65,12.39-12.4c8.34-8.34,8.34-21.91,0-30.25"/>
        </g>
      </g>
    </g>
  </g>
</svg>