<?xml version="1.0" encoding="UTF-8"?>
<svg id="Layer_2" data-name="Layer 2" xmlns="http://www.w3.org/2000/svg" xmlns:xlink="http://www.w3.org/1999/xlink" viewBox="0 0 101.97 101.97">
  <defs>
    <style>
      .cls-1 {
        fill: none;
      }

      .cls-2 {
        fill: #000;
      }

      .cls-3 {
        clip-path: url(#clippath);
      }
    </style>
    <clipPath id="clippath">
      <rect class="cls-1" width="101.97" height="101.97"/>
    </clipPath>
  </defs>
  <g id="svg2">
    <g class="cls-3">
      <path id="path728" class="cls-2" d="M75.11,74.11l-2-2c11.29-11.81,11.29-30.44,0-42.25l2-2c12.39,12.92,12.39,33.33,0,46.25M27.86,75.11l2-2c11.81,11.29,30.44,11.29,42.25,0l2,2c-12.92,12.39-33.33,12.39-46.25,0M26.86,27.86l2,2c-11.29,11.81-11.29,30.44,0,42.25l-2,2c-12.39-12.92-12.39-33.33,0-46.25M67.69,66.69c8.3-8.82,8.3-22.6,0-31.42l2.6-2.6c9.74,10.26,9.74,26.37,0,36.63l-2.6-2.6ZM35.27,67.69c8.82,8.3,22.6,8.3,31.42,0l2.6,2.6c-10.26,9.74-26.37,9.74-36.63,0l2.6-2.6ZM34.27,35.27c-8.3,8.82-8.3,22.6,0,31.42l-2.6,2.6c-9.74-10.26-9.74-26.37,0-36.63l2.6,2.6ZM35.27,34.27l-2.6-2.6c10.26-9.74,26.37-9.74,36.63,0l-2.6,2.6c-8.82-8.3-22.6-8.3-31.42,0M62.29,61.29c5.32-5.83,5.32-14.77,0-20.6l2.6-2.6c6.75,7.27,6.75,18.54,0,25.81l-2.6-2.6ZM40.68,62.29c5.83,5.32,14.77,5.32,20.6,0l2.6,2.6c-7.27,6.75-18.54,6.75-25.81,0l2.6-2.6ZM39.68,40.68c-5.32,5.83-5.32,14.77,0,20.6l-2.6,2.6c-6.75-7.27-6.75-18.54,0-25.81l2.6,2.6ZM40.68,39.68l-2.6-2.6c7.27-6.75,18.54-6.75,25.81,0l-2.6,2.6c-5.83-5.32-14.77-5.32-20.6,0M56.87,55.87c2.35-2.82,2.35-6.94,0-9.77l2.61-2.61c3.78,4.27,3.78,10.71,0,14.99l-2.61-2.61ZM46.1,56.87c2.83,2.35,6.94,2.35,9.77,0l2.61,2.61c-4.27,3.78-10.71,3.78-14.99,0l2.61-2.61ZM45.1,46.1c-2.35,2.83-2.35,6.94,0,9.77l-2.61,2.61c-3.78-4.27-3.78-10.71,0-14.99l2.61,2.61ZM55.87,45.1c-2.83-2.35-6.94-2.35-9.77,0l-2.61-2.61c4.27-3.78,10.71-3.78,14.99,0l-2.61,2.61ZM53.6,53.57l3.26,2.3c-.3.36-.63.69-.99.99l-2.3-3.26c-1.43,1.41-3.74,1.41-5.17,0l-2.3,3.26c-.36-.3-.69-.63-.99-.99l3.26-2.3c-1.41-1.43-1.41-3.74,0-5.17l-3.26-2.3c.3-.36.63-.69.99-.99l2.3,3.26c1.43-1.42,3.74-1.42,5.17,0l2.3-3.26c.36.3.69.63.99.99l-3.26,2.3c1.41,1.43,1.41,3.74,0,5.17M74.11,26.86l-2,2c-11.81-11.29-30.44-11.29-42.25,0l-2-2c12.92-12.39,33.33-12.39,46.25,0M76.71,75.71c13.27-13.8,13.27-35.65,0-49.46l5.14-5.14c5.24,4.99,12.32,8.06,20.11,8.06v-2.27c-7.17,0-13.68-2.81-18.51-7.4l8.18-8.18h3.15l7.17-7.23h-4.1V0l-7.23,7.18v3.15l-8.18,8.18C77.87,13.68,75.06,7.17,75.06,0h-2.27c0,7.79,3.07,14.88,8.06,20.11l-5.14,5.14c-13.8-13.27-35.65-13.27-49.46,0l-5.14-5.14C26.11,14.88,29.17,7.79,29.17,0h-2.27c0,7.17-2.81,13.68-7.4,18.51l-8.18-8.18v-3.15L4.1,0v4.1H0l7.17,7.23h3.15l8.18,8.18C13.68,24.09,7.17,26.91,0,26.91v2.27c7.79,0,14.87-3.07,20.11-8.06l5.14,5.14c-13.27,13.8-13.27,35.65,0,49.46l-5.14,5.14C14.88,75.86,7.79,72.79,0,72.79v2.27c7.16,0,13.68,2.81,18.51,7.4l-8.18,8.18h-3.15L0,97.87h4.1v4.09l7.23-7.17v-3.15l8.18-8.18c4.58,4.83,7.4,11.35,7.4,18.51h2.27c0-7.79-3.07-14.87-8.06-20.11l5.14-5.14c13.8,13.27,35.65,13.27,49.46,0l5.14,5.14c-4.99,5.24-8.06,12.32-8.06,20.11h2.27c0-7.16,2.81-13.68,7.4-18.51l8.18,8.18v3.15l7.23,7.17v-4.09h4.1l-7.17-7.23h-3.15l-8.18-8.18c4.83-4.58,11.35-7.4,18.51-7.4v-2.27c-7.79,0-14.88,3.07-20.11,8.06l-5.14-5.14Z"/>
    </g>
  </g>
</svg>