<?xml version="1.0" encoding="UTF-8"?>
<svg id="Layer_2" data-name="Layer 2" xmlns="http://www.w3.org/2000/svg" xmlns:xlink="http://www.w3.org/1999/xlink" viewBox="0 0 101.97 101.97">
  <defs>
    <style>
      .cls-1 {
        fill: none;
      }

      .cls-2 {
        fill: #000;
      }

      .cls-3 {
        clip-path: url(#clippath);
      }
    </style>
    <clipPath id="clippath">
      <rect class="cls-1" width="101.97" height="101.97"/>
    </clipPath>
  </defs>
  <g id="svg2">
    <g id="g740">
      <g class="cls-3">
        <g id="g742">
          <path id="path748" class="cls-2" d="M73.25,76c.13-.61.27-1.21.39-1.83.74-3.67,1.5-7.45-.99-12.04l-.04-.07c-.51.19-1.17.39-1.94.53-2.1.38-5.22.02-8.31-1.56,0,0-.23.33-.61.72-.38.39-.72.62-.72.62,1.2,2.36,1.7,4.72,1.7,6.65,0,.6-.05,1.16-.14,1.66-.36,1.97-1.1,3.19-1.1,3.19l6.16,3.36c1.06.57,2.06,1.31,2.95,2.2.69.68,1.26,1.43,1.73,2.23.08-1.85.49-3.73.91-5.66M75.02,74.45c-.13.62-.26,1.24-.39,1.85-.8,3.66-1.55,7.11.09,10.28.29.56.7,1.11,1.19,1.62,2.22,2.22,5.35,2.99,8.19,2.3l-.17-1.44c-2.03.54-4.25.19-6.04-1.06h0c.82-.26,1.33-.91,1.68-1.75.35-.84.54-1.86.73-2.86.15-.79.51-1.5,1.05-2.05.55-.53,1.25-.9,2.05-1.05,1-.18,2.02-.37,2.86-.73s1.49-.86,1.75-1.68c.87,1.24,1.3,2.7,1.3,4.16,0,.63-.08,1.26-.24,1.88l1.44.17c.16-.67.24-1.36.24-2.05,0-2.23-.85-4.45-2.55-6.15-1.17-1.17-2.57-2-4.05-2.48-1.73-.52-3.36-1.46-4.72-2.82-.9-.9-1.63-1.89-2.2-2.95l-2.83-5.19c2.12,4.6,1.33,8.51.63,11.99M25.96,73.25c.61.13,1.21.27,1.83.39,3.67.74,7.45,1.5,12.04-.99l.07-.04c-.19-.51-.39-1.17-.53-1.94-.38-2.1-.02-5.21,1.56-8.31,0,0-.33-.23-.72-.61-.38-.39-.61-.72-.61-.72-2.36,1.21-4.72,1.7-6.65,1.7-.6,0-1.16-.05-1.66-.14-1.97-.36-3.19-1.1-3.19-1.1l-3.36,6.16c-.57,1.06-1.31,2.06-2.2,2.95-.68.68-1.43,1.26-2.23,1.73,1.85.08,3.73.49,5.66.91M27.51,75.02c-.62-.13-1.24-.26-1.85-.39-3.66-.8-7.11-1.55-10.28.09-.56.29-1.11.7-1.62,1.19-2.22,2.22-2.99,5.35-2.3,8.19l1.44-.17c-.54-2.03-.19-4.25,1.06-6.04h0c.26.82.91,1.33,1.75,1.68.84.35,1.86.54,2.86.73.79.14,1.5.51,2.05,1.05.53.55.9,1.25,1.05,2.05.18,1,.37,2.02.73,2.86.35.84.86,1.49,1.68,1.75-1.24.87-2.7,1.3-4.16,1.3-.63,0-1.26-.08-1.87-.24l-.17,1.44c.67.16,1.36.24,2.05.24,2.23,0,4.45-.85,6.15-2.55,1.17-1.17,2-2.57,2.48-4.05.52-1.73,1.46-3.36,2.83-4.72.89-.9,1.89-1.63,2.95-2.2l5.19-2.83c-4.6,2.12-8.51,1.33-11.99.63M28.72,25.96c-.13.61-.26,1.22-.39,1.83-.74,3.67-1.5,7.46.99,12.04l.04.07c.51-.19,1.17-.39,1.94-.53,2.1-.38,5.21-.02,8.31,1.56,0,0,.23-.33.61-.72s.72-.61.72-.61c-1.21-2.36-1.7-4.72-1.7-6.65,0-.6.05-1.16.14-1.67.36-1.97,1.1-3.19,1.1-3.19l-6.16-3.36c-1.06-.57-2.06-1.31-2.95-2.2-.68-.69-1.26-1.44-1.73-2.23-.08,1.85-.49,3.73-.91,5.66M26.94,27.51c.13-.62.26-1.24.39-1.85.8-3.66,1.55-7.11-.09-10.28-.29-.56-.7-1.11-1.19-1.62-2.22-2.22-5.35-2.99-8.19-2.3l.17,1.44c2.03-.54,4.25-.19,6.04,1.06h0c-.82.26-1.33.91-1.68,1.75-.35.84-.55,1.86-.73,2.86-.14.79-.51,1.5-1.05,2.05-.55.53-1.25.9-2.05,1.05-1,.18-2.02.37-2.86.73-.84.35-1.49.86-1.75,1.68-.87-1.24-1.3-2.7-1.3-4.16,0-.63.08-1.26.24-1.87l-1.44-.17c-.16.67-.24,1.36-.24,2.05,0,2.23.85,4.45,2.55,6.15,1.17,1.18,2.57,2,4.05,2.48,1.73.52,3.36,1.46,4.72,2.83.9.9,1.63,1.89,2.2,2.95l2.83,5.19c-2.12-4.6-1.33-8.51-.63-11.99M76,28.72c-.61-.13-1.22-.27-1.83-.39-3.67-.74-7.46-1.5-12.04.99l-.07.04c.19.51.39,1.17.53,1.94.38,2.1.02,5.21-1.56,8.31,0,0,.33.23.72.61.39.38.61.72.61.72,2.36-1.2,4.72-1.7,6.65-1.7.6,0,1.16.05,1.67.14,1.97.35,3.19,1.1,3.19,1.1l3.36-6.16c.57-1.06,1.31-2.06,2.2-2.95.69-.69,1.44-1.26,2.23-1.73-1.85-.08-3.73-.49-5.66-.91M74.45,26.94c.62.12,1.24.26,1.85.39,3.66.8,7.11,1.55,10.28-.09.56-.29,1.11-.7,1.62-1.19,2.22-2.22,2.99-5.35,2.3-8.19l-1.44.17c.54,2.03.19,4.25-1.06,6.03h0c-.26-.82-.91-1.33-1.75-1.68-.84-.35-1.86-.54-2.86-.73-.79-.15-1.5-.51-2.05-1.05-.53-.55-.9-1.25-1.05-2.05-.18-1-.37-2.02-.73-2.86-.35-.84-.86-1.49-1.68-1.75,1.24-.87,2.7-1.3,4.16-1.3.63,0,1.26.08,1.87.24l.17-1.44c-.67-.16-1.36-.24-2.05-.24-2.22,0-4.45.85-6.15,2.55-1.17,1.17-2,2.57-2.48,4.05-.52,1.73-1.46,3.36-2.83,4.72-.9.89-1.89,1.63-2.95,2.2l-5.19,2.83c4.6-2.12,8.51-1.33,11.99-.63M42.63,85.91l.53.72c1.93,2.6,4.85,4.15,7.82,4.15,2.97,0,5.89-1.55,7.82-4.15l.53-.72c1.31-1.77,3.22-2.99,5.37-3.42l5.72-1.16c-.25-.32-.52-.63-.81-.92-.1-.1-.2-.19-.3-.28l-4.88.99c-2.49.5-4.69,1.91-6.21,3.96l-.54.72c-1.67,2.25-4.17,3.59-6.7,3.59-2.53,0-5.03-1.34-6.7-3.59l-.53-.72c-1.52-2.05-3.73-3.45-6.21-3.96l-4.88-.99c-.1.09-.21.18-.3.28-.29.29-.56.6-.81.92l5.72,1.16c2.15.43,4.05,1.65,5.37,3.42M15.33,58.8l.72.54c1.77,1.31,2.99,3.22,3.42,5.37l1.16,5.72c.32-.25.63-.52.92-.81.1-.1.19-.2.28-.3l-.99-4.88c-.5-2.49-1.91-4.69-3.96-6.21l-.72-.54c-2.25-1.67-3.59-4.17-3.59-6.7,0-2.53,1.34-5.03,3.59-6.7l.72-.53c2.05-1.52,3.45-3.73,3.96-6.21l.99-4.88c-.09-.1-.19-.21-.28-.31-.29-.29-.59-.56-.91-.81l-1.16,5.72c-.43,2.15-1.65,4.05-3.42,5.37l-.72.54c-2.6,1.93-4.15,4.85-4.15,7.82,0,2.97,1.55,5.89,4.15,7.82M59.34,16.06l-.53-.72c-1.93-2.6-4.85-4.15-7.82-4.15-2.97,0-5.89,1.55-7.82,4.15l-.53.72c-1.31,1.77-3.22,2.99-5.37,3.42l-5.72,1.15c.25.32.52.63.81.91.1.1.2.19.31.29l4.88-.99c2.49-.5,4.69-1.91,6.21-3.96l.53-.72c1.67-2.25,4.17-3.59,6.7-3.59,2.53,0,5.03,1.34,6.7,3.59l.54.72c1.52,2.05,3.73,3.45,6.21,3.96l4.88.99c.1-.09.21-.19.31-.29.29-.29.56-.59.81-.91l-5.72-1.15c-2.15-.43-4.05-1.65-5.37-3.42M90.78,50.98c0-2.97-1.55-5.89-4.15-7.82l-.72-.54c-1.77-1.31-2.99-3.22-3.42-5.37l-1.16-5.72c-.32.25-.63.52-.91.81-.1.1-.19.2-.29.31l.99,4.88c.5,2.49,1.91,4.69,3.96,6.21l.72.53c2.25,1.67,3.59,4.17,3.59,6.7,0,2.53-1.34,5.03-3.59,6.7l-.72.54c-2.05,1.52-3.45,3.73-3.96,6.21l-.99,4.88c.09.1.19.21.28.31.29.29.59.56.92.81l1.15-5.72c.43-2.15,1.65-4.05,3.42-5.37l.72-.54c2.6-1.93,4.15-4.85,4.15-7.82h0ZM74.92,89.19c-.16-.16-.32-.33-.47-.49l-6.14,1.24c-3.15.64-5.94,2.42-7.87,5.01l-.69.93c-2.18,2.94-5.46,4.69-8.77,4.7-3.31,0-6.59-1.76-8.77-4.7l-.69-.93c-1.93-2.59-4.72-4.37-7.87-5.01l-6.14-1.24c-.15.17-.31.33-.47.5-.24.24-.49.47-.76.68l7.09,1.43c2.81.57,5.3,2.16,7.02,4.47l.69.93c2.44,3.29,6.14,5.26,9.89,5.26,3.75,0,7.45-1.97,9.89-5.26l.69-.93c1.72-2.32,4.21-3.91,7.02-4.47l7.09-1.43c-.26-.21-.51-.44-.76-.68M12.09,75.68c.21-.26.44-.52.68-.76.16-.16.33-.32.49-.47l-1.24-6.14c-.64-3.15-2.42-5.94-5.01-7.87l-.93-.69c-2.94-2.18-4.69-5.46-4.7-8.77,0-3.31,1.76-6.59,4.7-8.77l.93-.69c2.59-1.93,4.37-4.72,5.01-7.87l1.24-6.14c-.17-.15-.33-.31-.5-.47-.24-.24-.47-.49-.68-.75l-1.43,7.09c-.57,2.81-2.16,5.3-4.47,7.02l-.93.69C1.97,43.53,0,47.23,0,50.98c0,3.75,1.97,7.45,5.26,9.89l.93.69c2.32,1.72,3.91,4.21,4.47,7.02l1.43,7.09ZM27.04,12.78c.16.16.32.33.47.5l6.14-1.24c3.15-.64,5.94-2.41,7.87-5.01l.69-.93c2.18-2.94,5.46-4.69,8.77-4.7,3.31,0,6.59,1.76,8.77,4.7l.69.93c1.93,2.6,4.72,4.37,7.87,5.01l6.14,1.24c.15-.17.31-.33.47-.49.24-.24.49-.47.75-.68l-7.09-1.43c-2.81-.57-5.3-2.16-7.02-4.47l-.69-.93C58.43,1.97,54.74,0,50.98,0c-3.75,0-7.45,1.97-9.89,5.26l-.69.93c-1.72,2.32-4.21,3.91-7.02,4.47l-7.09,1.43c.26.21.52.44.76.68M96.7,41.09l-.93-.69c-2.32-1.72-3.91-4.21-4.47-7.02l-1.43-7.09c-.21.26-.44.51-.68.76-.16.16-.33.32-.5.47l1.24,6.14c.64,3.15,2.42,5.94,5.01,7.87l.93.69h0c2.94,2.18,4.69,5.46,4.7,8.77,0,3.31-1.76,6.59-4.7,8.77l-.93.69c-2.59,1.93-4.37,4.72-5.01,7.87l-1.24,6.14c.17.15.33.31.5.47.24.24.47.49.68.75l1.43-7.09c.57-2.81,2.16-5.3,4.47-7.02l.93-.69c3.29-2.44,5.26-6.14,5.26-9.89,0-3.75-1.97-7.45-5.26-9.89M56.94,37.11c-.82-.17-1.55-.63-2.06-1.31l-.23-.31c-.9-1.21-2.27-1.94-3.67-1.94-1.4,0-2.77.73-3.67,1.94l-.23.31c-.5.68-1.23,1.14-2.06,1.31l-3.2.65c-.06.01-.12.03-.18.04.16.39.33.78.53,1.17l.07.13,3.06-.62c1.16-.23,2.19-.89,2.9-1.85l.23-.31c.64-.86,1.59-1.37,2.55-1.37s1.91.51,2.55,1.37l.23.31c.71.96,1.74,1.61,2.9,1.85l3.06.62.07-.13c.2-.39.38-.78.53-1.17-.06-.01-.12-.03-.18-.04l-3.2-.65ZM39.09,59.73l-.62-3.06c-.24-1.16-.89-2.19-1.85-2.9l-.31-.23c-.86-.64-1.38-1.59-1.38-2.55s.51-1.91,1.38-2.55l.31-.23c.96-.71,1.61-1.74,1.85-2.9l.62-3.07-.13-.07c-.39-.2-.78-.38-1.17-.53-.02.06-.03.13-.05.19l-.65,3.2c-.17.82-.63,1.55-1.31,2.06l-.31.23c-1.21.9-1.94,2.27-1.94,3.67,0,1.4.73,2.77,1.94,3.67l.31.23c.68.5,1.14,1.23,1.31,2.06l.65,3.2c.01.06.03.12.04.18.4-.16.79-.33,1.17-.53l.13-.06ZM64.86,56.94c.17-.82.63-1.55,1.31-2.06l.31-.23c1.21-.9,1.94-2.27,1.94-3.67,0-1.4-.73-2.77-1.94-3.67l-.31-.23c-.68-.5-1.14-1.23-1.31-2.06l-.65-3.2c-.01-.06-.03-.12-.05-.19-.39.16-.79.33-1.17.53l-.13.06.62,3.07c.23,1.16.89,2.19,1.85,2.9l.31.23c.86.64,1.38,1.59,1.38,2.55s-.51,1.91-1.38,2.55l-.31.23c-.96.71-1.61,1.74-1.85,2.9l-.62,3.06.13.06c.39.2.79.38,1.17.54.01-.06.03-.12.04-.18l.65-3.2ZM45.03,64.87c.82.17,1.55.63,2.06,1.31l.23.31c.9,1.21,2.27,1.94,3.67,1.94,1.4,0,2.77-.73,3.67-1.94l.23-.31c.5-.68,1.23-1.14,2.06-1.31l3.2-.65c.06-.01.12-.03.18-.05-.16-.4-.34-.79-.53-1.18l-.06-.12-3.07.62c-1.16.23-2.19.89-2.9,1.85l-.23.31c-.64.86-1.59,1.37-2.55,1.37s-1.91-.51-2.55-1.37l-.23-.31c-.71-.96-1.74-1.61-2.9-1.85l-3.07-.62-.06.12c-.2.39-.38.79-.54,1.18.06.01.12.03.19.05l3.2.65ZM76.56,45.24l-.51-.38c-.93-.69-1.64-1.62-2.06-2.68l-.84-.51s-.32-.19-.87-.4l.03.16c.37,1.82,1.4,3.44,2.9,4.56l.52.38c1.55,1.15,2.48,2.88,2.48,4.62,0,1.74-.93,3.47-2.48,4.62l-.52.38c-1.5,1.11-2.53,2.73-2.9,4.56l-.03.15c.55-.21.86-.4.86-.4l.85-.52c.42-1.05,1.13-1.98,2.05-2.67l.51-.38c1.91-1.41,3.05-3.56,3.05-5.74h0c0-2.18-1.14-4.33-3.05-5.74M44.86,76.05l.38.52c1.41,1.91,3.56,3.04,5.74,3.05,2.18,0,4.33-1.14,5.74-3.05l.38-.52c.69-.93,1.62-1.64,2.67-2.05l.52-.85s.19-.32.4-.86l-.15.03c-1.82.37-3.44,1.4-4.56,2.9l-.38.51c-1.15,1.55-2.88,2.48-4.62,2.48-1.74,0-3.47-.93-4.62-2.48l-.38-.51c-1.12-1.5-2.73-2.53-4.56-2.9l-.15-.03c.21.55.39.85.4.86l.52.85c1.06.42,1.98,1.13,2.67,2.05M25.41,56.73l.51.38c.93.69,1.64,1.61,2.05,2.67l.85.52s.32.19.87.4l-.03-.15c-.37-1.82-1.4-3.44-2.9-4.56l-.52-.38c-1.55-1.15-2.48-2.88-2.48-4.62,0-1.74.93-3.47,2.48-4.62l.52-.38c1.5-1.11,2.53-2.73,2.9-4.56l.03-.16c-.55.21-.86.4-.86.4l-.85.52c-.42,1.06-1.13,1.99-2.06,2.68l-.51.38c-1.91,1.41-3.05,3.56-3.05,5.74,0,2.18,1.14,4.33,3.05,5.74M59.79,27.98l.52.84s.19.31.4.87l-.16-.03c-1.82-.37-3.44-1.4-4.56-2.9l-.38-.51c-1.15-1.55-2.88-2.48-4.62-2.48-1.74,0-3.47.93-4.62,2.48l-.38.51c-1.12,1.5-2.73,2.53-4.56,2.9l-.16.03c.21-.55.4-.87.4-.87l.51-.84c1.06-.42,1.99-1.13,2.68-2.06l.38-.52c1.41-1.91,3.56-3.04,5.74-3.05,2.18,0,4.33,1.14,5.74,3.05l.38.52c.69.93,1.62,1.64,2.68,2.06"/>
        </g>
      </g>
    </g>
  </g>
</svg>