<?xml version="1.0" encoding="UTF-8"?>
<svg id="Layer_2" data-name="Layer 2" xmlns="http://www.w3.org/2000/svg" xmlns:xlink="http://www.w3.org/1999/xlink" viewBox="0 0 101.97 97.79">
  <defs>
    <style>
      .cls-1 {
        fill: none;
      }

      .cls-2 {
        fill: #000;
      }

      .cls-3 {
        clip-path: url(#clippath);
      }
    </style>
    <clipPath id="clippath">
      <rect class="cls-1" x="0" y="0" width="101.97" height="97.79"/>
    </clipPath>
  </defs>
  <g id="svg2">
    <g id="g730">
      <g class="cls-3">
        <g id="g732">
          <path id="path738" class="cls-2" d="M46.38,45.29c0,4.43,3.74,8.02,8.36,8.02s8.36-3.59,8.36-8.02-3.74-8.02-8.36-8.02-8.36,3.59-8.36,8.02M44.12,45.28c0-5.63,4.76-10.19,10.63-10.19s10.63,4.56,10.63,10.19-4.76,10.19-10.63,10.19-10.63-4.56-10.63-10.19M55.55,51.9c.78-.09,1.53-.3,2.21-.62-.58-4.65-4.43-8.34-9.28-8.89-.33.65-.55,1.37-.64,2.12,4.11.29,7.4,3.44,7.7,7.39M47.22,62.7c4.33,0,8.06-2.49,9.71-6.06-.71.12-1.44.19-2.18.19-.16,0-.32,0-.48-.01-1.49,2.23-4.09,3.71-7.05,3.71-4.62,0-8.36-3.59-8.36-8.02,0-2.84,1.54-5.34,3.87-6.76,0-.15-.01-.31-.01-.46,0-.71.07-1.41.2-2.09-3.72,1.59-6.31,5.16-6.31,9.31,0,5.63,4.76,10.19,10.63,10.19M97.44,93.26c0-2.07-.59-3.18-.83-3.18H5.36c-.24,0-.83,1.11-.83,3.18s.59,3.18.83,3.18h91.25c.24,0,.83-1.11.83-3.18M11.07,88.72h11.45l-5.73-5.49-5.73,5.49ZM79.45,88.72h11.45l-5.73-5.49-5.73,5.49ZM98.86,93.26c0,2.19-.59,4.54-2.25,4.54H5.36c-1.66,0-2.25-2.34-2.25-4.54s.59-4.54,2.25-4.54h2.51l7.33-7.03-9.38-8.99,1.6-1.54,18.31,17.56h50.52l18.31-17.56,1.6,1.54-9.38,8.99,7.33,7.03h2.51c1.66,0,2.25,2.34,2.25,4.54M39.54,61.41c-.29-.23-.57-.47-.84-.73-.27-.26-.52-.53-.76-.81l-12.79,12.26,1.6,1.54,12.79-12.26ZM6.89,75.65H2.27v-6.33h-.42V28.47h.42v-6.33h4.63l2.27-2.17H0v8.51h.42v40.85H0v8.51h9.16l-2.27-2.17ZM21.95,76.74h58.06V21.05H21.95v55.69ZM23.64,12.99h54.68l10.09,9.68v52.45l-10.09,9.68H23.64l-10.09-9.68V22.67l10.09-9.68ZM101.97,28.47v-8.51h-9.16l2.27,2.17h4.63v6.33h.42v40.85h-.42v6.33h-4.63l-2.27,2.17h9.16v-8.51h-.42V28.47h.42ZM4.52,4.54c0,2.07.59,3.18.83,3.18h91.25c.24,0,.83-1.11.83-3.18s-.59-3.18-.83-3.18H5.36c-.24,0-.83,1.11-.83,3.18M90.9,9.08h-11.45l5.73,5.49,5.73-5.49ZM22.52,9.08h-11.45l5.73,5.49,5.73-5.49ZM3.11,4.54C3.11,2.34,3.7,0,5.36,0h91.25c1.66,0,2.25,2.34,2.25,4.54s-.59,4.54-2.25,4.54h-2.51l-7.33,7.03,9.38,8.99-1.6,1.54-18.31-17.56H25.72L7.42,26.63l-1.6-1.54,9.38-8.99-7.33-7.03h-2.51c-1.66,0-2.25-2.34-2.25-4.54M63.26,37.12c-.27-.26-.55-.5-.84-.73l12.79-12.26,1.6,1.54-12.79,12.26c-.24-.28-.49-.55-.76-.8"/>
        </g>
      </g>
    </g>
  </g>
</svg>