<?xml version="1.0" encoding="UTF-8"?>
<svg id="Layer_2" data-name="Layer 2" xmlns="http://www.w3.org/2000/svg" xmlns:xlink="http://www.w3.org/1999/xlink" viewBox="0 0 101.97 101.97">
  <defs>
    <style>
      .cls-1 {
        fill: none;
      }

      .cls-2 {
        fill: #000;
      }

      .cls-3 {
        clip-path: url(#clippath);
      }
    </style>
    <clipPath id="clippath">
      <rect class="cls-1" width="101.97" height="101.97"/>
    </clipPath>
  </defs>
  <g id="svg2">
    <g id="g750">
      <g class="cls-3">
        <g id="g752">
          <path id="path758" class="cls-2" d="M85.13,74.46c.34-4.75,4.16-9.09,10.77-12.27-.37-.29-.89-.4-1.5-.2-.3.1-1.01.43-1.92.95l-.66-.75.31.96c-.94.57-2.05,1.34-3.15,2.29l-.89-.75.58,1.02c-1.04.94-2.05,2.05-2.88,3.31l-.82-.38.64.65c-.91,1.47-1.56,3.15-1.7,5-.13,1.79-.36,3.3-.64,4.59-1.13,4.35-3.32,5.99-4.34,7.47-1.55,2.25-2.18,3.44-.21,4.64.48-1.6,1.43-3.5,2.78-5.13,2.09-2.53,3.13-4.48,3.62-11.41M86.54,74.56c-.5,7-1.57,9.33-3.94,12.21-1.38,1.67-2.27,3.61-2.63,5.02.07.03.13.06.2.09,2.52,1.11,4.71,1.84,6.4,2.18,1.8.35,2.7.45,3.22-.13-2.97-3.81-.34-9.04,4.4-9.43,0,0-.1-1.03-.21-2.56l-3.17,1.62c-.35.18-.77.04-.95-.31-.18-.35-.04-.77.31-.95l3.72-1.9c-.02-.37-.04-.76-.06-1.16l-2.5,1.28c-.35.18-.77.04-.95-.31-.18-.35-.04-.77.31-.95l3.09-1.58c0-.39-.02-.79-.02-1.18l-1.91.98c-.35.18-.77.04-.95-.31-.18-.35-.04-.77.31-.95l2.56-1.31c0-.18,0-.35.01-.52,0-.23.02-.47.04-.69l-1.46.75c-.35.18-.77.04-.95-.31-.18-.35-.04-.77.31-.95l2.35-1.2c.66-3.29,2.22-6.08,2.44-8.21.01-.1.01-.19,0-.29-6.14,2.95-9.67,6.87-9.97,11.09M76.45,90.74l-10.23,10.23,1,1,10.17-10.17c-.41-.33-.73-.68-.94-1.06M83.13,71.25l-29.72,29.72,1,1,28.14-28.14c.1-.9.29-1.76.57-2.58M90.61,37.64c-.07-2.82-.58-5.63-1.53-8.32l-7.08,7.08c.62,3.76.17,7.66-1.36,11.21l9.97-9.97ZM90.59,39.65l-36.77,36.77c-7.8,7.8-20.48,7.8-28.28,0-2.39-2.39-4.04-5.23-4.97-8.25l-6.77,6.77c1.3,2.82,3.11,5.47,5.43,7.79,10.53,10.53,27.67,10.53,38.2,0l25.29-25.29h0c4.93-4.94,7.55-11.32,7.86-17.79M12.89,72.65l7.08-7.08c-.62-3.76-.17-7.66,1.36-11.21l-9.97,9.97c.07,2.82.58,5.63,1.53,8.32M21.72,67.02c.81,3.08,2.41,5.99,4.82,8.4,7.24,7.25,19.03,7.25,26.28,0l22.6-22.6c4.14-4.14,5.91-9.76,5.32-15.17l-31.46,31.46c-4.53,4.53-11.9,4.53-16.43,0-2.71-2.71-3.79-6.43-3.26-9.96l-7.87,7.87ZM67.5,47.68h0c3.64-3.65,3.64-9.58,0-13.22-3.65-3.65-9.58-3.65-13.22,0l-19.82,19.82c-3.65,3.64-3.65,9.57,0,13.22s9.58,3.65,13.22,0l19.82-19.82ZM72.37,42.82l7.87-7.87c-.81-3.08-2.41-5.99-4.82-8.4-7.24-7.25-19.03-7.24-26.28,0l-22.6,22.6c-4.14,4.14-5.91,9.76-5.32,15.17l31.46-31.46c4.53-4.53,11.9-4.53,16.43,0,2.71,2.71,3.79,6.43,3.26,9.96M11.37,62.31L48.14,25.54c7.8-7.8,20.48-7.8,28.28,0,2.39,2.39,4.04,5.23,4.97,8.26l6.77-6.77c-1.3-2.82-3.11-5.47-5.43-7.79-10.53-10.53-27.67-10.53-38.2,0l-25.29,25.29c-4.93,4.93-7.55,11.31-7.87,17.79M101.96,28.28l-9.09,9.09c.13,4.1-.59,8.23-2.16,12.08l9.65-9.65,1.6,1.6-42.92,42.92c-11.41,11.41-29.99,11.41-41.4,0-2.31-2.31-4.15-4.91-5.53-7.69l-10.51,10.51L0,85.54l11.13-11.13c-1.01-2.56-1.65-5.23-1.91-7.94l-8.21,8.21L0,73.69l9.1-9.1c-.13-4.1.59-8.23,2.16-12.08L1.6,62.17,0,60.56,42.92,17.64c11.41-11.41,29.99-11.41,41.4,0,2.31,2.31,4.15,4.91,5.53,7.69l10.51-10.51,1.6,1.6-11.13,11.13c1.01,2.56,1.65,5.23,1.91,7.94l8.21-8.21,1,1ZM16.84,27.51c-.34,4.75-4.16,9.09-10.77,12.27.37.29.89.4,1.5.2.3-.1,1.01-.43,1.92-.95l.66.75-.31-.96c.94-.57,2.05-1.34,3.15-2.29l.89.74-.58-1.02c1.04-.94,2.05-2.05,2.88-3.31l.82.38-.64-.65c.91-1.47,1.56-3.14,1.7-5,.13-1.79.36-3.3.64-4.59,1.13-4.35,3.33-5.99,4.34-7.47,1.55-2.25,2.18-3.44.21-4.64-.48,1.6-1.43,3.5-2.78,5.13-2.09,2.53-3.13,4.48-3.62,11.41M15.42,27.41c.5-7,1.57-9.33,3.94-12.21,1.38-1.67,2.27-3.61,2.63-5.02-.07-.03-.13-.06-.2-.09-2.52-1.11-4.71-1.85-6.4-2.18-1.8-.35-2.7-.45-3.22.13,2.97,3.81.34,9.04-4.4,9.43,0,0,.1,1.03.21,2.56l3.17-1.62c.35-.18.77-.04.95.31.18.35.04.77-.31.95l-3.72,1.9c.02.37.04.76.06,1.16l2.5-1.28c.35-.18.77-.04.95.31.18.35.04.77-.31.95l-3.09,1.58c0,.39.02.79.02,1.18l1.91-.98c.35-.18.77-.04.95.31.18.35.04.77-.31.95l-2.56,1.31c0,.18,0,.35-.01.52,0,.23-.02.47-.04.69l1.46-.75c.35-.18.77-.04.95.31.18.35.04.77-.31.95l-2.35,1.2c-.66,3.29-2.22,6.08-2.44,8.21-.01.1-.01.19,0,.29,6.14-2.95,9.67-6.87,9.97-11.09M25.51,11.23L35.74,1,34.73,0l-10.17,10.17c.41.33.73.68.94,1.06M19.41,28.14L47.55,0l1,1-29.72,29.72c.28-.82.48-1.68.57-2.58"/>
        </g>
      </g>
    </g>
  </g>
</svg>