<?xml version="1.0" encoding="UTF-8"?>
<svg id="Layer_2" data-name="Layer 2" xmlns="http://www.w3.org/2000/svg" xmlns:xlink="http://www.w3.org/1999/xlink" viewBox="0 0 101.97 82.86">
  <defs>
    <style>
      .cls-1 {
        fill: none;
      }

      .cls-2 {
        fill: #000;
      }

      .cls-3 {
        clip-path: url(#clippath);
      }
    </style>
    <clipPath id="clippath">
      <rect class="cls-1" x="0" y="0" width="101.97" height="82.86"/>
    </clipPath>
  </defs>
  <g id="svg2">
    <g id="g760">
      <g class="cls-3">
        <g id="g762">
          <path id="path768" class="cls-2" d="M94.47,32.38l-1.01-1.01-3.08,3.08,1.78,1.78,2.31-3.86ZM87.6,31.68l1.78,1.78,3.08-3.08-1.01-1.01-3.85,2.31ZM79.89,51.03l3.21.36,8.32-13.9-2.03-2.03-11.05,11.05.67,3.71c.08.44.44.77.88.82M85.12,29.19l1.46,1.46,3.86-2.31-1.03-1.03-4.28,1.88ZM68.55,36.45c-.4.17-.64.57-.63,1,.02.43.29.8.7.94l3.21,1.09,13.5-8.08-1.6-1.6-15.18,6.66ZM69.29,40.09l-41.57,41.57.99.99,42.06-42.06-1.48-.5ZM73.63,44.84l3.71.67,11.05-11.05-2.03-2.03-13.9,8.32.36,3.21c.04.44.38.81.82.88M46.17,44.65l3.52-3.52-3.2-3.2-3.52,3.52,3.2,3.2ZM47.48,36.94l3.2,3.2,3.52-3.52-3.2-3.2-3.52,3.52ZM52.27,41.73l3.2,3.2,3.52-3.52-3.2-3.2-3.52,3.52ZM54.48,45.92l-3.2-3.2-3.52,3.52,3.2,3.2,3.52-3.52ZM46.77,47.23L11.34,82.66l-1.59-1.59,35.43-35.43-6.44-6.44.99-.99,2.25,2.25,3.52-3.52-2.25-2.25.99-.99,2.25,2.25,3.52-3.52-2.25-2.25.99-.99,6.44,6.44L90.63.2l1.59,1.59-35.43,35.43,6.44,6.44-.99.99-2.25-2.25-3.52,3.52,2.25,2.25-.99.99-2.25-2.25-3.52,3.52,2.25,2.25-.99.99-6.44-6.44ZM93.19,37.26l1.46,1.46,1.88-4.28-1.03-1.03-2.31,3.85ZM100.22,23.61c-1.75-1.75-4.58-1.75-6.33,0l-1.12,1.12,6.33,6.33,1.12-1.12c1.75-1.75,1.75-4.58,0-6.33M90.79,26.71l6.33,6.33.99-.99-6.33-6.33-.99.99ZM84.36,52.01l1.09,3.21c.14.41.51.68.94.7.43.02.83-.23,1-.63l6.66-15.18-1.6-1.6-8.08,13.5ZM76.98,46.86l-.84-.15-34.95,34.95.99.99,34.95-34.95-.15-.84ZM82.44,64.85l-3.52,3.52,3.5,3.5,3.52-3.52-3.5-3.5ZM86.93,69.34l-3.52,3.52,3.5,3.5,3.52-3.52-3.5-3.5ZM85.91,77.35l-3.5-3.5-3.52,3.52,3.5,3.5,3.52-3.52ZM77.9,76.38l3.52-3.52-3.5-3.5-3.52,3.52,3.5,3.5ZM80.19,60.62l12.22,12.22-10.02,10.02-12.22-12.22.99-.99,2.25,2.25,3.52-3.52-2.25-2.25.99-.99,2.25,2.25,3.52-3.52-2.25-2.25.99-.99ZM57.69,56.17l-.99.99,3.24,3.24,10.02-10.02-3.24-3.24-.99.99,2.25,2.25-3.52,3.52-2.25-2.25-.99.99,2.25,2.25-3.52,3.52-2.25-2.25ZM83.24,53.08l-28.59,28.59.99.99,28.1-28.1-.5-1.48ZM75.7,58.11l.99-.99-3.24-3.24-10.02,10.02,3.24,3.24.99-.99-2.25-2.25,3.52-3.52,2.25,2.25.99-.99-2.25-2.25,3.52-3.52,2.25,2.25ZM24.99,35.99l.84.15L60.78,1.19l-.99-.99L24.84,35.15l.15.84ZM33.41,46.4c.4-.17.64-.57.63-1-.02-.43-.29-.8-.7-.94l-3.21-1.09-13.5,8.08,1.6,1.6,15.18-6.66ZM26.26,24.74l-.99.99,3.24,3.24,10.02-10.02-3.24-3.24-.99.99,2.25,2.25-3.52,3.52-2.25-2.25-.99.99,2.25,2.25-3.52,3.52-2.25-2.25ZM44.27,26.68l.99-.99-3.24-3.24-10.02,10.02,3.24,3.24.99-.99-2.25-2.25,3.52-3.52,2.25,2.25.99-.99-2.25-2.25,3.52-3.52,2.25,2.25ZM16.85,53.66l-1.46-1.46-3.85,2.31,1.03,1.03,4.28-1.88ZM14.36,51.18l-1.78-1.78-3.08,3.08,1.01,1.01,3.86-2.31ZM32.68,42.76L74.25,1.19l-.99-.99L31.2,42.26l1.48.5ZM22.08,31.83l-3.21-.36-8.32,13.9,2.03,2.03,11.05-11.05-.67-3.71c-.08-.43-.44-.77-.88-.82M7.5,50.47l1.01,1.01,3.08-3.08-1.78-1.78-2.31,3.85ZM29.51,42.12l-.36-3.21c-.05-.44-.38-.81-.82-.88l-3.71-.67-11.05,11.05,2.03,2.03,13.9-8.32ZM18.72,29.78L47.31,1.19l-.99-.99-28.1,28.1.5,1.48ZM17.6,30.85l-1.09-3.21c-.14-.41-.51-.68-.94-.7-.43-.02-.83.23-1,.63l-6.65,15.18,1.6,1.6,8.08-13.5ZM1.75,52.91h0C0,54.66,0,57.5,1.75,59.24c1.75,1.75,4.58,1.75,6.33,0l1.12-1.11-6.33-6.33-1.11,1.11ZM11.18,56.14l-6.33-6.33-.99.99,6.33,6.33.99-.99ZM19.53,18.01l3.52-3.52-3.5-3.5-3.52,3.52,3.5,3.5ZM15.04,13.52l3.52-3.52-3.5-3.5-3.52,3.52,3.5,3.5ZM16.05,5.51l3.5,3.5,3.52-3.52-3.5-3.5-3.52,3.52ZM24.06,6.48l-3.52,3.52,3.5,3.5,3.52-3.52-3.5-3.5ZM21.77,22.24l-12.22-12.22L19.57,0l12.22,12.22-.99.99-2.25-2.25-3.52,3.52,2.25,2.25-.99.99-2.25-2.25-3.52,3.52,2.25,2.25-.99.99ZM6.47,49.45l-1.03-1.03,1.88-4.28,1.46,1.46-2.31,3.86Z"/>
        </g>
      </g>
    </g>
  </g>
</svg>