<?xml version="1.0" encoding="UTF-8"?>
<svg id="Layer_2" data-name="Layer 2" xmlns="http://www.w3.org/2000/svg" xmlns:xlink="http://www.w3.org/1999/xlink" viewBox="0 0 101.97 97.8">
  <defs>
    <style>
      .cls-1 {
        fill: none;
      }

      .cls-2 {
        fill: #000;
      }

      .cls-3 {
        clip-path: url(#clippath);
      }
    </style>
    <clipPath id="clippath">
      <rect class="cls-1" width="101.97" height="97.8"/>
    </clipPath>
  </defs>
  <g id="svg2">
    <g id="g770">
      <g class="cls-3">
        <g id="g772">
          <path id="path778" class="cls-2" d="M52.52,48.9l5.93,5.93,14.58-14.58,2.03,2.02c3.12-2.99,8.08-2.95,11.15.12s3.1,8.03.12,11.15l2.02,2.02-14.58,14.57,5.94,5.93,12.39-12.39c7.49-7.49,7.49-19.68,0-27.17-7.49-7.49-19.68-7.49-27.18,0l-12.39,12.39ZM85.36,52.58c2.46-2.59,2.42-6.69-.12-9.23-2.54-2.54-6.64-2.57-9.23-.12l9.35,9.34ZM72.8,69.18l13.62-13.61-13.4-13.39-13.62,13.61,13.4,13.39ZM49.44,48.9l-5.93-5.93-14.58,14.58-2.03-2.02c-3.12,2.99-8.08,2.95-11.15-.12s-3.11-8.03-.12-11.15l-2.02-2.02,14.58-14.58-5.94-5.93-12.39,12.39c-7.49,7.49-7.49,19.68,0,27.17,7.49,7.49,19.68,7.49,27.17,0l12.4-12.39ZM16.6,45.22c-2.46,2.59-2.42,6.69.12,9.22,2.54,2.54,6.64,2.57,9.23.12l-9.34-9.34ZM29.16,28.62l-13.62,13.62,13.4,13.39,13.62-13.61-13.4-13.39ZM93.62,65.21l-12.39,12.39,9.65,9.64-1.54,1.54-38.37-38.35-12.39,12.39h0s0,0,0,0l-25.97,25.96-1.54-1.54,19.34-19.33c-7.48,2.56-16.12.86-22.08-5.1C0,54.49,0,40.92,8.34,32.58l12.39-12.39-9.65-9.64,1.54-1.54,38.37,38.35L89.35,9.01l1.54,1.54-19.34,19.33c7.49-2.56,16.12-.86,22.08,5.09,8.34,8.34,8.34,21.9,0,30.24M52.07,82.09h5.03c.21-3.61,1.46-7.02,3.61-9.89-2.34-2.07-5.33-3.4-8.64-3.64v13.53ZM42.69,82.09c-.2-3.02-1.23-5.88-2.97-8.31-1.91,2.28-3.13,5.16-3.36,8.31h6.33ZM42.69,84.26h-6.33c.23,3.15,1.45,6.02,3.36,8.31,1.74-2.43,2.77-5.29,2.97-8.31M44.87,82.09h5.03v-13.53c-3.3.24-6.3,1.58-8.64,3.64,2.15,2.87,3.4,6.28,3.61,9.89M59.28,84.26c.2,3.02,1.23,5.87,2.97,8.31,1.91-2.28,3.13-5.16,3.36-8.31h-6.33ZM59.28,82.09h6.33c-.23-3.15-1.45-6.03-3.36-8.31-1.74,2.43-2.77,5.29-2.97,8.31M41.26,94.15c2.34,2.07,5.33,3.4,8.64,3.64v-13.53h-5.03c-.21,3.61-1.46,7.02-3.61,9.89M52.07,84.26v13.53c3.3-.24,6.3-1.57,8.64-3.64-2.15-2.87-3.4-6.28-3.61-9.89h-5.03ZM49.9,15.71h-5.03c-.21,3.61-1.46,7.02-3.61,9.89,2.34,2.07,5.33,3.4,8.64,3.64v-13.53ZM59.28,15.71c.2,3.02,1.23,5.88,2.97,8.31,1.91-2.28,3.13-5.16,3.36-8.31h-6.33ZM59.28,13.54h6.33c-.23-3.15-1.45-6.03-3.36-8.31-1.74,2.43-2.77,5.29-2.97,8.31M57.1,15.71h-5.03v13.53c3.3-.24,6.3-1.58,8.64-3.64-2.15-2.87-3.4-6.28-3.61-9.89M42.69,13.54c-.2-3.02-1.23-5.88-2.97-8.31-1.91,2.28-3.13,5.16-3.36,8.31h6.33ZM42.69,15.71h-6.33c.23,3.15,1.45,6.03,3.37,8.31,1.74-2.43,2.77-5.29,2.97-8.31M60.71,3.64C58.37,1.58,55.37.24,52.07,0v13.53h5.03c.21-3.61,1.46-7.02,3.61-9.89M44.87,13.54c-.21-3.61-1.46-7.02-3.61-9.89C43.59,1.58,46.59.24,49.9,0v13.53h-5.03Z"/>
        </g>
      </g>
    </g>
  </g>
</svg>