<?xml version="1.0" encoding="UTF-8"?>
<svg id="Layer_2" data-name="Layer 2" xmlns="http://www.w3.org/2000/svg" xmlns:xlink="http://www.w3.org/1999/xlink" viewBox="0 0 101.7 97.54">
  <defs>
    <style>
      .cls-1 {
        fill: none;
      }

      .cls-2 {
        fill: #000;
      }

      .cls-3 {
        clip-path: url(#clippath);
      }
    </style>
    <clipPath id="clippath">
      <rect class="cls-1" width="101.7" height="97.54"/>
    </clipPath>
  </defs>
  <g id="svg2">
    <g id="g56">
      <g class="cls-3">
        <g id="g58">
          <path id="path64" class="cls-2" d="M18.52,52.04c.39,0,.71-.3.71-.68s-.32-.68-.71-.68-.71.3-.71.68.32.68.71.68"/>
          <path id="path66" class="cls-2" d="M18.52,43.11c.39,0,.71-.3.71-.68s-.32-.68-.71-.68-.71.3-.71.68.32.68.71.68"/>
          <path id="path68" class="cls-2" d="M19.18,56.93c.39,0,.71-.3.71-.68s-.32-.68-.71-.68-.71.3-.71.68.32.68.71.68"/>
          <path id="path70" class="cls-2" d="M23.51,50.07c-.39,0-.71.3-.71.68s.32.68.71.68.71-.3.71-.68-.32-.68-.71-.68"/>
          <path id="path72" class="cls-2" d="M22.11,46.55c0,.37.32.68.71.68s.71-.3.71-.68-.32-.68-.71-.68-.71.3-.71.68"/>
          <path id="path74" class="cls-2" d="M30.84,39.9c0-.37-.32-.68-.71-.68s-.71.3-.71.68.32.68.71.68.71-.3.71-.68"/>
          <path id="path76" class="cls-2" d="M27.45,46.91c0-.37-.32-.68-.71-.68s-.71.3-.71.68.32.68.71.68.71-.3.71-.68"/>
          <path id="path78" class="cls-2" d="M23.08,42.36c-.39,0-.71.3-.71.68s.32.68.71.68.71-.3.71-.68-.32-.68-.71-.68"/>
          <path id="path80" class="cls-2" d="M21.37,36.25c0-.37-.32-.68-.71-.68s-.71.3-.71.68.32.68.71.68.71-.3.71-.68"/>
          <path id="path82" class="cls-2" d="M24.06,55.73c0,.37.32.68.71.68s.71-.3.71-.68-.32-.68-.71-.68-.71.3-.71.68"/>
          <path id="path84" class="cls-2" d="M25.93,37.52c0-.37-.32-.68-.71-.68s-.71.3-.71.68.32.68.71.68.71-.3.71-.68"/>
          <path id="path86" class="cls-2" d="M15.67,46c0,.37.32.68.71.68s.71-.3.71-.68-.32-.68-.71-.68-.71.3-.71.68"/>
          <path id="path88" class="cls-2" d="M28.6,33.37c-.39,0-.71.3-.71.68s.32.68.71.68.71-.3.71-.68-.32-.68-.71-.68"/>
          <path id="path90" class="cls-2" d="M31.47,12.71c3.53,6.62,10.43,9.03,11.32,9.32-.88,1.99-1.99,3.59-3.05,4.83-4.94-2.03-8.42-6.74-8.42-12.22,0-.66.05-1.3.15-1.93M35.69,4.97c1.3,3.11,3.83,6.95,8.75,10.02-.12,2.17-.54,4.09-1.15,5.77h0c-.09-.03-8.2-2.47-11.28-10.23.73-2.14,2.01-4.05,3.69-5.56M45.17,1.35c3.24,0,6.21,1.07,8.58,2.86-7.74-.37-13.36,4.15-14.05,4.74-1.36-1.72-2.25-3.44-2.84-4.94,2.32-1.67,5.2-2.67,8.32-2.67M58.65,11.59c-3.46-.47-8.2-.3-13.43,2.26-1.9-1.18-3.42-2.5-4.64-3.84h0c.07-.07,6.32-5.58,14.86-4.27,1.54,1.63,2.65,3.63,3.2,5.85M59.02,14.64c0,5.59-3.62,10.39-8.74,12.34,4.21-6.24,2.94-13.18,2.75-14.05,2.24-.27,4.23-.14,5.88.12.07.52.1,1.06.1,1.6M45.17,27.92c-1.39,0-2.73-.2-4-.57,2.16-2.63,4.37-6.66,4.68-12.29,2.02-.98,3.96-1.59,5.78-1.93h0c.02.1,1.87,8.05-3.59,14.49-.93.19-1.89.29-2.88.29M45.17,29.27c8.43,0,15.26-6.55,15.26-14.64S53.6,0,45.17,0s-15.26,6.55-15.26,14.64,6.83,14.64,15.26,14.64"/>
          <path id="path92" class="cls-2" d="M34.05,42.42c.39,0,.71-.3.71-.68s-.32-.68-.71-.68-.71.3-.71.68.32.68.71.68"/>
          <path id="path94" class="cls-2" d="M32.15,45.89c0,.37.32.68.71.68s.71-.3.71-.68-.32-.68-.71-.68-.71.3-.71.68"/>
          <path id="path96" class="cls-2" d="M29.21,50.79c0,.37.32.68.71.68s.71-.3.71-.68-.32-.68-.71-.68-.71.3-.71.68"/>
          <path id="path98" class="cls-2" d="M86.03,51.54c0-.37-.32-.68-.71-.68s-.71.3-.71.68.32.68.71.68.71-.3.71-.68"/>
          <path id="path100" class="cls-2" d="M69.55,51.65c0-.37-.32-.68-.71-.68s-.71.3-.71.68.32.68.71.68.71-.3.71-.68"/>
          <path id="path102" class="cls-2" d="M14.18,53.37c0,.37.32.68.71.68s.71-.3.71-.68-.32-.68-.71-.68-.71.3-.71.68"/>
          <path id="path104" class="cls-2" d="M67.65,55.12c-.39,0-.71.3-.71.68s.32.68.71.68.71-.3.71-.68-.32-.68-.71-.68"/>
          <path id="path106" class="cls-2" d="M74.25,50.63c0,.37.32.68.71.68s.71-.3.71-.68-.32-.68-.71-.68-.71.3-.71.68"/>
          <path id="path108" class="cls-2" d="M70.85,57.64c0,.37.32.68.71.68s.71-.3.71-.68-.32-.68-.71-.68-.71.3-.71.68"/>
          <path id="path110" class="cls-2" d="M72.49,46.75c0-.37-.32-.68-.71-.68s-.71.3-.71.68.32.68.71.68.71-.3.71-.68"/>
          <path id="path112" class="cls-2" d="M70.23,84.83c-3.53-6.62-10.43-9.03-11.32-9.32.88-1.99,1.99-3.59,3.05-4.83,4.94,2.03,8.42,6.74,8.42,12.22,0,.66-.05,1.3-.15,1.93M66.01,92.57c-1.3-3.11-3.83-6.95-8.75-10.02.12-2.17.54-4.09,1.15-5.77h0c.09.03,8.2,2.47,11.29,10.23-.73,2.14-2.01,4.05-3.69,5.56M56.53,96.19c-3.24,0-6.21-1.07-8.58-2.86,7.74.37,13.36-4.15,14.05-4.74,1.36,1.72,2.25,3.44,2.84,4.94-2.32,1.67-5.2,2.67-8.32,2.67M43.05,85.94c3.46.47,8.2.3,13.43-2.26,1.9,1.18,3.42,2.5,4.64,3.84h0c-.07.07-6.32,5.58-14.86,4.27-1.54-1.63-2.65-3.63-3.2-5.85M42.68,82.9c0-5.59,3.62-10.39,8.74-12.34-4.21,6.24-2.94,13.18-2.75,14.05-2.24.27-4.23.14-5.88-.12-.07-.52-.1-1.06-.1-1.6M56.53,69.62c1.39,0,2.73.2,4,.57-2.16,2.63-4.37,6.66-4.68,12.29-2.02.98-3.96,1.59-5.78,1.93h0c-.02-.1-1.87-8.05,3.59-14.49.93-.19,1.89-.29,2.88-.29M56.53,68.26c-8.43,0-15.26,6.55-15.26,14.64s6.83,14.64,15.26,14.64,15.26-6.55,15.26-14.64-6.83-14.64-15.26-14.64"/>
          <path id="path114" class="cls-2" d="M90.93,49.55c.39,0,.71-.3.71-.68s-.32-.68-.71-.68-.71.3-.71.68.32.68.71.68"/>
          <path id="path116" class="cls-2" d="M89.62,52.37c-.39,0-.71.3-.71.68s.32.68.71.68.71-.3.71-.68-.32-.68-.71-.68"/>
          <path id="path118" class="cls-2" d="M87.52,44.17c0-.37-.32-.68-.71-.68s-.71.3-.71.68.32.68.71.68.71-.3.71-.68"/>
          <path id="path120" class="cls-2" d="M51.85,58.33l-3.99-3.82,3.99-3.82,3.99,3.82-3.99,3.82ZM46.86,63.11l-3.99-3.82,3.99-3.82,3.99,3.82-3.99,3.82ZM41.88,67.89l-3.99-3.82,3.99-3.82,3.99,3.82-3.99,3.82ZM36.89,72.68l-3.99-3.82,3.99-3.82,3.99,3.82-3.99,3.82ZM31.91,77.46l-3.99-3.82,3.99-3.82,3.99,3.82-3.99,3.82ZM26.92,82.24l-3.99-3.82,3.99-3.82,3.99,3.82-3.99,3.82ZM21.94,87.02l-3.99-3.82,3.99-3.82,3.99,3.82-3.99,3.82ZM16.95,91.8l-3.99-3.82,3.99-3.82,3.99,3.82-3.99,3.82ZM7.98,83.2l3.99-3.82,3.99,3.82-3.99,3.82-3.99-3.82ZM5.99,81.28L84.75,5.74l1,.96L6.98,82.24l-1-.96ZM90.73,11.48l-3.99,3.82-3.99-3.82,3.99-3.82,3.99,3.82ZM95.71,16.26l-3.99,3.82-3.99-3.82,3.99-3.82,3.99,3.82ZM86.74,24.86l-3.99-3.82,3.99-3.82,3.99,3.82-3.99,3.82ZM81.76,29.65l-3.99-3.82,3.99-3.82,3.99,3.82-3.99,3.82ZM76.77,34.43l-3.99-3.82,3.99-3.82,3.99,3.82-3.99,3.82ZM71.79,39.21l-3.99-3.82,3.99-3.82,3.99,3.82-3.99,3.82ZM66.8,43.99l-3.99-3.82,3.99-3.82,3.99,3.82-3.99,3.82ZM61.82,48.77l-3.99-3.82,3.99-3.82,3.99,3.82-3.99,3.82ZM60.82,40.17l-3.99,3.82-3.99-3.82,3.99-3.82,3.99,3.82ZM65.8,35.38l-3.99,3.82-3.99-3.82,3.99-3.82,3.99,3.82ZM70.79,30.6l-3.99,3.82-3.99-3.82,3.99-3.82,3.99,3.82ZM75.77,25.82l-3.99,3.82-3.99-3.82,3.99-3.82,3.99,3.82ZM77.77,16.26l3.99-3.82,3.99,3.82-3.99,3.82-3.99-3.82ZM80.76,21.04l-3.99,3.82-3.99-3.82,3.99-3.82,3.99,3.82ZM47.86,44.95l3.99-3.82,3.99,3.82-3.99,3.82-3.99-3.82ZM42.88,49.73l3.99-3.82,3.99,3.82-3.99,3.82-3.99-3.82ZM37.89,54.51l3.99-3.82,3.99,3.82-3.99,3.82-3.99-3.82ZM32.91,59.29l3.99-3.82,3.99,3.82-3.99,3.82-3.99-3.82ZM27.92,64.07l3.99-3.82,3.99,3.82-3.99,3.82-3.99-3.82ZM22.94,68.85l3.99-3.82,3.99,3.82-3.99,3.82-3.99-3.82ZM20.94,78.41l-3.99,3.82-3.99-3.82,3.99-3.82,3.99,3.82ZM17.95,73.63l3.99-3.82,3.99,3.82-3.99,3.82-3.99-3.82ZM56.83,53.55l-3.99-3.82,3.99-3.82,3.99,3.82-3.99,3.82ZM101.7,48.77l-17.94-17.21-1,.96,16.94,16.25-23.63,22.66-17.94-17.21,39.58-37.96-12.97-12.44-39.58,37.96L10.97,8.99l-1.6,1.53,15.25,14.63L0,48.77l17.94,17.21,1-.96L2,48.77l23.63-22.66,17.94,17.21L3.99,81.28l12.97,12.44,39.58-37.96,34.2,32.8,1.6-1.53-15.25-14.63,24.63-23.62Z"/>
          <path id="path122" class="cls-2" d="M73.1,64.17c.39,0,.71-.3.71-.68s-.32-.68-.71-.68-.71.3-.71.68.32.68.71.68"/>
          <path id="path124" class="cls-2" d="M79.59,50.99c0-.37-.32-.68-.71-.68s-.71.3-.71.68.32.68.71.68.71-.3.71-.68"/>
          <path id="path126" class="cls-2" d="M83.18,45.5c-.39,0-.71.3-.71.68s.32.68.71.68.71-.3.71-.68-.32-.68-.71-.68"/>
          <path id="path128" class="cls-2" d="M82.52,40.61c-.39,0-.71.3-.71.68s.32.68.71.68.71-.3.71-.68-.32-.68-.71-.68"/>
          <path id="path130" class="cls-2" d="M10.76,47.99c-.39,0-.71.3-.71.68s.32.68.71.68.71-.3.71-.68-.32-.68-.71-.68"/>
          <path id="path132" class="cls-2" d="M12.08,45.17c.39,0,.71-.3.71-.68s-.32-.68-.71-.68-.71.3-.71.68.32.68.71.68"/>
          <path id="path134" class="cls-2" d="M83.18,54.43c-.39,0-.71.3-.71.68s.32.68.71.68.71-.3.71-.68-.32-.68-.71-.68"/>
          <path id="path136" class="cls-2" d="M78.19,47.47c.39,0,.71-.3.71-.68s-.32-.68-.71-.68-.71.3-.71.68.32.68.71.68"/>
          <path id="path138" class="cls-2" d="M80.33,61.29c0,.37.32.68.71.68s.71-.3.71-.68-.32-.68-.71-.68-.71.3-.71.68"/>
          <path id="path140" class="cls-2" d="M78.62,55.18c.39,0,.71-.3.71-.68s-.32-.68-.71-.68-.71.3-.71.68.32.68.71.68"/>
          <path id="path142" class="cls-2" d="M75.77,60.02c0,.37.32.68.71.68s.71-.3.71-.68-.32-.68-.71-.68-.71.3-.71.68"/>
          <path id="path144" class="cls-2" d="M77.64,41.81c0-.37-.32-.68-.71-.68s-.71.3-.71.68.32.68.71.68.71-.3.71-.68"/>
        </g>
      </g>
    </g>
  </g>
</svg>