<?xml version="1.0" encoding="UTF-8"?>
<svg id="Layer_2" data-name="Layer 2" xmlns="http://www.w3.org/2000/svg" xmlns:xlink="http://www.w3.org/1999/xlink" viewBox="0 0 101.97 101.97">
  <defs>
    <style>
      .cls-1 {
        fill: none;
      }

      .cls-2 {
        fill: #000;
      }

      .cls-3 {
        clip-path: url(#clippath);
      }
    </style>
    <clipPath id="clippath">
      <rect class="cls-1" width="101.97" height="101.97"/>
    </clipPath>
  </defs>
  <g id="svg2">
    <g id="g156">
      <g class="cls-3">
        <g id="g158">
          <path id="path164" class="cls-2" d="M44.57,73.77c1.3-1.25.46-2.99-.77-3.92-1.31-1.06-2.99-.22-3.95.82-2.31,2.49-6.29,2.4-8.68,0-.04-.06-4.77-4.75-4.81-4.81l-5.74,5.74c-.96.96-.96,2.51,0,3.46l6.44,6.44c.95.95,2.5.97,3.45.02,3.16-3.32,7.26-.96,10.63-4.33.02-.02,1.98-1.95,3.44-3.41M19.14,75.59l-6.95,6.95,7.46,7.27,6.85-6.85s-7.35-7.35-7.37-7.37M23.09,27.89L0,50.98l19.61,19.61,1.6-1.6L4.34,52.12h5.06l11.38,11.38,1-1-10.38-10.38h5.06l4.31,4.31,1-1-4.44-4.44,4.44-4.44-1-1-4.31,4.31h-5.06l10.38-10.38-1-1-11.38,11.38h-5.06l20.35-20.35-1.6-1.6ZM52.12,97.63v-5.06l11.38-11.38-1-1-10.38,10.38v-5.06l4.31-4.31-1-1-4.44,4.44-4.44-4.44-1,1,4.31,4.31v5.06l-10.38-10.38-1,1,11.38,11.38v5.06l-16.38-16.38c-.71.24-1.35.61-1.95,1.24h0s19.47,19.48,19.47,19.48l23.09-23.09-1.6-1.6-20.35,20.35ZM38.88,69.43c1.99-2.05,4.64-2.26,6.57.05,3.7-3.06,4.21-8.69.73-12.12-3.99-4.69-9.2-8.3-14.69-3.31-2.78,2.84-7.94,6.46-4,10.7,2.99,2.75,7.11,9.09,11.39,4.69M9.4,11l81.57,81.57,1.6-1.6L11,9.4l-1.6,1.6ZM49.85,4.34v5.06l-11.38,11.38,1,1,10.38-10.38v5.06l-4.31,4.31,1,1,4.44-4.44,4.44,4.44,1-1-4.31-4.31v-5.06l10.38,10.38,1-1-11.38-11.38v-5.06l16.38,16.38c.71-.24,1.35-.61,1.95-1.24h0S50.98,0,50.98,0l-23.09,23.09,1.6,1.6L49.85,4.34ZM82.82,26.37l6.95-6.95-7.46-7.27-6.85,6.85s7.35,7.35,7.37,7.37M78.88,74.07l23.09-23.09-19.61-19.61-1.6,1.6,16.87,16.87h-5.06l-11.38-11.38-1,1,10.38,10.38h-5.06l-4.31-4.31-1,1,4.44,4.44-4.44,4.44,1,1,4.31-4.31h5.06l-10.38,10.38,1,1,11.38-11.38h5.06l-20.35,20.35,1.6,1.6ZM63.08,32.54c-1.99,2.05-4.64,2.26-6.57-.04-3.7,3.06-4.21,8.69-.73,12.12,3.99,4.69,9.2,8.3,14.69,3.31,2.78-2.84,7.94-6.46,3.99-10.7-2.99-2.75-7.11-9.09-11.39-4.69M60.84,24.79c3.38-3.37,7.47-1.02,10.63-4.33.95-.95,2.49-.93,3.45.02l6.44,6.44c.96.96.96,2.51,0,3.46l-5.74,5.74c-.04-.06-4.77-4.75-4.81-4.81-2.4-2.4-6.38-2.49-8.68,0-.96,1.04-2.63,1.87-3.95.82-1.23-.93-2.07-2.67-.77-3.92,1.47-1.45,3.42-3.39,3.44-3.41"/>
        </g>
      </g>
    </g>
  </g>
</svg>