<?xml version="1.0" encoding="UTF-8"?>
<svg id="Layer_2" data-name="Layer 2" xmlns="http://www.w3.org/2000/svg" xmlns:xlink="http://www.w3.org/1999/xlink" viewBox="0 0 101.97 99.83">
  <defs>
    <style>
      .cls-1 {
        fill: none;
      }

      .cls-2 {
        fill: #000;
      }

      .cls-3 {
        clip-path: url(#clippath);
      }
    </style>
    <clipPath id="clippath">
      <rect class="cls-1" x="0" y="0" width="101.97" height="99.83"/>
    </clipPath>
  </defs>
  <g id="svg2">
    <g id="g226">
      <g class="cls-3">
        <g id="g228">
          <path id="path234" class="cls-2" d="M45.5,69.78c-1.34-.33-2.28.21-2.88.82,4.58,1.17,16.14,13.93,17.37,15.69.43.62.37,1.16.24,1.51-.24.65-.91,1.1-1.51,1.39,3.22,3.58,4.26,5.89,4.59,7.09.65-.21,1.79-.57,2.82-.88.52-.15.93-.55,1.08-1.07,1.24-4.19-5.67-10.14-9.64-14.41-5.64-5.57-9.45-9.48-12.08-10.14M88,16.43l-.98.98c9.44,10.45,13.53,24.01,12.27,37.16l1.38.13c1.3-13.55-2.93-27.52-12.67-38.27M53.13,49.92c0-1.19-.96-2.15-2.15-2.15s-2.15.96-2.15,2.15.96,2.15,2.15,2.15,2.15-.96,2.15-2.15M84.5,81.85l7.2,7.21-1.57,1.57-7.21-7.21c-3.89,3.71-8.41,6.75-13.4,8.93-.1-.71-.32-1.43-.62-2.15,4.62-2.06,8.83-4.9,12.45-8.35l-9.2-9.2c-3.49,3.26-7.55,5.56-11.85,6.9-.38-.39-.74-.76-1.07-1.13,4.33-1.25,8.44-3.5,11.94-6.76l-18.59-18.59c-1,.5-2.18.5-3.18,0l-18.59,18.59c3.54,3.29,7.69,5.56,12.08,6.8.01.03.03.06.04.09.21.44.42.95.63,1.52-4.99-1.22-9.73-3.7-13.73-7.43l-9.2,9.2c7.02,6.68,16.24,11.08,26.45,11.98.05.32.27,1.33,1.07,2.3-11.24-.68-21.42-5.4-29.09-12.72l-7.21,7.21-1.57-1.57,37.56-37.56c-.5-1-.5-2.18,0-3.18l-3.75-3.75c-2.11,2.73-2.39,6.41-.84,9.39l-3.86,4.03c-2.8-4.02-3.28-9.16-1.43-13.56l-1.28-.54c-2.06,4.91-1.49,10.66,1.71,15.1l-1.78,1.78c-3.36-4.44-4.4-10.09-3.09-15.27l-1.34-.34c-1.42,5.64-.27,11.79,3.44,16.6l-1.77,1.77c-3.63-4.56-5.18-10.22-4.66-15.72l-1.38-.13c-.57,5.9,1.12,11.98,5.05,16.84l-1.78,1.78c-6.21-7.53-7.49-17.75-3.86-26.39l-1.28-.54c-3.85,9.15-2.46,19.97,4.15,27.91l-1.77,1.77c-8.35-9.87-9.24-23.89-2.64-34.64l-1.18-.72c-6.92,11.28-5.97,26.01,2.84,36.35l-1.77,1.77c-7.91-9.17-10.05-21.6-6.41-32.54l-1.32-.44c-3.81,11.42-1.56,24.4,6.74,33.96l-1.77,1.77c-8.33-9.5-11.04-22.21-8.13-33.81l-1.35-.34c-3.03,12.05-.19,25.26,8.49,35.13l-1.77,1.77c-10.78-12.15-13.18-29.13-7.17-43.43l-1.28-.54c-6.22,14.8-3.73,32.38,7.46,44.95l-2.55,2.55C.43,62.94.76,35.52,17.47,17.98l-7.2-7.21,1.57-1.57,7.21,7.21c3.89-3.71,8.41-6.74,13.4-8.93.1.71.32,1.43.62,2.15-4.62,2.07-8.83,4.9-12.45,8.35l9.2,9.2c3.49-3.26,7.55-5.56,11.85-6.9.38.39.74.76,1.07,1.13-4.33,1.25-8.43,3.5-11.94,6.76l18.59,18.59c1-.5,2.18-.5,3.18,0l18.59-18.59c-3.54-3.29-7.69-5.56-12.08-6.8-.01-.03-.03-.06-.04-.09-.21-.44-.42-.96-.63-1.52,4.99,1.22,9.73,3.7,13.73,7.43l9.2-9.2c-7.03-6.68-16.24-11.08-26.45-11.98-.05-.32-.27-1.33-1.07-2.3,11.25.68,21.42,5.4,29.09,12.72l7.21-7.21,1.57,1.57-37.56,37.56c.5,1,.5,2.18,0,3.18l3.75,3.75c2.11-2.72,2.39-6.39.85-9.37l3.85-4.05c2.8,4.02,3.28,9.16,1.43,13.56l1.28.54c2.06-4.91,1.49-10.66-1.71-15.1l1.78-1.78c3.36,4.44,4.4,10.08,3.09,15.26l1.34.34c1.42-5.64.27-11.79-3.44-16.6l1.77-1.77c3.63,4.56,5.18,10.22,4.66,15.72l1.38.13c.57-5.9-1.12-11.98-5.05-16.84l1.78-1.78c6.21,7.53,7.49,17.75,3.86,26.39l1.28.54c3.85-9.15,2.46-19.97-4.15-27.91l1.77-1.77c8.35,9.87,9.23,23.9,2.64,34.64l1.18.73c6.92-11.28,5.97-26.01-2.84-36.35l1.77-1.77c7.91,9.17,10.05,21.61,6.4,32.54l1.32.44c3.81-11.41,1.56-24.4-6.74-33.96l1.77-1.77c8.33,9.51,11.04,22.21,8.13,33.81l1.35.34c3.03-12.05.19-25.26-8.49-35.13l1.77-1.77c10.78,12.15,13.18,29.13,7.17,43.43l1.28.54c6.22-14.8,3.73-32.38-7.46-44.95l2.55-2.55c16.1,17.9,15.77,45.32-.94,62.86M45.12,11.13c-.07.24-.25.42-.49.48-.66.18-1.47.59-1.59.91,0,.02-.03.08.08.24.74,1.06,4.13,4.84,7.76,8.35,6.19,5.98,8.37,6.76,9.03,6.82.03,0,.05,0,.07,0-.02-.17-.08-.33-.17-.48-.45-.68-1.31-2.16-2.76-5.22-.4-.85-.79-1.88-1.17-3.02h-1.73c-.38,0-.69-.31-.69-.69s.31-.69.69-.69h1.3c-.12-.4-.24-.81-.36-1.22h-2.05c-.38,0-.69-.31-.69-.69s.31-.69.69-.69h1.68c-.11-.41-.21-.82-.31-1.22h-2.47c-.38,0-.69-.31-.69-.69s.31-.69.69-.69h2.13c-.1-.42-.19-.82-.28-1.22h-2.96c-.38,0-.69-.31-.69-.69s.31-.69.69-.69h2.65c-.33-1.5-.57-2.74-.71-3.43-.06-.32-.44-.47-.71-.28-.82.59-1.1,1.43-1.1,1.43,0,0-3.19.68-5.37-1.77-2.18-2.45-.59-5.72-.59-5.72-.24-.16-.51-.24-.78-.24-.37,0-.73.14-1,.41-1.3,1.28-2.51,2.11-3.26,2.55.18.83,1.03,3.25,5.02,7.5.17.18.23.43.16.67M56.46,30.05c1.34.33,2.28-.21,2.88-.82-4.58-1.17-16.14-13.93-17.37-15.69-.43-.62-.37-1.16-.24-1.51.24-.65.91-1.1,1.51-1.39-3.23-3.58-4.26-5.89-4.59-7.09-.65.21-1.79.57-2.82.88-.51.15-.93.55-1.08,1.07-1.24,4.19,5.67,10.14,9.64,14.41,5.64,5.57,9.45,9.48,12.08,10.14M56.85,88.7c.07-.24.25-.42.49-.48.66-.18,1.48-.59,1.59-.91,0-.02.03-.08-.08-.24-.74-1.06-4.13-4.84-7.76-8.35-6.19-5.98-8.37-6.76-9.03-6.82-.03,0-.05,0-.07,0,.02.17.08.33.17.48.45.68,1.31,2.16,2.76,5.22.4.85.79,1.88,1.17,3.02h1.73c.38,0,.69.31.69.69s-.31.69-.69.69h-1.29c.12.4.24.81.35,1.22h2.05c.38,0,.69.31.69.69s-.31.69-.69.69h-1.68c.11.41.21.82.31,1.22h2.47c.38,0,.69.31.69.69s-.31.69-.69.69h-2.13c.1.42.19.82.29,1.22h2.96c.38,0,.69.31.69.69s-.31.69-.69.69h-2.65c.33,1.5.57,2.74.71,3.43.06.32.44.47.71.28.82-.59,1.1-1.43,1.1-1.43,0,0,3.19-.68,5.37,1.77s.59,5.72.59,5.72c.24.16.51.24.78.24.37,0,.73-.14,1.01-.41,1.3-1.29,2.51-2.11,3.25-2.55-.18-.83-1.03-3.25-5.02-7.5-.17-.18-.23-.43-.16-.67M13.97,83.4C4.23,72.64,0,58.67,1.3,45.13l1.38.13c-1.26,13.15,2.83,26.71,12.27,37.16l-.98.98Z"/>
        </g>
      </g>
    </g>
  </g>
</svg>