<?xml version="1.0" encoding="UTF-8"?>
<svg id="Layer_2" data-name="Layer 2" xmlns="http://www.w3.org/2000/svg" xmlns:xlink="http://www.w3.org/1999/xlink" viewBox="0 0 101.86 101.97">
  <defs>
    <style>
      .cls-1 {
        fill: none;
      }

      .cls-2 {
        fill: #000;
      }

      .cls-3 {
        clip-path: url(#clippath);
      }
    </style>
    <clipPath id="clippath">
      <rect class="cls-1" width="101.86" height="101.97"/>
    </clipPath>
  </defs>
  <g id="svg2">
    <g id="g246">
      <g class="cls-3">
        <g id="g248">
          <path id="path254" class="cls-2" d="M58.96,44.11c.07.49.14,1.37-.07,2.39-.21,1.01-.7,2.18-1.72,3.22l-7.04,7.19c-1.35,1.35-3.49,1.4-4.98-.09-1.5-1.5-1.44-3.63-.09-4.98l7.19-7.04c1.04-1.02,2.21-1.51,3.22-1.72,1.01-.21,1.89-.14,2.39-.07.29.04.54.18.73.37.2.19.33.45.37.73M90.94,10.26l-38.87,33.16v-17.15l1.48-3.71c2.3-5.75,3-13.49,1.71-18.83-.22-.93-.88-2.4-1.31-3.09-.28-.45-.82-.65-1.34-.5-1.08.31-5.35,4.55-5.35,8.43v5.13c0,3.24.52,6.44,1.54,9.51l1,3.01v19.15c-.52.45-1.03.91-1.54,1.37l-4.23-4.22,4.35-4.35v-2s-5.35,5.35-5.35,5.35l-4.39-4.39,9.74-9.74v-.94l-.27-.8-10.48,10.48-4.39-4.39,12.99-12.99c-.1-.59-.17-1.18-.23-1.77l-13.76,13.76-4.39-4.39,17.98-17.98c.05-1.62.69-3.29,1.57-4.78l-21.15,21.15-15.28-15.28-1.6,1.6,15.28,15.28L0,51.03l1.6,1.6,24.67-24.66,4.39,4.39-18.68,18.68,1,1,18.68-18.67,4.39,4.39-13.29,13.29,1,1,13.29-13.29,4.39,4.39-7.9,7.9,1,1,7.9-7.9,4.15,4.15c-3.61,3.31-7.1,6.75-10.45,10.31-4.98,5.29-9.67,10.85-14.06,16.66l-11.93,15.81c-.19.25-.13.54.05.71.18.17.46.24.71.05l15.8-11.93c5.81-4.39,11.37-9.08,16.67-14.06,2.19-2.06,4.34-4.18,6.43-6.34v16.33l-1,3.01c-1.02,3.07-1.54,6.27-1.54,9.51v5.13c0,3.88,4.27,8.12,5.35,8.43.12.03.23.05.35.05.4,0,.78-.2,1-.55.43-.69,1.09-2.16,1.31-3.09,1.29-5.34.58-13.08-1.71-18.83l-1.48-3.71v-18.67c.54-.58,1.08-1.16,1.62-1.74l4.15,4.15-4.35,4.35v2l5.35-5.35,4.39,4.39-9.74,9.74v.86l.33.81,10.41-10.41,4.39,4.39-12.51,12.5c.14.53.26,1.08.38,1.63l13.13-13.13,4.39,4.39-16.69,16.69c0,1.16-.06,2.3-.18,3.38l18.47-18.47,15.28,15.28,1.6-1.6-15.28-15.28,24.66-24.66-1.6-1.6-24.67,24.67-4.39-4.39,18.68-18.67-1-1-18.68,18.67-4.39-4.39,13.29-13.29-1-1-13.29,13.29-4.39-4.39,7.9-7.9-1-1-7.9,7.9-4.22-4.23c1.08-1.2,2.15-2.42,3.2-3.65L91.71,11.03c.22-.26.15-.56-.03-.74-.18-.18-.49-.25-.74-.03"/>
        </g>
      </g>
    </g>
  </g>
</svg>