<?xml version="1.0" encoding="UTF-8"?>
<svg id="Layer_2" data-name="Layer 2" xmlns="http://www.w3.org/2000/svg" xmlns:xlink="http://www.w3.org/1999/xlink" viewBox="0 0 101.97 101.97">
  <defs>
    <style>
      .cls-1 {
        fill: none;
      }

      .cls-2 {
        fill: #000;
      }

      .cls-3 {
        clip-path: url(#clippath);
      }
    </style>
    <clipPath id="clippath">
      <rect class="cls-1" width="101.97" height="101.97"/>
    </clipPath>
  </defs>
  <g id="svg2">
    <g id="g236">
      <g class="cls-3">
        <g id="g238">
          <path id="path244" class="cls-2" d="M45.23,76.46c-.37,1.71-.73,3.32-2.51,5.27l1,1c1.83-1.99,2.37-3.7,2.75-5.34l-1.19-1.19c-.02.08-.04.17-.06.25M40.48,90.38l1.18,1.18c.07-.02.15-.03.22-.05,1.68-.37,3.41-.75,5.41-2.4l-1.01-1.01c-1.7,1.36-3.17,1.69-4.71,2.03-.36.08-.73.16-1.1.25M33.4,86.1c-1.01.47-2.08,1.18-3.24,2.34-.46.46-.84.9-1.17,1.33l1.01,1.01c.32-.43.7-.87,1.16-1.34,1.21-1.21,2.28-1.86,3.32-2.27l-1.08-1.08ZM54.97,66.72c-1.95.43-3.97.87-6.42,3.32-1.45,1.45-2.19,2.75-2.65,3.98l1.12,1.12c.39-1.28,1.02-2.58,2.53-4.09,2.15-2.15,3.89-2.53,5.72-2.94,1.83-.4,3.71-.82,5.95-2.87l-1-1c-1.94,1.76-3.55,2.12-5.25,2.49M55.24,86.47c-.37,1.71-.73,3.32-2.51,5.27l1,1c1.83-1.99,2.37-3.7,2.75-5.34l-1.19-1.19c-.02.08-.04.17-.06.25M38.4,91.1c-1.01.47-2.08,1.18-3.24,2.34-.46.46-.84.9-1.17,1.33l1.01,1.01c.32-.43.7-.87,1.16-1.34,1.21-1.21,2.28-1.86,3.32-2.27l-1.08-1.08ZM59.56,81.05c2.15-2.15,3.89-2.53,5.72-2.94,1.83-.4,3.71-.82,5.95-2.87l-1-1c-1.94,1.76-3.55,2.12-5.25,2.49-1.95.43-3.97.87-6.42,3.32-1.45,1.45-2.19,2.75-2.65,3.98l1.12,1.12c.39-1.28,1.02-2.58,2.53-4.09M50.24,81.46c-.37,1.71-.73,3.32-2.51,5.27l1,1c1.83-1.99,2.37-3.7,2.75-5.34l-1.19-1.19c-.02.08-.04.17-.06.25M40.16,98.45c-.46.46-.84.9-1.17,1.33l1.01,1.01c.32-.43.7-.87,1.16-1.34,1.21-1.21,2.28-1.86,3.32-2.27l-1.08-1.08c-1.01.47-2.08,1.18-3.24,2.34M59.98,71.73c-1.95.43-3.97.87-6.42,3.32-1.45,1.45-2.2,2.75-2.65,3.98l1.12,1.12c.39-1.28,1.02-2.58,2.53-4.09,2.15-2.15,3.89-2.53,5.72-2.94,1.83-.4,3.71-.82,5.95-2.87l-1-1c-1.94,1.76-3.55,2.12-5.25,2.49M36.57,85.12c-.36.08-.73.16-1.1.25l1.18,1.18c.07-.02.15-.03.22-.05,1.68-.37,3.41-.75,5.41-2.4l-1.01-1.01c-1.7,1.36-3.17,1.69-4.71,2.03M86.87,86.86c-1.15-1.94-2.61-3.6-4.18-5.18-1.59-1.56-3.24-3.03-5.18-4.18,1.15,1.94,2.62,3.59,4.18,5.18,1.59,1.57,3.24,3.03,5.18,4.18M58.6,52.5c3.2-3.9,4.17-7.73,1.44-10.47s-6.56-1.77-10.47,1.44c-4.25,3.49-10.84,8.19-5,14.03,4.04,4.05,7.55,2.12,10.48-.86l-4.07-4.07-1.22,1.22c-.44.44-1.16.44-1.6,0-.44-.44-.44-1.16,0-1.6l4.04-4.04c.44-.44,1.16-.44,1.6,0s.44,1.16,0,1.6l-1.22,1.22,3.99,3.99c.72-.84,1.39-1.69,2.03-2.47M94.13,85.32c.54.54.84,1.26.84,2.03s-.3,1.49-.84,2.03l-2.39,2.39s-.02.02-.03.03l-2.41,2.41c-.54.54-1.26.84-2.03.84s-1.49-.3-2.03-.84l-8.05-8.01c-3.21-3.21-3.29-8.99-3.25-10.61l-16.96-16.96c-.89.94-1.78,1.87-2.69,2.8-.5.51-1.03,1.01-1.57,1.49-.54.47-1.1.93-1.67,1.36-2.13,1.61-6.93,5.32-13.76,10.23s-15.68,11.02-25.93,17.41c-.43.27-.9.15-1.19-.14-.29-.29-.41-.76-.14-1.19,6.39-10.25,12.5-19.1,17.41-25.93,4.91-6.83,8.63-11.63,10.23-13.76.43-.57.89-1.13,1.36-1.67.48-.54.97-1.06,1.49-1.57,9.5-9.31,19.46-17.31,28.23-23.71,8.77-6.39,16.34-11.16,21.05-13.98.7-.42,1.45-.23,1.92.24.47.47.66,1.22.24,1.92-2.82,4.71-7.59,12.28-13.98,21.05-5.4,7.41-11.95,15.67-19.47,23.78l17.11,17.11c1.84-.03,7.34.17,10.42,3.25l8.05,8.01ZM99.36,43.2l-5.29,5.29,2.6,2.6,5.29-5.29-2.6-2.6ZM73.41,69.16l2.6,2.6,5.27-5.27-2.6-2.6-5.27,5.27ZM88.18,59.6l-2.6-2.6-5.29,5.29,2.6,2.6,5.29-5.29ZM60.25,91.47c-.37,1.71-.73,3.32-2.51,5.27l1,1c1.83-1.99,2.37-3.7,2.75-5.34l-1.19-1.19c-.02.08-.04.17-.06.25M51.29,93.1c-1.7,1.36-3.17,1.69-4.71,2.03-.36.08-.73.16-1.1.25l1.18,1.18c.07-.02.15-.03.22-.05,1.68-.37,3.41-.75,5.41-2.4l-1.01-1.01ZM51.59,100.13c-.36.08-.73.16-1.1.25l1.18,1.18c.07-.02.15-.03.22-.05,1.68-.37,3.41-.75,5.41-2.4l-1.01-1.01c-1.7,1.36-3.17,1.69-4.71,2.03M75.36,86.66c-.12.03-.25.05-.37.08-1.95.43-3.97.87-6.42,3.32-1.45,1.45-2.19,2.75-2.65,3.98l1.12,1.12c.39-1.28,1.02-2.58,2.53-4.09,2.15-2.15,3.89-2.53,5.72-2.94.39-.09.78-.17,1.18-.28l-.46-.46c-.23-.23-.45-.48-.66-.73M70.29,83.12c.92-.2,1.85-.41,2.83-.82-.14-.47-.26-.93-.36-1.39-.94.42-1.85.62-2.78.83-1.95.43-3.97.87-6.42,3.32-1.45,1.45-2.19,2.75-2.65,3.98l1.12,1.12c.39-1.28,1.02-2.58,2.53-4.09,2.15-2.15,3.89-2.53,5.72-2.94M65.25,96.48c-.37,1.7-.74,3.32-2.51,5.27l-.21.22h1.88c1.3-1.66,1.75-3.13,2.08-4.55l-1.19-1.19c-.02.08-.04.17-.06.25M50.67,8.86c1.7-1.36,3.17-1.69,4.71-2.03.36-.08.73-.16,1.1-.25l-1.18-1.18c-.07.02-.15.03-.22.05-1.68.37-3.41.75-5.41,2.4l1.01,1.01ZM46.99,35.24c1.95-.43,3.97-.87,6.42-3.32,1.45-1.45,2.2-2.75,2.65-3.98l-1.12-1.12c-.39,1.28-1.02,2.58-2.53,4.09-2.15,2.15-3.89,2.53-5.72,2.94-1.95.43-3.97.87-6.42,3.32l1,1c2.15-2.15,3.89-2.53,5.72-2.94M61.48,11.59l-1.18-1.18c-.07.02-.15.03-.22.05-1.68.37-3.41.75-5.41,2.4l1.01,1.01c1.7-1.36,3.17-1.69,4.71-2.03.36-.08.73-.16,1.1-.25M56.73,25.5c.37-1.71.73-3.32,2.51-5.27l-1-1c-1.83,1.99-2.37,3.7-2.75,5.34l1.19,1.19c.02-.08.04-.17.06-.25M51.73,20.5c.37-1.71.73-3.32,2.51-5.27l-1-1c-1.83,1.99-2.37,3.7-2.75,5.34l1.19,1.19c.02-.08.04-.17.06-.25M41.99,30.24c1.95-.43,3.97-.87,6.42-3.32,1.45-1.45,2.19-2.75,2.65-3.98l-1.12-1.12c-.39,1.28-1.02,2.58-2.53,4.09-2.15,2.15-3.89,2.53-5.72,2.94-1.95.43-3.97.87-6.42,3.32l1,1c2.15-2.15,3.89-2.53,5.72-2.94M65.39,16.84c.36-.08.73-.16,1.1-.25l-1.18-1.18c-.07.02-.15.03-.22.05-1.68.37-3.41.75-5.41,2.4l1.01,1.01c1.7-1.36,3.17-1.69,4.71-2.03M68.57,15.87c1.01-.47,2.08-1.18,3.24-2.34.46-.46.84-.9,1.17-1.33l-1.01-1.01c-.32.43-.7.87-1.16,1.34-1.21,1.21-2.28,1.86-3.32,2.27l1.08,1.08ZM12.19,43.97l-5.29,5.29,2.6,2.6,5.29-5.29-2.6-2.6ZM42.4,20.92c-2.15,2.15-3.89,2.53-5.72,2.94-1.95.43-3.97.87-6.42,3.32l1,1c2.15-2.15,3.89-2.53,5.72-2.94,1.95-.43,3.97-.87,6.42-3.32,1.45-1.45,2.19-2.75,2.65-3.98l-1.12-1.12c-.39,1.28-1.02,2.58-2.53,4.09M46.72,15.5c.37-1.71.73-3.32,2.51-5.27l-1-1c-1.83,1.99-2.37,3.7-2.75,5.34l1.19,1.19c.02-.08.04-.17.06-.25M63.57,10.86c1.01-.47,2.08-1.18,3.24-2.34.46-.46.84-.9,1.17-1.33l-1.01-1.01c-.32.43-.7.87-1.16,1.34-1.21,1.21-2.28,1.86-3.32,2.27l1.08,1.08ZM28.56,32.81l-2.6-2.6-5.27,5.27,2.6,2.6,5.27-5.27ZM43.7,42.7L10.7,9.7l-1,1,32.97,32.97c.34-.32.69-.65,1.03-.97M13.79,42.37l2.6,2.6,5.29-5.29-2.6-2.6-5.29,5.29ZM26.98,15.23c1.95-.43,3.97-.87,6.42-3.32,1.45-1.45,2.19-2.75,2.65-3.98l-1.12-1.12c-.39,1.28-1.02,2.58-2.53,4.09-2.15,2.15-3.89,2.53-5.72,2.94-1.95.43-3.97.87-6.42,3.32l1,1c2.15-2.15,3.89-2.53,5.72-2.94M0,56.16l2.6,2.6,5.29-5.29-2.6-2.6L0,56.16ZM50.38,1.83c.36-.08.73-.16,1.1-.25l-1.18-1.18c-.07.02-.15.03-.22.05-1.68.37-3.41.75-5.41,2.4l1.01,1.01c1.7-1.36,3.17-1.69,4.71-2.03M36.72,5.49c.37-1.7.74-3.32,2.51-5.27l.21-.22h-1.88c-1.3,1.66-1.75,3.13-2.08,4.55l1.19,1.19c.02-.08.04-.17.06-.25M61.8,3.52c.46-.46.84-.9,1.17-1.33l-1.01-1.01c-.32.43-.7.87-1.16,1.34-1.21,1.21-2.28,1.86-3.32,2.27l1.08,1.08c1.01-.47,2.08-1.18,3.24-2.34M87.18,55.39l2.6,2.6,5.29-5.29-2.6-2.6-5.29,5.29ZM41.72,10.49c.37-1.71.73-3.32,2.51-5.27l-1-1c-1.83,1.99-2.37,3.7-2.75,5.34l1.19,1.19c.02-.08.04-.17.06-.25M37.4,15.91c1.51-1.51,2.15-2.82,2.53-4.09l1.12,1.12c-.46,1.23-1.2,2.53-2.65,3.98-2.45,2.45-4.47,2.89-6.42,3.32-1.83.4-3.57.78-5.72,2.94l-1-1c2.45-2.45,4.47-2.89,6.42-3.32,1.83-.4,3.57-.78,5.72-2.94"/>
        </g>
      </g>
    </g>
  </g>
</svg>