<?xml version="1.0" encoding="UTF-8"?>
<svg id="Layer_2" data-name="Layer 2" xmlns="http://www.w3.org/2000/svg" xmlns:xlink="http://www.w3.org/1999/xlink" viewBox="0 0 81.72 101.97">
  <defs>
    <style>
      .cls-1 {
        fill: none;
      }

      .cls-2 {
        fill: #000;
      }

      .cls-3 {
        clip-path: url(#clippath);
      }
    </style>
    <clipPath id="clippath">
      <rect class="cls-1" width="81.72" height="101.97"/>
    </clipPath>
  </defs>
  <g id="svg2">
    <g id="g276">
      <g class="cls-3">
        <g id="g278">
          <path id="path284" class="cls-2" d="M.15,90.17l1.57,1.57,17.53-17.53-1.57-1.57L.15,90.17ZM21.05,29.61L1.57,10.13,0,11.7l19.48,19.48,1.57-1.57ZM31.25,45.77l1.2-.7c-2.23-3.8-5.74-6.65-9.91-8.01l-.43,1.32c3.84,1.26,7.09,3.89,9.14,7.4M47.32,56l-4.24-7.64-13.5,17.49,17.74-9.85ZM59.54,61.74c-.09.42-.4.76-.81.89l-11.1,3.28c-.7.21-1.45-.19-1.65-.9-.16-.55.04-1.14.51-1.47l3.62-2.53-1.7-3.07-20.35,11.3-1.63-2.94,15.49-20.07-2.14-3.87,1.95-1.08,2.07,3.72,18.48-5.47,1.16,1.8-6.07,6.98c2.23,1.51,5.09,2.05,7.87,1.23,4.93-1.46,7.75-6.66,6.29-11.59-1.46-4.93-6.65-7.75-11.58-6.3-4.1,1.21-6.74,5.01-6.67,9.09l-4.38,1.3c-.69-6.48,3.31-12.73,9.79-14.65,7.29-2.16,14.96,2.01,17.12,9.3,2.16,7.3-2,14.96-9.3,17.12-6.47,1.91-13.23-1.15-16.18-6.97l4.38-1.3c.29.47.63.9.99,1.31l3.57-4.1-14.35,4.25,4.15,7.49,2.78-3.21c.53.53,1.09,1.01,1.68,1.46l-3.32,3.82,1.75,3.16.13-.09c.46-.32.96-.56,1.48-.71,1.62-.48,3.42-.14,4.76.98l.83.69c.33.28.48.71.4,1.14M29.66,74.73l-11.74-21.16-1.95,1.08,4.49,8.09c-.28.11-.57.22-.87.31-4.93,1.46-10.13-1.37-11.58-6.3-1.46-4.93,1.36-10.13,6.29-11.59,4.93-1.46,10.13,1.37,11.58,6.3,1.02,3.46-.06,7.04-2.5,9.38l2.21,3.98c4.21-3.4,6.18-9.12,4.55-14.63-2.16-7.3-9.82-11.46-17.12-9.3-7.29,2.16-11.46,9.82-9.3,17.12,2.16,7.3,9.82,11.46,17.12,9.3.62-.18,1.21-.41,1.78-.67l4,7.21-3.23,1.79,4.89,8.81,1.95-1.08-3.81-6.87,3.23-1.8ZM31.91,20.29c.29.25.73.21.98-.08l1.64-1.94c.25-.29.21-.73-.08-.98-.29-.25-.73-.21-.98.08l-1.64,1.94c-.25.29-.21.73.08.98M39.24,22.06h4.63v-5.34l-2.7-.75c-1.37-.36-2.63-.52-3.32.5-.6.89-.91,1.47-1.21,2.33-.55,1.6,2,2.86,2.6,3.26M28.69,19.1c-1.23-2.25-1.84-5.55-.14-9.14h1.48c.39,0,.7-.31.7-.7s-.31-.7-.7-.7h-.7c.37-.58.8-1.16,1.3-1.74-.04.22.03.45.2.61.14.13.31.2.49.2s.36-.07.5-.21l1.56-1.61c.27-.28.26-.72-.01-.98-.14-.14-.32-.2-.5-.19.54-.46,1.12-.91,1.76-1.36,0,0,0,0,.01,0v.71c0,.38.31.7.7.7s.7-.31.7-.7v-1.59C40.22,0,43.68.76,46.78,2.7l-.46.54c-.25.29-.21.73.08.98s.73.21.98-.08l.55-.65c.78.57,1.54,1.2,2.28,1.86l-5.08,6.01c-1.19,1.46.59,2.18.67,2.85.09.73-.18,1.29-.55,1.69v6.67l2.83,5.09-1.22.68-2.71-4.89h-6.16c-1.09.79-2.64,1.35-3.79.83,0,0-3.54-1.58-5.52-5.19M81.72,11.69l-1.57-1.57-15.48,15.48c.87.12,1.73.32,2.56.59l14.49-14.5ZM49.8,81.68c-.29-.25-.73-.21-.98.08l-1.64,1.94c-.25.29-.21.73.08.98.29.25.73.21.98-.08l1.64-1.94c.25-.29.21-.73-.08-.98M42.48,79.9h-4.63v5.34l2.7.75c1.37.36,2.63.52,3.32-.5.6-.89.91-1.47,1.21-2.33.54-1.6-2-2.86-2.6-3.26M53.03,82.87c1.23,2.24,1.84,5.55.14,9.14h-1.48c-.38,0-.69.31-.69.7s.31.69.69.69h.71c-.37.58-.8,1.16-1.3,1.74.04-.22-.03-.45-.2-.61-.13-.13-.31-.2-.48-.2s-.36.07-.5.21l-1.56,1.61c-.27.28-.26.72.02.98.14.14.32.2.5.2-.54.45-1.12.91-1.76,1.36,0,0,0,0-.01,0v-.71c0-.38-.31-.69-.69-.69s-.7.31-.7.69v1.59c-4.21,2.38-7.67,1.62-10.77-.32l.46-.54c.25-.29.21-.73-.08-.98-.29-.25-.73-.21-.98.08l-.55.65c-.78-.57-1.54-1.2-2.28-1.86l5.08-6.01c1.19-1.46-.59-2.18-.67-2.85-.09-.73.18-1.29.55-1.69v-6.67l-2.83-5.09,1.22-.67,2.71,4.89h6.16c1.09-.79,2.64-1.35,3.79-.83,0,0,3.54,1.58,5.52,5.19M68.03,56.25l.46,1.31c6-2.1,10.48-7.27,11.7-13.49l-1.37-.27c-1.13,5.74-5.26,10.51-10.8,12.44M64.18,72.74l17.53,17.53-1.57,1.57-17.53-17.53-1.95-1.95,1.57-1.57,1.95,1.95Z"/>
        </g>
      </g>
    </g>
  </g>
</svg>