<?xml version="1.0" encoding="UTF-8"?>
<svg id="Layer_2" data-name="Layer 2" xmlns="http://www.w3.org/2000/svg" xmlns:xlink="http://www.w3.org/1999/xlink" viewBox="0 0 83.17 101.97">
  <defs>
    <style>
      .cls-1 {
        fill: none;
      }

      .cls-2 {
        fill: #000;
      }

      .cls-3 {
        clip-path: url(#clippath);
      }
    </style>
    <clipPath id="clippath">
      <rect class="cls-1" x="0" y="0" width="83.17" height="101.97"/>
    </clipPath>
  </defs>
  <g id="svg2">
    <g id="g146">
      <g class="cls-3">
        <g id="g148">
          <path id="path154" class="cls-2" d="M48.86,12.73h0s.37-1.68.32-3.2h4.92l3.28-1.75-8.2-2.8c-2.12-.72-4.19-1.57-6.2-2.56C41.05,1.46,37.79.2,33.67,0c-.31,1.08-.95,2.01-1.92,2.98-.62.62-1.42,1.33-2.2,2.25l13.26,7.5h6.04ZM42.65,17.82l2.22,2.55c1.65-1.75,2.9-3.87,3.62-6.22h-5.13l-.94,1.98c-.27.56-.17,1.22.23,1.69M49.02,25.72s.76-1.54-.33-3.65h-4.21l-2.9-3.33c-.78-.89-.95-2.16-.44-3.23l.43-.89-13.32-7.54c-.76,1.32-1.38,2.98-1.61,5.14l16.46,16.46,5.93-2.97ZM64.39,55.05l2.21-.49-2.05-9.2c.31-.03.62-.05.94-.05,5.23,0,9.49,4.26,9.49,9.49s-4.26,9.49-9.49,9.49-9.49-4.26-9.49-9.49c0-3.67,2.09-6.85,5.15-8.43l-1.01-4.53c-5.09,2.1-8.67,7.11-8.67,12.96,0,7.75,6.28,14.02,14.02,14.02s14.02-6.28,14.02-14.02-6.28-14.02-14.02-14.02c-.65,0-1.3.05-1.93.14l-1.82-8.2,3.68-.82-3.47-15.6-2.21.49,2.98,13.39-3.68.82,5.35,24.05ZM34.32,89.23h-.01s-.37,1.68-.32,3.2h-4.92l-3.28,1.75,8.2,2.8c2.12.72,4.19,1.57,6.2,2.56,1.93.95,5.19,2.22,9.3,2.42.31-1.08.95-2.01,1.92-2.98.62-.62,1.42-1.33,2.2-2.25l-13.26-7.5h-6.03,0ZM34.15,76.25s-.76,1.54.33,3.65h4.21s2.9,3.33,2.9,3.33c.78.89.95,2.16.44,3.23l-.43.89,13.32,7.54c.76-1.32,1.38-2.98,1.61-5.14l-16.46-16.46-5.93,2.97ZM40.53,84.15l-2.22-2.55c-1.65,1.75-2.9,3.86-3.62,6.22h5.13l.94-1.98c.27-.56.17-1.22-.23-1.69M36.39,44.2l1.93,8.68,18.23-13.18-20.16,4.49ZM26.18,36.29c-.24-.37-.27-.84-.06-1.22.21-.39.61-.63,1.05-.63h11.78c.75,0,1.35.61,1.35,1.35,0,.58-.37,1.1-.93,1.28l-4.26,1.42.78,3.49,23.13-5.15.74,3.34-20.91,15.12.98,4.39-2.21.49-.94-4.23h-19.62l-.61-2.09,7.94-5.06c-1.74-2.12-4.38-3.47-7.33-3.47-5.23,0-9.49,4.26-9.49,9.49s4.26,9.49,9.49,9.49c4.35,0,8.02-2.94,9.14-6.94h4.65c-1.2,6.53-6.91,11.47-13.78,11.47-7.74,0-14.02-6.28-14.02-14.02s6.28-14.02,14.02-14.02c6.87,0,12.59,4.95,13.78,11.47h-4.65c-.15-.54-.35-1.06-.59-1.56l-4.67,2.98h15.24l-1.89-8.51-3.64,2.32c-.36-.67-.77-1.3-1.22-1.91l4.34-2.77-.8-3.59-.16.05c-.54.18-1.1.27-1.65.27-1.72,0-3.38-.85-4.37-2.33l-.61-.91ZM18.59,26.39L1.6,9.4,0,11l16.99,16.99,1.6-1.6ZM83.18,11l-1.6-1.6-10.11,10.11,1.6,1.6,10.11-10.11ZM64.58,75.58l16.99,16.99,1.6-1.6-16.99-16.99-1.6,1.6ZM16.99,73.98l1.6,1.6L1.6,92.57,0,90.97l16.99-16.99Z"/>
        </g>
      </g>
    </g>
  </g>
</svg>