<?xml version="1.0" encoding="UTF-8"?>
<svg id="Layer_2" data-name="Layer 2" xmlns="http://www.w3.org/2000/svg" xmlns:xlink="http://www.w3.org/1999/xlink" viewBox="0 0 88.86 101.97">
  <defs>
    <style>
      .cls-1 {
        fill: none;
      }

      .cls-2 {
        fill: #000;
      }

      .cls-3 {
        clip-path: url(#clippath);
      }
    </style>
    <clipPath id="clippath">
      <rect class="cls-1" width="88.86" height="101.97"/>
    </clipPath>
  </defs>
  <g id="svg2">
    <g id="g256">
      <g class="cls-3">
        <g id="g258">
          <path id="path264" class="cls-2" d="M11.41,45.93L.43,42.17,0,43.49l11.23,3.84c.04-.47.1-.94.18-1.4M16.4,37.12L.43,31.65,0,32.96l15.28,5.23c.35-.38.73-.74,1.12-1.08M26.88,26.94L10.56,10.3l-1.54,1.57,16.32,16.63,1.54-1.57ZM13.07,41.24L.43,36.91,0,38.23l12.45,4.26c.19-.43.39-.85.62-1.25M9.02,90.1l1.54,1.57,16.32-16.63-1.54-1.57-16.32,16.63ZM76,80.13l11.32,11.53,1.54-1.57-10.98-11.19c-.59.45-1.22.86-1.87,1.22M82.44,66.83c0-6.54-4.5-12.01-10.51-13.38l.49-2.92.4.07,1.22-7.26,3.79.69.38-2.18-3.87-.7c-1.15-.18-2.24.62-2.44,1.79l-1.23,7.29.4.07-2.77,16.42,1.34.23,1.77-10.49c4.6,1.12,8.03,5.35,8.03,10.37,0,5.88-4.7,10.67-10.47,10.67s-10.47-4.79-10.47-10.67,4.55-10.52,10.2-10.66l.51-3.05c-.08,0-.16,0-.24,0-7.43,0-13.46,6.14-13.46,13.72s6.03,13.72,13.46,13.72,13.46-6.14,13.46-13.72M39.45,11.06c7-1.76,8.26-2.08,16.78,2.06,2.71,1.32,4.59.33,5.9-.86-.57.16-1.03.25-1.69.25-1.2,0-2.53-.31-3.97-1.14-5.57-3.21-10.18-3.95-15.39-2.48-3.05.86-4.1,1.16-5.06,1.19-.34.46-.79.91-1.41,1.53.94.27,2.47.04,4.82-.55M69.28,47.27l-22.13-1.04-1.89,11.24,24.03-10.2ZM44.9,46.43l-5.5.96c.03.4.06.8.06,1.21,0,1.64-.28,3.21-.8,4.67l-2.64-1.58c.29-.98.45-2.02.45-3.09,0-.23-.01-.47-.02-.7l-7.32,1.28,13.92,8.32,1.86-11.07ZM69.41,49.62l-24.59,10.44-.63,3.75-2.14-.37.61-3.6-17.2-10.27.37-2.05,10.26-1.79c-1.24-4.49-5.29-7.79-10.08-7.79-5.77,0-10.47,4.79-10.47,10.67s4.7,10.67,10.47,10.67c2.96,0,5.63-1.26,7.54-3.28l2.64,1.58c-2.47,2.91-6.11,4.75-10.18,4.75-7.43,0-13.46-6.14-13.46-13.72s6.03-13.72,13.46-13.72c6.28,0,11.56,4.39,13.04,10.32l6.25-1.09,1.3-7.71c-.5-.01-.99-.09-1.45-.25-1.57-.52-2.83-1.82-3.29-3.5l-.28-1.03c-.11-.42,0-.86.31-1.16.31-.3.75-.4,1.15-.27l10.75,3.59c.68.23,1.05.98.83,1.67-.17.54-.67.91-1.23.91l-4.58.03-1.28,7.63,22.65,1.06-.76,4.52ZM88.86,11.87l-1.54-1.57-16.32,16.63,1.54,1.57,16.32-16.63ZM50.99,17.09c-.26-.07-.51-.14-.77-.23-1.28-.44-3.75-.91-6.47-.06l4.25,4.33,2.98-4.05ZM52.5,17.35l-3.52,4.78,3.37,3.43-.96.98-9.03-9.2c-2.28.87-4.1-.1-5.43-1.45,3.94-.46,6.75-1.96,9.27-2.14,1.32-.16,2.67,0,4.02.24.04,0,.07-.02.08-.06.01-.04,0-.08-.04-.09-4.35-1.72-7.61-.26-10.27.32-.73.16-2.72.53-3.99.63-.44-.6-.79-1.2-1.06-1.7,1.05.13,2.72-.15,4.83-.68,6.75-1.7,7.79-1.96,15.86,1.96,1.1.54,2.13.76,3.08.76.15,0,.3-.01.45-.02-1.26.99-2.45,1.64-3.51,1.95-1.03.3-2.1.39-3.17.29M40.72,7.56c5.52-1.56,10.58-.76,16.42,2.61,2.8,1.61,5.15.95,6.62.05-.56-.98-9.11-15.06-27.97-6.17,0,0-1.8,2.23.35,4.65.78-.06,1.8-.34,4.58-1.13M58.43,90.9c-7,1.76-8.26,2.08-16.78-2.06-2.71-1.32-4.59-.33-5.9.86.57-.16,1.03-.25,1.69-.25,1.2,0,2.53.31,3.97,1.14,5.57,3.21,10.18,3.95,15.39,2.48,3.05-.86,4.11-1.16,5.06-1.19.34-.46.79-.91,1.41-1.53-.94-.27-2.47-.04-4.82.55M47.65,85.11c1.28.44,3.75.91,6.46.06l-4.25-4.33-2.98,4.05c.26.07.51.14.77.23M47.57,88.04s0,.08.04.09c4.35,1.72,7.61.26,10.27-.32.73-.16,2.72-.53,3.99-.63.44.6.8,1.2,1.06,1.7-1.05-.13-2.72.15-4.83.68-6.75,1.7-7.79,1.96-15.86-1.96-1.1-.54-2.13-.76-3.08-.76-.15,0-.3.01-.45.02,1.26-.99,2.45-1.64,3.51-1.95,1.03-.3,2.1-.38,3.17-.29l3.52-4.78-3.37-3.43.96-.98,9.03,9.2c2.28-.87,4.1.1,5.43,1.45-3.94.46-6.75,1.96-9.27,2.14-1.32.16-2.67,0-4.02-.24-.04,0-.07.02-.08.06M61.74,93.28c2.15,2.42.35,4.65.35,4.65-18.86,8.88-27.41-5.2-27.97-6.17,1.47-.91,3.82-1.57,6.62.05,5.84,3.36,10.9,4.17,16.42,2.61,2.78-.79,3.8-1.08,4.58-1.13"/>
        </g>
      </g>
    </g>
  </g>
</svg>