<?xml version="1.0" encoding="UTF-8"?>
<svg id="Layer_2" data-name="Layer 2" xmlns="http://www.w3.org/2000/svg" xmlns:xlink="http://www.w3.org/1999/xlink" viewBox="0 0 101.97 101.97">
  <defs>
    <style>
      .cls-1 {
        fill: none;
      }

      .cls-2 {
        fill: #000;
      }

      .cls-3 {
        clip-path: url(#clippath);
      }
    </style>
    <clipPath id="clippath">
      <rect class="cls-1" width="101.97" height="101.97"/>
    </clipPath>
  </defs>
  <g id="svg2">
    <g id="g266">
      <g class="cls-3">
        <g id="g268">
          <path id="path274" class="cls-2" d="M16.22,18.64l4.98,2.79,2.09-9.85-7.07,7.07ZM6.25,17.22c-.07-.23-.01-.48.16-.65l3.41-3.47c.28-.28.73-.29,1.01,0,.22.22.28.55.14.83l-.68,1.4,4.65,2.6,7.27-7.27,4.13,2c-.01.14-.02.29-.02.43,0,3.2,2.59,5.79,5.79,5.79s5.79-2.59,5.79-5.79-2.59-5.79-5.79-5.79c-2.04,0-3.83,1.06-4.86,2.65l5.17,2.5-.62,1.27-10.93-5.28c-.41-.2-.69-.58-.76-1.02s.07-.89.39-1.2l1.93-1.93c.34-.34.83-.48,1.29-.37.47.11.84.45.99.91l.6,1.77-1.34.45-.58-1.72-1.86,1.86,3.66,1.77c1.41-2.35,3.97-3.93,6.91-3.93,4.45,0,8.06,3.61,8.06,8.06s-3.61,8.06-8.06,8.06c-4.02,0-7.35-2.95-7.96-6.8l-1.65,7.81,3.02,1.69-.69,1.24-7.22-4.04-2.07,9.45-1.38-.3,2.16-9.87-6.67-3.73c-.41.75-1.19,1.21-2.03,1.21-.14,0-.29-.01-.43-.04l-.45-.08c-.24-.05-.43-.22-.5-.45M22.91,30.33c0-3.1-1.75-5.79-4.32-7.14l-.51,2.33c1.55,1.04,2.57,2.81,2.57,4.81,0,3.2-2.59,5.79-5.79,5.79s-5.79-2.59-5.79-5.79c0-2.88,2.11-5.27,4.87-5.71l.51-2.34c-4.26.22-7.65,3.74-7.65,8.05s3.61,8.06,8.06,8.06,8.06-3.61,8.06-8.06M80.77,42.8l4.01-4.01-1-1-4.01,4.01,1,1ZM87.76,35.81l4.01-4.01-1-1-4.01,4.01,1,1ZM73.77,49.8l4.01-4.01-1-1-4.01,4.01,1,1ZM18.19,64.17l4.01-4.01-1-1-4.01,4.01,1,1ZM66.78,56.79l4.01-4.01-1-1-4.01,4.01,1,1ZM11.2,71.17l4.01-4.01-1-1-4.01,4.01,1,1ZM90.97,9.4L9.4,90.97l1.6,1.6L92.57,11l-1.6-1.6ZM25.19,57.18l4.01-4.01-1-1-4.01,4.01,1,1ZM100.36,41l-59.36,59.36,1.6,1.6,59.36-59.36-1.6-1.6ZM41.8,79.77l-4.01,4.01,1,1,4.01-4.01-1-1ZM45.79,77.78l4.01-4.01-1-1-4.01,4.01,1,1ZM52.79,70.78l4.01-4.01-1-1-4.01,4.01,1,1ZM30.8,90.77l1,1,4.01-4.01-1-1-4.01,4.01ZM59.78,63.79l4.01-4.01-1-1-4.01,4.01,1,1ZM46.17,36.19l4.01-4.01-1-1-4.01,4.01,1,1ZM71.17,11.2l-1-1-4.01,4.01,1,1,4.01-4.01ZM60.17,22.2l4.01-4.01-1-1-4.01,4.01,1,1ZM88.03,77.35l-.51,2.34c4.26-.21,7.65-3.73,7.65-8.05s-3.61-8.06-8.06-8.06-8.06,3.61-8.06,8.06c0,3.1,1.75,5.79,4.32,7.14l.51-2.33c-1.55-1.04-2.56-2.81-2.56-4.81,0-3.2,2.59-5.79,5.79-5.79s5.79,2.59,5.79,5.79c0,2.88-2.11,5.27-4.87,5.71M85.74,83.33l-4.98-2.79-2.09,9.86,7.07-7.07ZM95.72,84.74c.07.23.01.48-.16.65l-3.41,3.47c-.28.28-.73.29-1.01,0-.22-.22-.28-.55-.14-.83l.68-1.4-4.65-2.6-7.27,7.27-4.13-2c.01-.14.02-.28.02-.43,0-3.2-2.59-5.79-5.79-5.79s-5.79,2.59-5.79,5.79,2.59,5.79,5.79,5.79c2.04,0,3.83-1.06,4.86-2.66l-5.17-2.5.62-1.27,10.93,5.28c.4.2.69.58.76,1.02.07.44-.07.89-.39,1.2l-1.93,1.93c-.34.34-.82.48-1.29.37-.47-.11-.84-.45-1-.91l-.59-1.77,1.34-.45.58,1.72,1.86-1.86-3.66-1.77c-1.41,2.35-3.97,3.93-6.91,3.93-4.45,0-8.06-3.61-8.06-8.06s3.61-8.06,8.06-8.06c4.02,0,7.35,2.95,7.96,6.8l1.65-7.81-3.02-1.69.69-1.24,7.22,4.04,2.07-9.45,1.38.3-2.16,9.87,6.66,3.73c.41-.75,1.2-1.21,2.03-1.21.14,0,.29.01.43.04l.45.09c.24.05.43.22.5.45M86.35,62.19c.25-.02.51-.03.76-.03.4,0,.8.03,1.2.08l13.66-13.66-1-1-14.61,14.61ZM32.18,50.18l4.01-4.01-1-1-4.01,4.01,1,1ZM100.96,53.55l-9.61,9.61c.43.22.85.47,1.25.75l9.36-9.36-1-1ZM39.18,43.19l4.01-4.01-1-1-4.01,4.01,1,1ZM53.17,29.19l4.01-4.01-1-1-4.01,4.01,1,1ZM59.36,0L0,59.36l1.6,1.6L60.96,1.6,59.36,0ZM10.61,38.8c-.43-.22-.85-.47-1.25-.75L0,47.41l1,1,9.61-9.61ZM14.85,39.81c.25,0,.51-.01.76-.03L1,54.39,0,53.39l13.66-13.66c.39.05.79.08,1.2.08"/>
        </g>
      </g>
    </g>
  </g>
</svg>