<?xml version="1.0" encoding="UTF-8"?>
<svg id="Layer_2" data-name="Layer 2" xmlns="http://www.w3.org/2000/svg" xmlns:xlink="http://www.w3.org/1999/xlink" viewBox="0 0 92.6 101.97">
  <defs>
    <style>
      .cls-1 {
        fill: none;
      }

      .cls-2 {
        fill: #000;
      }

      .cls-3 {
        clip-path: url(#clippath);
      }
    </style>
    <clipPath id="clippath">
      <rect class="cls-1" width="92.6" height="101.97"/>
    </clipPath>
  </defs>
  <g id="svg2">
    <g id="g166">
      <g class="cls-3">
        <g id="g168">
          <path id="path174" class="cls-2" d="M57.99,90.17c.2.42.44.82.71,1.2-9.08,7.84-21.07,10.59-32.19,8.26l.53-1.29c10.72,2.18,22.25-.54,30.96-8.16M34.6,11.79c-.2-.42-.44-.82-.71-1.2C42.98,2.75,54.96,0,66.09,2.34l-.53,1.29c-10.72-2.18-22.25.54-30.96,8.16M77.54,85.45l-2.71-4.84,9.63-2.08-6.92,6.92ZM91.63,77.46l-2.85,2.83-1.81-3.72-12.85,2.77-1.64-2.93-1.2.67,8.25,14.74c-.82.48-1.25,1.44-1.07,2.38l.09.43c.05.23.21.41.44.48s.47,0,.63-.16l3.34-3.34c.27-.27.27-.71,0-.99-.13-.13-.31-.2-.49-.2-.11,0-.21.02-.31.07l-1.4.7-2.52-4.51,8.16-8.16,1.17,2.42c.19.39.56.66.99.73.43.07.86-.07,1.17-.37l2.88-2.86-.97-.97ZM72.53,85.84c.02.22.03.45.03.67,0,3.87-3.14,7.01-7.01,7.01s-7.01-3.14-7.01-7.01,3.14-7.01,7.01-7.01c3.17,0,5.84,2.1,6.71,4.99l-6.84,1.35.27,1.35,6.84-1.35ZM82.71,62.35c3.87,0,7.01,3.14,7.01,7.01,0,2.53-1.34,4.75-3.35,5.98l-3.04-6.28-1.24.6,3.04,6.28c-.75.28-1.57.43-2.42.43-3.87,0-7.01-3.14-7.01-7.01s3.14-7.01,7.01-7.01M15.07,16.51l2.71,4.84-9.63,2.08,6.92-6.92ZM5.63,25.38l12.85-2.77,1.64,2.93,1.2-.67-8.25-14.74c.82-.48,1.26-1.44,1.07-2.38l-.09-.43c-.05-.23-.21-.41-.44-.48-.22-.07-.47,0-.63.16l-3.34,3.34c-.27.27-.27.71,0,.99.13.13.31.21.49.21.11,0,.21-.02.31-.07l1.4-.7,2.52,4.51-8.16,8.16-1.17-2.42c-.19-.39-.56-.66-.99-.73-.43-.07-.86.07-1.17.37L0,23.52l.97.97,2.85-2.83,1.81,3.72ZM20.07,16.12c-.02-.22-.03-.45-.03-.67,0-3.87,3.14-7.01,7.01-7.01s7.01,3.14,7.01,7.01-3.14,7.01-7.01,7.01c-3.17,0-5.84-2.1-6.71-4.99l6.84-1.35-.27-1.35-6.84,1.35ZM9.89,39.61c-3.87,0-7.01-3.14-7.01-7.01,0-2.53,1.34-4.75,3.35-5.98l3.04,6.28,1.24-.6-3.04-6.28c.75-.28,1.57-.43,2.42-.43,3.87,0,7.01,3.14,7.01,7.01s-3.14,7.01-7.01,7.01M22.51,51.47l24.27-24.27c6.42-6.42,16.88-6.42,23.3,0,6.42,6.42,6.42,16.88,0,23.3l-24.27,24.27c-6.42,6.42-16.88,6.42-23.3,0-6.42-6.42-6.42-16.88,0-23.3M46.78,75.74l24.27-24.27c6.96-6.96,6.96-18.28,0-25.24-6.96-6.96-18.28-6.96-25.24,0l-24.27,24.27c-6.96,6.96-6.96,18.28,0,25.24,6.96,6.96,18.28,6.96,25.24,0M29.8,58.74l24.26-24.26c2.15-2.15,5.48-2.38,7.89-.7l-32.86,32.86c-1.68-2.41-1.44-5.74.7-7.89M62.8,43.22l-24.26,24.26c-2.15,2.15-5.48,2.38-7.89.7l32.86-32.86c1.68,2.41,1.44,5.74-.7,7.89M23.48,73.8c.26.26.53.51.81.75l5.37-5.37c2.96,2.21,7.16,1.97,9.85-.72l24.26-24.26c2.69-2.69,2.93-6.89.72-9.85l5.37-5.37c-.24-.28-.48-.55-.75-.81-.26-.26-.53-.51-.81-.75l-5.37,5.37c-2.96-2.21-7.16-1.97-9.85.72l-24.26,24.26c-2.69,2.69-2.93,6.89-.72,9.85l-5.37,5.37c.24.27.48.55.75.81M15.52,44.48l24.27-24.27c10.03-10.03,26.14-10.28,36.48-.76l-5.05,5.05c.27.24.54.49.8.75.26.26.51.53.75.8l5.05-5.05c9.53,10.34,9.28,26.45-.76,36.48l-24.27,24.27c-10.03,10.03-26.14,10.28-36.48.76l5.05-5.05c-.27-.24-.54-.49-.8-.75-.26-.26-.51-.53-.75-.8l-5.05,5.05c-9.53-10.34-9.28-26.45.76-36.48M57.17,86.92c0-.13,0-.26,0-.39,0-.58.06-1.15.17-1.71l-.75.75c-12.11,12.11-31.66,12.36-44.08.76l2.25-2.25c11.2,10.38,28.7,10.13,39.59-.76l24.27-24.27c10.89-10.89,11.14-28.39.76-39.59l7.25-7.25-1.55-1.55-4.02,4.02c-12.83-12.01-32.96-11.89-45.63.38,0,.13,0,.26,0,.39,0,.58-.06,1.15-.17,1.7l.75-.75c12.11-12.11,31.66-12.36,44.08-.76l-2.25,2.25c-11.2-10.38-28.7-10.13-39.59.76l-24.27,24.27c-10.89,10.89-11.14,28.39-.76,39.59l-7.25,7.25,1.55,1.55,4.02-4.02c12.83,12.01,32.96,11.89,45.63-.38"/>
        </g>
      </g>
    </g>
  </g>
</svg>