<?xml version="1.0" encoding="UTF-8"?>
<svg id="Layer_2" data-name="Layer 2" xmlns="http://www.w3.org/2000/svg" xmlns:xlink="http://www.w3.org/1999/xlink" viewBox="0 0 100.05 100.05">
  <defs>
    <style>
      .cls-1 {
        fill: none;
      }

      .cls-2 {
        fill: #000;
      }

      .cls-3 {
        clip-path: url(#clippath);
      }
    </style>
    <clipPath id="clippath">
      <rect class="cls-1" width="100.05" height="100.05"/>
    </clipPath>
  </defs>
  <g id="svg2">
    <g id="g176">
      <g class="cls-3">
        <g id="g178">
          <path id="path184" class="cls-2" d="M90.84,10.79l-1.57-1.57L9.22,89.26l1.57,1.57L90.84,10.79ZM56.56,64.28h1.04l1.51-2.06h-2.55v2.06ZM59.32,64.28h12.36l1.51-2.06h-12.36l-1.51,2.06ZM73.4,64.28h4.65l-1.51-2.06h-1.63l-1.51,2.06ZM61.95,90.05h-1.17v3.61h4.77l-3.6-3.61ZM66.93,95.05h-6.15v3.61h8.67c.27,0,.38-.19.41-.28.03-.08.09-.3-.1-.49l-2.83-2.85ZM59.39,90.05h-7.89v3.61h7.89v-3.61ZM59.39,95.05h-7.89v3.61h7.89v-3.61ZM50.1,90.05h-7.89v3.61h7.89v-3.61ZM50.1,95.05h-7.89v3.61h7.89v-3.61ZM36.61,98.66h4.21v-3.61h-6.95v.88c0,1.51,1.23,2.73,2.73,2.73M33.88,93.66h6.95v-3.61h-6.94v3.61ZM55.17,62.22h-2.73c1,14.29,12.94,25.6,27.47,25.6h20.14v2.22h-36.15l6.84,6.87c.53.54.69,1.3.4,2-.29.7-.94,1.13-1.7,1.13h-32.84c-2.27,0-4.12-1.85-4.12-4.12v-8.11h1.95c3.69,0,6.85-1.37,9.15-3.97,2.72-3.07,4.1-7.66,4.1-13.64v-8h-6.31l1.39-1.39h4.92v-4.92l1.39-1.39v15.7c0,6.33-1.5,11.23-4.45,14.56-1.67,1.89-3.76,3.2-6.14,3.88h35.77c-13.25-2.64-23.28-14.35-23.28-28.37v-7.68l1.39-1.39v9.07c0,.18,0,.36,0,.55h14.37c-5.97-1.33-10.27-5.07-12.84-11.15l1.07-1.07c3.01,7.56,8.75,11.39,17.11,11.39h4.55l3.14,4.29h20.28v2.22h-44.89v-4.29ZM14.48,77.98c.82.46,1.66.93,2.84,1.21l1.2-1.2c-1.5-.18-2.41-.69-3.36-1.23-1.29-.73-2.63-1.48-5.28-1.48s-3.99.75-5.28,1.48c-1.19.67-2.31,1.3-4.6,1.3v1.39c2.65,0,3.99-.75,5.28-1.48,1.19-.67,2.31-1.3,4.6-1.3s3.41.63,4.6,1.3M9.88,71.02c2.29,0,3.41.63,4.6,1.3,1.29.73,2.63,1.48,5.28,1.48,1.57,0,2.67-.26,3.58-.63l3.03-3.03c-.77.27-1.4.63-2.02.97-1.19.67-2.31,1.3-4.6,1.3s-3.41-.63-4.6-1.3c-1.29-.73-2.63-1.48-5.28-1.48s-3.99.75-5.28,1.48c-1.19.67-2.31,1.3-4.6,1.3v1.39c2.65,0,3.99-.75,5.28-1.48,1.19-.67,2.31-1.3,4.6-1.3M9.88,65.37c2.29,0,3.41.63,4.6,1.3,1.29.73,2.63,1.48,5.28,1.48s3.99-.75,5.28-1.48c1.19-.67,2.31-1.3,4.6-1.3.53,0,1,.03,1.42.09l1.18-1.18c-.71-.19-1.56-.3-2.6-.3-2.65,0-3.99.75-5.28,1.48-1.19.67-2.31,1.3-4.6,1.3s-3.41-.63-4.6-1.3c-1.29-.73-2.63-1.48-5.28-1.48s-3.99.75-5.28,1.48c-1.19.67-2.31,1.3-4.6,1.3v1.39c2.65,0,3.99-.75,5.28-1.48,1.19-.67,2.31-1.3,4.6-1.3M9.88,59.71c2.29,0,3.41.63,4.6,1.3,1.29.73,2.63,1.48,5.28,1.48s3.99-.75,5.28-1.48c1.19-.67,2.31-1.3,4.6-1.3s3.41.63,4.6,1.3c.27.15.54.3.82.45l1.04-1.04c-.41-.19-.8-.4-1.18-.62-1.29-.73-2.63-1.48-5.28-1.48s-3.99.75-5.28,1.48c-1.19.67-2.31,1.3-4.6,1.3s-3.41-.63-4.6-1.3c-1.29-.73-2.63-1.48-5.28-1.48s-3.99.75-5.28,1.48c-1.19.67-2.31,1.3-4.6,1.3v1.39c2.65,0,3.99-.75,5.28-1.48,1.19-.67,2.31-1.3,4.6-1.3M66.18,4.12c0-1.51-1.23-2.73-2.73-2.73h-4.21v3.61h6.95v-.88ZM66.18,6.39h-6.95v3.61h6.94v-3.61ZM49.95,10h7.89v-3.61h-7.89v3.61ZM48.56,1.39h-7.89v3.61h7.89V1.39ZM48.56,6.39h-7.89v3.61h7.89v-3.61ZM39.28,1.39h-8.67c-.27,0-.38.19-.41.28-.03.08-.09.3.1.49l2.83,2.85h6.15V1.39ZM39.28,6.39h-4.77l3.6,3.61h1.17v-3.61ZM49.95,5h7.89V1.39h-7.89v3.61ZM43.5,35.77h-1.04l-1.51,2.06h2.55v-2.06ZM40.73,35.77h-12.36l-1.51,2.06h12.36l1.51-2.06ZM26.65,35.77h-4.65l1.51,2.06h1.63l1.51-2.06ZM67.57,4.12v8.11h-1.95c-3.69,0-6.85,1.37-9.15,3.97-2.72,3.07-4.1,7.66-4.1,13.64v8h6.31l-1.39,1.39h-4.92v4.92l-1.39,1.39v-15.7c0-6.33,1.5-11.23,4.45-14.56,1.67-1.89,3.76-3.2,6.14-3.88H25.79c13.25,2.63,23.28,14.35,23.28,28.37v7.68l-1.39,1.39v-9.07c0-.18,0-.37,0-.55h-14.37c5.97,1.33,10.27,5.07,12.84,11.15l-1.07,1.07c-3.01-7.56-8.75-11.38-17.11-11.38h-4.55l-3.14-4.29H0v-2.22h44.89v4.29h2.73c-1-14.29-12.94-25.6-27.47-25.6H0v-2.22h36.15l-6.84-6.87c-.53-.54-.69-1.3-.4-2C29.2.43,29.85,0,30.61,0h32.84c2.27,0,4.12,1.85,4.12,4.12M90.18,29.03c-2.29,0-3.41-.63-4.6-1.3-1.29-.73-2.63-1.48-5.28-1.48-1.57,0-2.67.26-3.58.63l-3.03,3.03c.77-.27,1.4-.63,2.02-.97,1.19-.67,2.31-1.3,4.6-1.3s3.41.63,4.6,1.3c1.29.73,2.63,1.48,5.28,1.48s3.99-.75,5.28-1.48c1.19-.67,2.31-1.3,4.6-1.3v-1.39c-2.65,0-3.99.75-5.28,1.48-1.19.67-2.31,1.3-4.6,1.3M94.77,22.07c-1.19.67-2.31,1.3-4.6,1.3s-3.41-.63-4.6-1.3c-.82-.46-1.66-.93-2.84-1.22l-1.2,1.2c1.5.18,2.41.69,3.36,1.23,1.29.73,2.63,1.48,5.28,1.48s3.99-.75,5.28-1.48c1.19-.67,2.31-1.3,4.6-1.3v-1.39c-2.65,0-3.99.75-5.28,1.48M90.18,34.69c-2.29,0-3.41-.63-4.6-1.3-1.29-.73-2.63-1.48-5.28-1.48s-3.99.75-5.28,1.48c-1.19.67-2.31,1.3-4.6,1.3-.53,0-1-.03-1.42-.1l-1.18,1.18c.71.19,1.56.31,2.6.31,2.65,0,3.99-.75,5.28-1.48,1.19-.67,2.31-1.3,4.6-1.3s3.41.63,4.6,1.3c1.29.73,2.63,1.48,5.28,1.48s3.99-.75,5.28-1.48c1.19-.67,2.31-1.3,4.6-1.3v-1.39c-2.65,0-3.99.75-5.28,1.48-1.19.67-2.31,1.3-4.6,1.3M94.77,39.05c1.29-.73,2.63-1.48,5.28-1.48v1.39c-2.29,0-3.41.63-4.6,1.3-1.29.73-2.63,1.48-5.28,1.48s-3.99-.75-5.28-1.48c-1.19-.67-2.31-1.3-4.6-1.3s-3.41.63-4.6,1.3c-1.29.73-2.63,1.48-5.28,1.48s-3.99-.75-5.28-1.48c-.39-.22-.77-.43-1.18-.62l1.04-1.04c.29.15.56.3.82.45,1.19.67,2.31,1.3,4.6,1.3s3.41-.63,4.6-1.3c1.29-.73,2.63-1.48,5.28-1.48s3.99.75,5.28,1.48c1.19.67,2.31,1.3,4.6,1.3s3.41-.63,4.6-1.3"/>
        </g>
      </g>
    </g>
  </g>
</svg>