<?xml version="1.0" encoding="UTF-8"?>
<svg id="Layer_2" data-name="Layer 2" xmlns="http://www.w3.org/2000/svg" xmlns:xlink="http://www.w3.org/1999/xlink" viewBox="0 0 101.97 101.97">
  <defs>
    <style>
      .cls-1 {
        fill: none;
      }

      .cls-2 {
        fill: #000;
      }

      .cls-3 {
        clip-path: url(#clippath);
      }
    </style>
    <clipPath id="clippath">
      <rect class="cls-1" width="101.97" height="101.97"/>
    </clipPath>
  </defs>
  <g id="svg2">
    <g id="g186">
      <g class="cls-3">
        <g id="g188">
          <path id="path194" class="cls-2" d="M63.85,58.53l-5.85-2.37-.99.99,3.63,4.6,3.22-3.22ZM71.46,71.37c-4.3,4.3-11.28,4.3-15.58,0l-.83-.83-4.06,4.06-1.6-1.6,9.63-9.63-5.04-6.39,3.48-3.48,8.13,3.3,3.43-3.43,2.44,2.43c4.3,4.3,4.3,11.28,0,15.58M69.39,33.58l9.06-8.36c.29-.25.47-.57.53-.88.06-.3,0-.59-.19-.79l-.19-.19-.19-.19c-.19-.19-.48-.25-.79-.19-.3.06-.62.24-.88.53l-8.36,9.06-35.81,35.81-9.06,8.36c-.28.25-.47.57-.53.88-.06.3,0,.59.19.79l.19.19.19.19c.19.19.48.25.79.19.31-.06.62-.24.88-.53l8.36-9.06,35.81-35.81ZM16.49,85.48v-21.2C7.38,64.28,0,71.66,0,80.77c0,7.09,4.47,13.13,10.75,15.46l5.74,5.74v-4.71l14.13-7.07-2.35-4.71h-11.78ZM85.48,64.28v21.2h-11.78l-2.36,4.71,14.13,7.07v4.71l5.74-5.74c6.28-2.33,10.75-8.37,10.75-15.46,0-9.11-7.38-16.49-16.49-16.49M85.48,16.49v21.2c9.11,0,16.49-7.38,16.49-16.49,0-7.09-4.47-13.13-10.75-15.46L85.48,0v4.71l-14.13,7.07,2.36,4.71h11.78ZM38.12,43.44l5.86,2.38.99-.99-3.63-4.6-3.22,3.22ZM30.51,30.59c4.3-4.3,11.28-4.3,15.58,0l.83.83,4.06-4.06,1.6,1.6-9.63,9.63,5.04,6.39-3.48,3.48-8.13-3.3-3.43,3.43-2.44-2.43c-4.3-4.3-4.3-11.28,0-15.58M0,21.2C0,14.11,4.47,8.07,10.75,5.74L16.49,0v4.71l14.13,7.07-2.35,4.71h-11.78v21.2C7.38,37.69,0,30.3,0,21.2"/>
        </g>
      </g>
    </g>
  </g>
</svg>