<?xml version="1.0" encoding="UTF-8"?>
<svg id="Layer_2" data-name="Layer 2" xmlns="http://www.w3.org/2000/svg" xmlns:xlink="http://www.w3.org/1999/xlink" viewBox="0 0 101.97 101.96">
  <defs>
    <style>
      .cls-1 {
        fill: none;
      }

      .cls-2 {
        fill: #000;
      }

      .cls-3 {
        clip-path: url(#clippath);
      }
    </style>
    <clipPath id="clippath">
      <rect class="cls-1" width="101.97" height="101.96"/>
    </clipPath>
  </defs>
  <g id="svg2">
    <g id="g206">
      <g class="cls-3">
        <g id="g208">
          <path id="path214" class="cls-2" d="M75.32,55.26l-1.7-1.7-20.06,20.06,1.7,1.7,20.06-20.06ZM52.56,72.62l20.06-20.06-1.7-1.7-20.06,20.06,1.7,1.7ZM51.11,31.05l-1.7-1.7-20.06,20.06,1.7,1.7,20.06-20.06ZM28.35,48.41l20.06-20.06-1.7-1.7-20.06,20.06,1.7,1.7ZM56.26,76.32l3.4,3.4-4.3,4.3v-3.4h-3.41l2.7-2.7-14.51-14.51-13.86,13.86-1.6-1.6,35.52-35.52-8.1-8.1-20.06,20.06,7.1,7.1-1.6,1.6-13.51-13.51-2.7,2.7v-3.4h-3.41l4.3-4.3,3.41,3.41,20.06-20.06-3.4-3.41,4.3-4.3v3.4h3.4l-2.7,2.7,14.51,14.51,13.86-13.86,1.6,1.6-35.52,35.52,8.1,8.1,20.06-20.06-7.1-7.1,1.6-1.6,13.51,13.51,2.7-2.7v3.41h3.41l-4.3,4.3-3.4-3.41-20.06,20.06ZM16.49,85.48v-21.2C7.38,64.28,0,71.66,0,80.77,0,87.85,4.47,93.9,10.75,96.23l5.74,5.74v-4.71l14.13-7.07-2.35-4.71h-11.78ZM85.48,64.28v21.2h-11.78l-2.35,4.71,14.13,7.07v4.71l5.74-5.74c6.28-2.33,10.75-8.37,10.75-15.46,0-9.11-7.38-16.49-16.49-16.49M85.48,16.49v21.2c9.11,0,16.49-7.38,16.49-16.49,0-7.09-4.47-13.13-10.75-15.46L85.48,0v4.71l-14.13,7.07,2.35,4.71h11.78ZM0,21.2C0,14.11,4.47,8.07,10.75,5.74L16.49,0v4.71l14.13,7.07-2.35,4.71h-11.78v21.2C7.38,37.69,0,30.3,0,21.2"/>
        </g>
      </g>
    </g>
  </g>
</svg>