<?xml version="1.0" encoding="UTF-8"?>
<svg id="Layer_2" data-name="Layer 2" xmlns="http://www.w3.org/2000/svg" xmlns:xlink="http://www.w3.org/1999/xlink" viewBox="0 0 88.33 101.97">
  <defs>
    <style>
      .cls-1 {
        fill: none;
      }

      .cls-2 {
        fill: #000;
      }

      .cls-3 {
        clip-path: url(#clippath);
      }
    </style>
    <clipPath id="clippath">
      <rect class="cls-1" width="88.33" height="101.97"/>
    </clipPath>
  </defs>
  <g id="svg2">
    <g id="g216">
      <g class="cls-3">
        <g id="g218">
          <path id="path224" class="cls-2" d="M50.95,10.2h-6.08v-1.47h1.32v-1.32c.78-.08,1.54-.32,2.23-.71.34-.19.46-.63.27-.97-.19-.34-.63-.46-.97-.27-.49.28-1.02.45-1.58.52-.15-.98-.65-1.85-1.37-2.46V0h-2.9v2.56h-5.37v2.53h5.37v1.56c0,.27.19.49.45.57h0c.65.19,1.14.79,1.14,1.51v1.47h-6.08c1.19,2.23,3.44,3.81,6.08,4.05.05,26.02.07,56.67.47,81.91.04,1.91.09,3.82.16,5.73,0,.04.04.07.08.07h0s0,0,0,0,0,0,0,0h0s.07-.04.08-.08c.07-1.91.11-3.82.16-5.73.4-25.24.42-55.89.47-81.91,2.64-.24,4.89-1.82,6.08-4.05M20.14,73.41l-4.17,4.17c-2.68-1.94-6.45-1.71-8.87.7l-.46.46,9.7,9.7.46-.46c2.39-2.39,2.64-6.11.76-8.79l4.18-4.18c1.82-1.82,8.14-8.04,20.4-20.48,0-1.01,0-2.01,0-3.02-12.42,12.26-20.23,20.14-21.99,21.9M85.48,84.34h0c0-4.4-3.56-7.96-7.96-7.96-1.79,0-3.44.59-4.77,1.59l-4.56-4.56c-1.76-1.76-9.57-9.64-21.99-21.9,0,1.01,0,2.02,0,3.02,12.26,12.44,18.58,18.66,20.4,20.48l4.56,4.56c-1.03,1.37-1.58,3.02-1.58,4.77,0,.8.12,1.57.34,2.31l8.75-8.75c1.32.23,2.53.85,3.49,1.81,1.24,1.24,1.92,2.88,1.92,4.63,0,1.46-.48,2.85-1.36,3.98l-6.24-6.24-1.2,1.2,9.08,9.09,1.2-1.2-1.84-1.84c1.14-1.41,1.76-3.16,1.76-5M2.58,90.97l1.6,1.6,7.15-7.15-1.6-1.6-7.15,7.15ZM83.54,37.89h-5.4v11.48h5.4v-11.48ZM76.72,37.89h-1.42v11.48h1.42v-11.48ZM73.04,37.9c-4.65.08-7.32,3.89-7.32,10.46,0,5.94,2.8,9.66,7.32,9.75v-20.21ZM88.33,42.92l-1.31.53-1.03-2.55c-.33-.82-.7-1.27-1.03-1.51v17.21c0,.23.11,5.78-2.97,8.93-1.36,1.39-3.11,2.1-5.22,2.1h-.71v-1.58h.29c1.73,0,3.17-.58,4.29-1.73,2.54-2.63,2.43-7.28,2.42-7.48v-2.23s-1.42,0-1.42,0v2.25c0,.06.1,4.28-2.03,6.47-.85.87-1.92,1.3-3.27,1.3h-.29v-1.57c.84-.03,1.57-.34,2.17-.94,1.68-1.69,1.68-5.12,1.68-5.27v-2.25h-1.42v2.25c0,.83-.22,3.21-1.27,4.27-.33.33-.71.5-1.17.52-.04-1.18-1-2.12-2.19-2.12h-.67c-5.4,0-8.89-4.38-8.89-11.17,0-7.44,3.32-11.88,8.89-11.88h11.76v1.33c1.01.34,1.8,1.2,2.35,2.56l1.03,2.55ZM46.21,50.39c9.63-9.8,22.35-22.85,38.68-39.82.08-.09.08-.23,0-.31s-.23-.09-.31,0c-15.02,14.38-28.02,27.05-38.36,37.22,0,.97,0,1.94,0,2.91M4.8,49.37h5.4v-11.48h-5.4v11.48ZM11.61,49.37h1.42v-11.48h-1.42v11.48ZM15.3,58.11c4.52-.09,7.32-3.8,7.32-9.75,0-6.58-2.67-10.38-7.32-10.46v20.21ZM2.35,40.9l-1.03,2.55L0,42.92l1.03-2.55c.55-1.36,1.34-2.22,2.35-2.56v-1.33h11.76c5.57,0,8.89,4.44,8.89,11.88,0,6.78-3.49,11.17-8.89,11.17h-.67c-1.18,0-2.15.95-2.19,2.12-.46-.02-.84-.19-1.17-.52-1.05-1.05-1.27-3.43-1.27-4.27v-2.25h-1.42v2.25c0,.15,0,3.58,1.68,5.27.6.6,1.33.92,2.17.94v1.57h-.29c-1.35,0-2.42-.43-3.27-1.3-2.13-2.19-2.03-6.41-2.03-6.47v-2.25h-1.42v2.23c0,.2-.12,4.85,2.43,7.48,1.11,1.15,2.56,1.73,4.29,1.73h.29v1.58h-.71c-2.11,0-3.87-.71-5.23-2.1-3.07-3.15-2.97-8.7-2.96-8.93v-17.21c-.34.25-.7.69-1.03,1.51M3.44,10.58c-.08-.09-.08-.23,0-.31.09-.09.23-.09.31,0,15.02,14.38,28.02,27.05,38.36,37.22,0,.97,0,1.94,0,2.91C32.5,40.59,19.78,27.54,3.44,10.58"/>
        </g>
      </g>
    </g>
  </g>
</svg>