<?xml version="1.0" encoding="UTF-8"?>
<svg id="Layer_2" data-name="Layer 2" xmlns="http://www.w3.org/2000/svg" xmlns:xlink="http://www.w3.org/1999/xlink" viewBox="0 0 101.97 101.97">
  <defs>
    <style>
      .cls-1 {
        fill: none;
      }

      .cls-2 {
        fill: #000;
      }

      .cls-3 {
        clip-path: url(#clippath);
      }
    </style>
    <clipPath id="clippath">
      <rect class="cls-1" width="101.97" height="101.97"/>
    </clipPath>
  </defs>
  <g id="svg2">
    <g id="g286">
      <g class="cls-3">
        <g id="g288">
          <path id="path294" class="cls-2" d="M18.46,14.85l-2.27-2.27h69.58l-2.27,2.27h-31.82v16.03c-.47-.02-.94-.02-1.42,0V14.85h-31.82ZM31.78,71.79l-20.79,20.79-1.6-1.6,11.65-11.65H0V22.65h21.05l-11.65-11.65,1.6-1.6,20.79,20.79-1.6,1.6-6.87-6.87H6.81c-.45,2.29-2.26,4.1-4.54,4.55v43.05c2.28.46,4.09,2.26,4.54,4.54h16.5l6.87-6.87,1.6,1.6ZM2.27,28.01c1.51-.4,2.69-1.59,3.09-3.09h-3.09v3.09ZM5.35,77.05c-.4-1.5-1.59-2.69-3.09-3.09v3.09h3.09ZM101.97,79.32h-21.05l11.65,11.65-1.6,1.6-20.79-20.79,1.6-1.6,6.87,6.87h16.5c.45-2.29,2.26-4.09,4.54-4.54V29.46c-2.29-.46-4.09-2.26-4.54-4.54h-16.5l-6.87,6.87-1.6-1.6,20.79-20.79,1.6,1.6-11.65,11.65h21.05v56.67ZM99.7,73.96c-1.5.4-2.69,1.59-3.09,3.09h3.09v-3.09ZM99.7,24.91h-3.09c.4,1.5,1.59,2.69,3.09,3.09v-3.09ZM62.59,34.57h6.1v-2.27h-10.25c1.48.59,2.87,1.36,4.16,2.27M67.45,50.07l-3.22,3.63v6.48h1.37c1.69-2.67,2.67-5.82,2.67-9.21,0-.08,0-.16,0-.23l-.81-.68ZM55.58,35.12l3.96,3.51,4.92,2.57v-1.01c-2.05-2.55-4.81-4.51-7.98-5.58l-.9.52ZM45.49,34.6c-3.17,1.07-5.93,3.03-7.98,5.58v1.01l4.92-2.57,3.96-3.51-.89-.52ZM47.86,35.7l-3.98,3.53,3.11,2.94h8l3.11-2.94-3.98-3.53h-6.25ZM37.74,53.71l-3.22-3.63-.81.68c0,.08,0,.15,0,.23,0,3.38.98,6.54,2.67,9.21h1.37v-6.48ZM38.62,52.57l5.23-2.46,2.04-7.02-3.19-3.02-5.33,2.78-1.99,6.07,3.24,3.65ZM44.8,64.58l5.48-2.58v-6.34l-5.9-4.23-5.22,2.45v6.65l4.98,3.57.66.47ZM56.27,65.72l-5.28-2.49-5.28,2.49,1.09,2.03c1.34.34,2.75.52,4.19.52s2.85-.18,4.19-.52l1.09-2.03ZM62.81,53.89l-5.22-2.45-5.9,4.23v6.34l5.48,2.58,1.94-1.39,3.7-2.66v-6.65ZM63.34,52.57l3.23-3.65-1.99-6.07-5.33-2.78-3.19,3.02,2.04,7.02,5.23,2.46ZM98.28,38.12v-1.42h-8.11v28.61h8.11v-1.42h-6.69v-25.77h6.69ZM3.68,63.85v1.42h8.11v-28.61H3.68v1.42h6.69v25.77H3.68ZM51.69,87.11v-16.03c-.47.02-.94.02-1.42,0v16.03h-31.82l-2.27,2.27h69.58l-2.27-2.27h-31.82ZM15.58,52.12h15.32c-.02-.37-.03-.75-.03-1.13s.01-.76.03-1.13h-15.32v2.27ZM74.59,61.55h-6.49c-.49.79-1.03,1.55-1.63,2.27h8.12v-2.27ZM68.69,67.4h-6.1c-1.28.91-2.68,1.67-4.16,2.27h10.25v-2.27ZM80.49,55.7h-9.95c-.19.77-.41,1.53-.69,2.27h10.64v-2.27ZM39.37,67.4h-6.09v2.27h10.25c-1.48-.59-2.87-1.36-4.16-2.27M27.38,40.42h6.49c.49-.79,1.03-1.55,1.63-2.27h-8.12v2.27ZM86.39,49.85h-15.32c.02.37.03.75.03,1.13s-.01.76-.03,1.13h15.32v-2.27ZM70.54,46.27h9.95v-2.27h-10.64c.27.73.5,1.49.69,2.27M21.48,46.27h9.95c.19-.77.41-1.53.69-2.27h-10.64v2.27ZM33.87,61.55h-6.49v2.27h8.12c-.59-.72-1.14-1.47-1.63-2.27M43.53,32.3h-10.25v2.27h6.09c1.28-.91,2.68-1.67,4.16-2.27M31.43,55.7h-9.95v2.27h10.64c-.27-.73-.5-1.49-.69-2.27M68.09,40.42h6.49v-2.27h-8.12c.59.72,1.14,1.47,1.63,2.27"/>
        </g>
      </g>
    </g>
  </g>
</svg>