<?xml version="1.0" encoding="UTF-8"?>
<svg id="Layer_2" data-name="Layer 2" xmlns="http://www.w3.org/2000/svg" xmlns:xlink="http://www.w3.org/1999/xlink" viewBox="0 0 101.96 101.97">
  <defs>
    <style>
      .cls-1 {
        fill: none;
      }

      .cls-2 {
        fill: #000;
      }

      .cls-3 {
        clip-path: url(#clippath);
      }
    </style>
    <clipPath id="clippath">
      <rect class="cls-1" width="101.96" height="101.97"/>
    </clipPath>
  </defs>
  <g id="svg2">
    <g id="g296">
      <g class="cls-3">
        <g id="g298">
          <path id="path304" class="cls-2" d="M19.9,88.52c.7-.83,2.44-2.47,2.68-2.74l40.86-40.75c1.39-1.39,2.87-2.7,4.43-3.91l.86-.67c1.55-1.2,3.02-2.5,4.4-3.88l18.27-18.26c.41-.41.41-1.07,0-1.48l-1.28-1.28c-.41-.41-1.07-.41-1.48,0l-18.28,18.27c-1.38,1.38-2.67,2.84-3.87,4.38l-.69.89c-1.2,1.55-2.5,3.01-3.88,4.4l-42.9,42.77h.01c-2.58,2.64-3.27,3.71-3.96,6.46-.56,2.24,0,4.61,1.45,6.39,1.13,1.39,2.72,2.33,4.49,2.63.73.13,1.53.22,2.31.21,1.03,0,2.03-.16,2.8-.61,2.64-1.54.83-4.87-1.54-7.43-2.38-2.56-5.85-4.01-4.68-5.41M6.53,24.38c0-1.8-1.46-3.26-3.26-3.26S0,22.58,0,24.38s1.46,3.26,3.26,3.26,3.26-1.46,3.26-3.26M42.23,24.38c0,1.41,1.15,2.56,2.56,2.56s2.56-1.15,2.56-2.56-1.15-2.55-2.56-2.55-2.56,1.15-2.56,2.55M95.44,77.59c0,1.8,1.46,3.26,3.26,3.26s3.26-1.47,3.26-3.26-1.46-3.26-3.26-3.26-3.26,1.46-3.26,3.26M59.74,77.59c0-1.41-1.15-2.56-2.55-2.56s-2.56,1.15-2.56,2.56,1.15,2.55,2.56,2.55,2.55-1.15,2.55-2.55M24.83,85.54c1.8.72,3.69,1.01,5.77.9,1.38-.08,2.81-.52,4.33-.99,1.88-.58,3.82-1.18,5.92-1.18,4.56,0,7.3,1.62,9.96,3.19,2.8,1.65,5.45,3.22,10.42,3.22,9.54,0,16.23-6.61,18.55-9.29l-12.69-12.69-6.64,6.64c.45.64.71,1.42.71,2.26,0,2.19-1.78,3.97-3.97,3.97s-3.97-1.78-3.97-3.97,1.78-3.97,3.97-3.97c.84,0,1.62.26,2.26.71l6.64-6.64-11.66-11.66,1.6-1.6,11.65,11.65,23.97-23.97s1.67.73,3.15,2.21c1.48,1.48,2.21,3.15,2.21,3.15l-.63.63c.23.29.5.6.79.89,1.48,1.48,3.15,2.2,3.15,2.2l-5.44,5.44s-1.67-.73-3.15-2.21c-1.48-1.48-2.21-3.15-2.21-3.15l.78-.78c-.26-.24-.57-.49-.95-.74-.89-.58-1.77-.79-2.54-.81l-18.14,18.14,23.88,23.88-1.6,1.6-9.58-9.58c-2.64,3.05-9.75,9.94-20.16,9.94-5.59,0-8.76-1.88-11.57-3.53-2.61-1.54-4.86-2.87-8.81-2.87-1.75,0-3.53.55-5.24,1.08-1.58.49-3.22,1-4.88,1.09-2.78.15-5.25-.31-7.62-1.43l1.73-1.72ZM77.13,16.42c-1.8-.72-3.69-1.01-5.77-.9-1.38.08-2.81.52-4.33.99-1.88.58-3.82,1.18-5.91,1.18-4.56,0-7.31-1.62-9.96-3.19-2.8-1.65-5.45-3.22-10.41-3.22-9.54,0-16.23,6.61-18.55,9.29l12.69,12.69,6.64-6.64c-.45-.64-.71-1.42-.71-2.26,0-2.19,1.78-3.97,3.97-3.97s3.97,1.78,3.97,3.97-1.78,3.97-3.97,3.97c-.84,0-1.62-.26-2.26-.71l-6.64,6.64,11.65,11.66-1.6,1.6-11.65-11.65-23.97,23.97s-1.67-.73-3.15-2.21c-1.48-1.48-2.21-3.15-2.21-3.15l.63-.63c-.24-.29-.5-.6-.79-.89-1.48-1.48-3.15-2.2-3.15-2.2l5.44-5.44s1.67.73,3.15,2.21c1.48,1.48,2.21,3.15,2.21,3.15l-.78.78c.26.24.57.49.95.74.89.58,1.77.79,2.54.81l18.14-18.14L9.4,11l1.6-1.6,9.58,9.58c2.64-3.05,9.75-9.94,20.16-9.94,5.59,0,8.76,1.88,11.57,3.53,2.61,1.54,4.86,2.87,8.81,2.87,1.75,0,3.53-.55,5.24-1.08,1.58-.49,3.22-1,4.88-1.09,2.78-.15,5.25.31,7.63,1.43l-1.73,1.72ZM31.61,68.13l-18.28,18.27c-.41.41-1.07.41-1.48,0l-1.28-1.28c-.41-.41-.41-1.07,0-1.48l18.27-18.26c1.39-1.39,2.86-2.68,4.4-3.88l.86-.67c1.56-1.21,3.03-2.51,4.43-3.91l40.85-40.75c.23-.26,1.98-1.9,2.68-2.74,1.18-1.4-2.3-2.85-4.67-5.41-2.38-2.56-4.18-5.88-1.54-7.43C76.61.16,77.61,0,78.64,0c.78,0,1.58.09,2.31.21,1.77.3,3.36,1.24,4.49,2.63,1.45,1.79,2.02,4.16,1.45,6.39-.69,2.75-1.38,3.82-3.96,6.46h.01s-42.9,42.77-42.9,42.77c-1.38,1.38-2.68,2.85-3.88,4.4l-.69.89c-1.2,1.54-2.49,3-3.87,4.38"/>
        </g>
      </g>
    </g>
  </g>
</svg>