<?xml version="1.0" encoding="UTF-8"?>
<svg id="Layer_2" data-name="Layer 2" xmlns="http://www.w3.org/2000/svg" xmlns:xlink="http://www.w3.org/1999/xlink" viewBox="0 0 95.4 100.05">
  <defs>
    <style>
      .cls-1 {
        fill: none;
      }

      .cls-2 {
        fill: #000;
      }

      .cls-3 {
        clip-path: url(#clippath);
      }
    </style>
    <clipPath id="clippath">
      <rect class="cls-1" width="95.4" height="100.05"/>
    </clipPath>
  </defs>
  <g id="svg2">
    <g id="g356">
      <g class="cls-3">
        <g id="g358">
          <path id="path364" class="cls-2" d="M54.21,53.16l4.8-4.8c7.29-7.29,19.1-7.29,26.38,0s7.28,19.09,0,26.38l-4.8,4.8-1.5-1.5,4.8-4.8c6.46-6.46,6.46-16.93,0-23.38-6.46-6.46-16.93-6.46-23.38,0l-4.8,4.8-1.5-1.5ZM41.19,46.9l-4.8,4.8c-7.28,7.29-19.09,7.29-26.38,0-7.29-7.28-7.29-19.09,0-26.38l4.8-4.8,1.5,1.5-4.8,4.8c-6.46,6.46-6.46,16.93,0,23.38,6.46,6.46,16.93,6.46,23.38,0l4.8-4.8,1.5,1.5ZM13.81,90.35l18.34-18.34-2.45-2.45c-3.76,3.76-17.56,17.56-17.56,17.56-7.35,7.12-.17,12.93,4.83,9.67,3.92-2.55.31-6.17-2.07-4.05-1.35,1.2-3.44-.26-1.09-2.4M71.51,31.62l-1.57-1.57-39.29,38.58,2.45,2.45c1.64-1.64,4.35-5.23,6.48-7.31.76-.74,5-5.01,10.16-10.2l35.39,35.38,1.5-1.5-35.39-35.38c9.14-9.21,20.28-20.43,20.28-20.43M47.7,82.46c-1.98,0-3.58,1.6-3.58,3.58s1.6,3.58,3.58,3.58,3.58-1.6,3.58-3.58-1.6-3.58-3.58-3.58M73.09,59.58c0,.59.48,1.07,1.07,1.07s1.07-.48,1.07-1.07-.48-1.07-1.07-1.07-1.07.48-1.07,1.07M66.83,76.4l-9.49-9.49,1.94-1.94-1.5-1.5-3.44,3.44,12.49,12.49,3.44-3.44-1.5-1.5-1.94,1.94ZM83.51,42.8c1.46.88,2.83,1.94,4.05,3.15l.93-.94c-1.3-1.28-2.75-2.41-4.3-3.34l-.69,1.13ZM88.8,75.83l1,.87c1.19-1.38,2.21-2.9,3.05-4.51l-1.18-.61c-.78,1.52-1.75,2.95-2.87,4.25M82.88,81.83l.94.94,3.75-3.75-.94-.94-3.75,3.75ZM92.89,68.74l1.25.43c.59-1.72.99-3.51,1.17-5.32l-1.32-.13c-.17,1.71-.54,3.39-1.1,5.01M72.76,39.66l.03-1.33c-1.82-.05-3.65.12-5.42.5l.27,1.3c1.67-.35,3.4-.51,5.11-.47M94.08,60.64l1.32-.05c-.07-1.82-.36-3.63-.86-5.37l-1.28.36c.47,1.65.74,3.35.81,5.07M93.43,52.14c-.74-1.66-1.67-3.24-2.78-4.68l-1.05.81c1.04,1.36,1.92,2.85,2.62,4.41l1.21-.54ZM76.05,38.65l-.22,1.31c1.69.28,3.35.77,4.93,1.44l.52-1.22c-1.67-.71-3.43-1.22-5.23-1.52M81.59,9.71l-18.34,18.34,2.45,2.45c3.76-3.76,17.56-17.56,17.56-17.56,7.35-7.12.17-12.93-4.83-9.67-3.92,2.56-.31,6.17,2.07,4.05,1.35-1.2,3.44.27,1.09,2.4M23.89,68.43l1.57,1.57,39.29-38.58-2.45-2.44c-1.64,1.64-4.35,5.23-6.48,7.31-.76.74-5,5.01-10.16,10.2L10.28,11.12l-1.5,1.5,35.39,35.38c-9.14,9.21-20.28,20.43-20.28,20.43M47.7,17.6c1.98,0,3.58-1.6,3.58-3.58s-1.6-3.58-3.58-3.58-3.58,1.6-3.58,3.58,1.6,3.58,3.58,3.58M22.31,40.47c0-.59-.48-1.07-1.07-1.07s-1.07.48-1.07,1.07.48,1.07,1.07,1.07,1.07-.48,1.07-1.07M11.89,57.26c-1.46-.88-2.83-1.94-4.05-3.15l-.93.94c1.3,1.28,2.75,2.41,4.3,3.34l.69-1.13ZM6.6,24.23l-1-.87c-1.19,1.38-2.22,2.9-3.05,4.51l1.18.61c.78-1.52,1.75-2.95,2.87-4.25M12.52,18.22l-.94-.94-3.75,3.75.94.94,3.75-3.75ZM2.51,31.32l-1.25-.43c-.59,1.72-.99,3.51-1.17,5.32l1.32.13c.17-1.71.54-3.4,1.1-5.01M22.64,60.39l-.03,1.32c1.82.05,3.65-.12,5.42-.5l-.27-1.3c-1.67.35-3.4.51-5.11.47M1.32,39.41L0,39.47c.07,1.82.36,3.63.86,5.37l1.28-.36c-.47-1.65-.74-3.35-.81-5.07M1.97,47.92c.74,1.66,1.67,3.24,2.78,4.68l1.05-.81c-1.04-1.36-1.92-2.85-2.62-4.41l-1.21.54ZM19.35,61.4l.22-1.31c-1.69-.28-3.35-.77-4.93-1.44l-.52,1.22c1.67.71,3.43,1.22,5.23,1.52M28.57,23.65l9.49,9.49-1.94,1.94,1.5,1.5,3.44-3.44-12.49-12.49-3.44,3.44,1.5,1.5,1.94-1.94Z"/>
        </g>
      </g>
    </g>
  </g>
</svg>