<?xml version="1.0" encoding="UTF-8"?>
<svg id="Layer_2" data-name="Layer 2" xmlns="http://www.w3.org/2000/svg" xmlns:xlink="http://www.w3.org/1999/xlink" viewBox="0 0 101.96 101.96">
  <defs>
    <style>
      .cls-1 {
        fill: none;
      }

      .cls-2 {
        fill: #000;
      }

      .cls-3 {
        clip-path: url(#clippath);
      }
    </style>
    <clipPath id="clippath">
      <rect class="cls-1" width="101.96" height="101.96"/>
    </clipPath>
  </defs>
  <g id="svg2">
    <g id="g306">
      <g class="cls-3">
        <g id="g308">
          <path id="path314" class="cls-2" d="M75.67,27.9l23.09,23.09-23.09,23.09-10.63-10.64,12.45-12.45-12.45-12.45,10.64-10.64ZM62.9,79.89l-1.4-.21,2.19-14.38,1.24,1.24-2.03,13.35ZM52.59,50.98l11.45-11.45,11.45,11.45-11.45,11.45-11.45-11.45ZM50.98,49.38l-6.23-6.23,9.13-9.12,1,1h6.32l-.62-4.09h-12.6L57.3,3.28c1.26,1.24,2.65,2.35,4.14,3.3l4.17,2.66,5.76,19.76-6.4,6.4-2.03-13.31-1.4.21,2.18,14.35-3.62,3.62-5.23-5.23-2.89,2.89,5.23,5.23-6.23,6.23h0ZM47.09,66.94l-5.23-5.23,2.89-2.89,5.23,5.23-2.89,2.89ZM37.93,62.43l-11.45-11.45,11.45-11.45,11.45,11.45-11.45,11.45ZM39.02,79.89l-2.03-13.31,1.24-1.24,2.18,14.35-1.4.21ZM26.29,74.07L3.2,50.98l23.09-23.09,10.63,10.64-12.45,12.45,12.45,12.45-10.64,10.64ZM36.39,9.23l4.17-2.66c1.49-.95,2.88-2.06,4.15-3.3l3.91,11.58,1.2-3.54-3.05-9.04h8.5l-9.67,28.67h-4.14l-.62,4.09h6.27l-5.23,5.23-3.58-3.58,2.19-14.38-1.4-.21-2.03,13.35-6.41-6.41,5.77-19.79ZM90.97,92.57l1.6-1.6-15.29-15.29,24.69-24.69-24.69-24.69,15.29-15.29-1.6-1.6-17.76,17.76-5.65-19.38-4.89-3.12c-1.86-1.18-3.53-2.62-4.98-4.28L57.34,0h-12.68l-.34.39c-1.45,1.65-3.13,3.09-4.98,4.28l-4.89,3.12-5.66,19.42L11,9.4l-1.6,1.6,15.29,15.29L0,50.98l24.69,24.69-15.29,15.29,1.6,1.6,17.76-17.76,5.65,19.38,4.89,3.12c1.67,1.07,3.2,2.34,4.55,3.8l10.15-30.07h-12.6l-.62-4.09h6.32l1,1,9.12-9.12,2.89,2.89-5.23,5.23h6.27l-.62,4.09h-4.14l-10.44,30.93h10.02l-3.82-11.31,1.19-3.54,4.72,13.99c1.35-1.45,2.87-2.73,4.55-3.8l4.89-3.12,5.66-19.42,17.8,17.8Z"/>
        </g>
      </g>
    </g>
  </g>
</svg>