<?xml version="1.0" encoding="UTF-8"?>
<svg id="Layer_2" data-name="Layer 2" xmlns="http://www.w3.org/2000/svg" xmlns:xlink="http://www.w3.org/1999/xlink" viewBox="0 0 101.96 101.96">
  <defs>
    <style>
      .cls-1 {
        fill: none;
      }

      .cls-2 {
        fill: #000;
      }

      .cls-3 {
        clip-path: url(#clippath);
      }
    </style>
    <clipPath id="clippath">
      <rect class="cls-1" width="101.96" height="101.96"/>
    </clipPath>
  </defs>
  <g id="svg2">
    <g id="g376">
      <g class="cls-3">
        <g id="g378">
          <path id="path384" class="cls-2" d="M74.52,29.01l-4.33,4.33c1.21.68,2.61,1.2,4.85,1.2,3.04,0,4.54-.96,6.12-1.97,1.68-1.07,3.42-2.19,6.87-2.19s5.19,1.11,6.87,2.19c1.58,1.01,3.07,1.97,6.12,1.97v1.39c-3.45,0-5.19-1.11-6.87-2.19-1.58-1.01-3.07-1.97-6.12-1.97s-4.53.95-6.12,1.97c-1.68,1.07-3.42,2.19-6.87,2.19-2.78,0-4.45-.72-5.87-1.57l-3.47,3.46c1.29.42,2.27,1.04,3.22,1.65,1.58,1.01,3.07,1.97,6.12,1.97s4.54-.95,6.12-1.97c1.68-1.07,3.42-2.19,6.87-2.19s5.19,1.11,6.87,2.19c1.58,1.01,3.07,1.97,6.12,1.97v1.39c-3.45,0-5.19-1.11-6.87-2.19-1.58-1.01-3.07-1.97-6.12-1.97s-4.53.96-6.12,1.97c-1.68,1.07-3.42,2.19-6.87,2.19s-5.19-1.11-6.87-2.19c-1.07-.68-2.1-1.34-3.6-1.69l-5.61,5.61c.87-.23,1.87-.37,3.09-.37,3.45,0,5.19,1.11,6.87,2.19,1.58,1.01,3.07,1.97,6.12,1.97s4.54-.95,6.12-1.97c1.68-1.07,3.42-2.19,6.87-2.19s5.19,1.11,6.87,2.19c1.58,1.01,3.07,1.97,6.12,1.97v1.39c-3.45,0-5.19-1.11-6.87-2.19-1.58-1.01-3.07-1.97-6.12-1.97s-4.53.96-6.12,1.97c-1.68,1.07-3.42,2.19-6.87,2.19s-5.19-1.11-6.87-2.19c-1.58-1.01-3.07-1.97-6.12-1.97s-4.48.92-6.03,1.91l-3.48,3.48,2.44,2.44h0c1.74-1.11,3.48-2.31,7.07-2.31s5.19,1.11,6.87,2.19c1.58,1.01,3.07,1.97,6.12,1.97s4.54-.95,6.12-1.97c1.68-1.07,3.42-2.19,6.87-2.19s5.19,1.11,6.87,2.19c1.58,1.01,3.07,1.97,6.12,1.97v1.39c-3.45,0-5.19-1.11-6.87-2.19-1.58-1.01-3.07-1.97-6.12-1.97s-4.53.95-6.12,1.97c-1.68,1.07-3.42,2.19-6.87,2.19s-5.19-1.11-6.87-2.19c-1.58-1.01-3.07-1.97-6.12-1.97s-4.5.93-6.06,1.93l3.78,3.78c.67-.12,1.42-.19,2.28-.19,3.45,0,5.19,1.11,6.87,2.19,1.58,1.01,3.07,1.97,6.12,1.97s4.54-.96,6.12-1.97c1.68-1.07,3.42-2.19,6.87-2.19s5.19,1.11,6.87,2.19c1.58,1.01,3.07,1.97,6.12,1.97v1.39c-3.45,0-5.19-1.11-6.87-2.19-1.58-1.01-3.07-1.97-6.12-1.97s-4.53.95-6.12,1.97c-1.68,1.07-3.42,2.19-6.87,2.19s-5.19-1.11-6.87-2.19c-1.58-1.01-3.07-1.97-6.12-1.97-.37,0-.71.02-1.04.04l7.24,7.24c.23.14.45.28.67.42,1.58,1.01,3.07,1.97,6.12,1.97s4.54-.96,6.12-1.97c1.68-1.07,3.42-2.19,6.87-2.19s5.19,1.11,6.87,2.19c1.58,1.01,3.07,1.97,6.12,1.97v1.39c-3.45,0-5.19-1.11-6.87-2.19-1.58-1.01-3.07-1.97-6.12-1.97s-4.53.95-6.12,1.97c-1.68,1.07-3.42,2.19-6.87,2.19-1.41,0-2.53-.19-3.49-.48l5.78,5.78c1.62-.34,2.7-1.03,3.83-1.75,1.68-1.07,3.42-2.19,6.87-2.19s5.19,1.11,6.87,2.19c1.58,1.01,3.07,1.97,6.12,1.97v1.39c-3.45,0-5.19-1.11-6.87-2.19-1.58-1.01-3.07-1.97-6.12-1.97s-4.53.95-6.12,1.97c-1,.64-2.03,1.29-3.43,1.72l13.31,13.31-1.57,1.57-39.24-39.24L11.75,91.8l-1.57-1.57,13.31-13.31c-1.4-.42-2.43-1.08-3.43-1.72-1.58-1.01-3.07-1.97-6.12-1.97s-4.54.95-6.12,1.97c-1.68,1.07-3.42,2.19-6.87,2.19v-1.39c3.04,0,4.54-.96,6.12-1.97,1.68-1.07,3.42-2.19,6.87-2.19s5.19,1.11,6.87,2.19c1.12.72,2.21,1.41,3.83,1.75l5.77-5.78c-.95.29-2.07.48-3.49.48-3.45,0-5.19-1.11-6.87-2.19-1.58-1.01-3.07-1.97-6.12-1.97s-4.54.95-6.12,1.97c-1.68,1.07-3.42,2.19-6.87,2.19v-1.39c3.04,0,4.54-.96,6.12-1.97,1.68-1.07,3.42-2.19,6.87-2.19s5.19,1.11,6.87,2.19c1.58,1.01,3.07,1.97,6.12,1.97s4.53-.96,6.12-1.97c.22-.14.44-.28.67-.42l7.24-7.24c-.33-.03-.67-.04-1.04-.04-3.04,0-4.53.95-6.12,1.97-1.68,1.07-3.42,2.19-6.87,2.19s-5.19-1.11-6.87-2.19c-1.58-1.01-3.07-1.97-6.12-1.97s-4.54.95-6.12,1.97c-1.68,1.07-3.42,2.19-6.87,2.19v-1.39c3.04,0,4.54-.96,6.12-1.97,1.68-1.07,3.42-2.19,6.87-2.19s5.19,1.11,6.87,2.19c1.58,1.01,3.07,1.97,6.12,1.97s4.53-.96,6.12-1.97c1.68-1.07,3.42-2.19,6.87-2.19.86,0,1.61.07,2.28.19l3.78-3.78c-1.56-1-3.05-1.93-6.06-1.93s-4.53.96-6.12,1.97c-1.68,1.07-3.42,2.19-6.87,2.19s-5.19-1.11-6.87-2.19c-1.58-1.01-3.07-1.97-6.12-1.97s-4.54.96-6.12,1.97c-1.68,1.07-3.42,2.19-6.87,2.19v-1.39c3.04,0,4.54-.95,6.12-1.97,1.68-1.07,3.42-2.19,6.87-2.19s5.19,1.11,6.87,2.19c1.58,1.01,3.07,1.97,6.12,1.97s4.53-.95,6.12-1.97c1.68-1.07,3.42-2.19,6.87-2.19s5.32,1.2,7.07,2.31h0l2.44-2.44-3.48-3.48c-1.55-.99-3.04-1.91-6.03-1.91s-4.53.96-6.12,1.97c-1.68,1.07-3.42,2.19-6.87,2.19s-5.19-1.11-6.87-2.19c-1.58-1.01-3.07-1.97-6.12-1.97s-4.54.96-6.12,1.97c-1.68,1.07-3.42,2.19-6.87,2.19v-1.39c3.04,0,4.54-.95,6.12-1.97,1.68-1.07,3.42-2.19,6.87-2.19s5.19,1.11,6.87,2.19c1.58,1.01,3.07,1.97,6.12,1.97s4.53-.95,6.12-1.97c1.68-1.07,3.42-2.19,6.87-2.19,1.22,0,2.23.14,3.1.37l-5.61-5.61c-1.5.35-2.53,1.01-3.6,1.69-1.68,1.07-3.42,2.19-6.87,2.19s-5.19-1.11-6.87-2.19c-1.58-1.01-3.07-1.97-6.12-1.97s-4.54.96-6.12,1.97c-1.68,1.07-3.42,2.19-6.87,2.19v-1.39c3.04,0,4.54-.95,6.12-1.97,1.68-1.07,3.42-2.19,6.87-2.19s5.19,1.11,6.87,2.19c1.58,1.01,3.07,1.97,6.12,1.97s4.53-.95,6.12-1.97c.95-.61,1.93-1.23,3.22-1.65l-3.46-3.46c-1.42.84-3.09,1.57-5.87,1.57-3.45,0-5.19-1.11-6.87-2.19-1.58-1.01-3.07-1.97-6.12-1.97s-4.54.95-6.12,1.97c-1.68,1.07-3.42,2.19-6.87,2.19v-1.39c3.04,0,4.54-.96,6.12-1.97,1.68-1.07,3.42-2.19,6.87-2.19s5.19,1.11,6.87,2.19c1.58,1.01,3.07,1.97,6.12,1.97,2.24,0,3.64-.52,4.85-1.2l-4.33-4.33c-.17,0-.34,0-.52,0-3.45,0-5.19-1.11-6.87-2.19-1.58-1.01-3.07-1.97-6.12-1.97s-4.54.95-6.12,1.97c-1.68,1.07-3.42,2.19-6.87,2.19v-1.39c3.04,0,4.54-.96,6.12-1.97,1.68-1.07,3.42-2.19,6.87-2.19s5.19,1.11,6.87,2.19c1.42.91,2.77,1.77,5.22,1.93l-15.85-15.85,1.57-1.57,39.24,39.24L90.22,10.18l1.57,1.57-15.85,15.85c2.46-.17,3.81-1.03,5.22-1.93,1.68-1.07,3.42-2.19,6.87-2.19s5.19,1.11,6.87,2.19c1.58,1.01,3.07,1.97,6.12,1.97v1.39c-3.45,0-5.19-1.11-6.87-2.19-1.58-1.01-3.07-1.97-6.12-1.97s-4.54.95-6.12,1.97c-1.68,1.07-3.42,2.19-6.87,2.19-.18,0-.35,0-.52,0M37.26,15.15c-.58-3.6.59-6.55,4.05-10.01,2.93-2.93,5.49-4.21,8.39-4.19.53,0,1.06.05,1.62.14,6.57,1.05,12.21,6.91,14.42,9.91,1.08,1.27.31,4.21-1.11,6.58-.54.91-1.21,1.77-1.91,2.47-.99.99-2.07,1.66-2.99,1.66-.31,0-.64-.1-.91-.26.02.01,0,0,0,0-.21-.12-.57-.26-1.01.18-.43.44-.3.8-.18,1.01,0,0,.01.02,0,0,.64,1.07-.07,2.58-1.4,3.9-.7.7-1.56,1.36-2.47,1.91-1.6.96-3.46,1.62-4.89,1.62-.69,0-1.28-.15-1.69-.51-3-2.21-8.85-7.85-9.9-14.42M51.59,24.49c-.05.03-.11.06-.16.09-2.58,1.54-3.69,3.41-3.42,3.87.1.17.51.24.84.24.75,0,1.73-.25,2.73-.69v-3.5ZM56.45,23.39c-.1-.17-.5-.24-.84-.24-.58,0-1.31.16-2.07.43v3.35c.63-.42,1.21-.89,1.7-1.38,1.09-1.08,1.36-1.92,1.21-2.17M61.43,14.25c-.23.31-.46.65-.68,1.01-1.54,2.58-1.65,4.75-1.19,5.02.03.02.07.04.16.04.31,0,.93-.26,1.71-.97v-5.1ZM63.37,16.95s.04-.05.05-.08c1.54-2.58,1.65-4.75,1.19-5.02-.03-.02-.07-.04-.16-.04-.27,0-.65.16-1.09.46v4.68ZM46.94,27c.66-1.28,2.15-2.63,3.77-3.61,1.6-.96,3.46-1.62,4.89-1.62.29,0,.57.03.82.09.08-.36.27-.7.58-1.01.31-.31.65-.5,1.01-.58-.35-1.48.38-3.78,1.53-5.71.98-1.63,2.33-3.11,3.61-3.77-3.53-.87-8.2.71-11.86,4.37-3.65,3.65-5.24,8.33-4.37,11.85M64.7,86.82c.58,3.6-.59,6.55-4.05,10.01-2.93,2.93-5.49,4.21-8.39,4.19-.53,0-1.06-.05-1.62-.14-6.57-1.05-12.21-6.91-14.42-9.91-1.08-1.27-.31-4.21,1.11-6.58.54-.91,1.21-1.77,1.91-2.47.99-.99,2.07-1.66,2.99-1.66.31,0,.64.1.91.26t0,0c.21.12.57.25,1.01-.18.43-.43.3-.8.18-1.01t0,0c-.64-1.07.07-2.57,1.4-3.9.7-.7,1.56-1.36,2.47-1.91,1.6-.96,3.46-1.62,4.89-1.62.69,0,1.28.15,1.69.51,3,2.21,8.85,7.85,9.9,14.42M50.37,77.47c.05-.03.11-.06.16-.09,2.58-1.54,3.69-3.41,3.42-3.87-.1-.17-.51-.24-.84-.24-.75,0-1.73.26-2.73.69v3.5ZM45.51,78.57c.1.17.5.24.84.24.58,0,1.31-.15,2.07-.43v-3.35c-.63.42-1.21.89-1.7,1.38-1.09,1.08-1.36,1.92-1.21,2.17M40.54,87.71c.23-.31.46-.65.68-1.01,1.54-2.58,1.65-4.75,1.19-5.02-.03-.02-.07-.04-.16-.04-.31,0-.93.26-1.71.97v5.1ZM38.59,85.01s-.04.05-.05.08c-1.54,2.58-1.65,4.75-1.19,5.02.03.02.07.04.16.04.27,0,.65-.16,1.09-.46v-4.68ZM55.02,74.96c-.66,1.28-2.15,2.64-3.77,3.61-1.6.96-3.46,1.62-4.89,1.62-.29,0-.57-.03-.82-.09-.08.36-.27.7-.58,1.01s-.65.5-1.01.58c.35,1.48-.38,3.78-1.53,5.71-.97,1.63-2.33,3.11-3.61,3.77,3.53.87,8.2-.71,11.86-4.37,3.65-3.65,5.24-8.33,4.37-11.86"/>
        </g>
      </g>
    </g>
  </g>
</svg>