<?xml version="1.0" encoding="UTF-8"?>
<svg id="Layer_2" data-name="Layer 2" xmlns="http://www.w3.org/2000/svg" xmlns:xlink="http://www.w3.org/1999/xlink" viewBox="0 0 101.96 101.96">
  <defs>
    <style>
      .cls-1 {
        fill: none;
      }

      .cls-2 {
        fill: #000;
      }

      .cls-3 {
        clip-path: url(#clippath);
      }
    </style>
    <clipPath id="clippath">
      <rect class="cls-1" width="101.96" height="101.96"/>
    </clipPath>
  </defs>
  <g id="svg2">
    <g id="g316">
      <g class="cls-3">
        <g id="g318">
          <path id="path324" class="cls-2" d="M54.78,94.96c-2.32-1.55-5.31-1.55-7.63,0-1.55,1.04-3.56,1.04-5.12,0-1.13-.76-2.45-1.15-3.81-1.15v2.27c.91,0,1.8.27,2.56.77,1.16.77,2.49,1.16,3.81,1.16s2.66-.39,3.81-1.16c1.55-1.04,3.56-1.04,5.12,0,2.32,1.55,5.31,1.54,7.63,0,.76-.51,1.64-.77,2.56-.77v-2.27c-1.36,0-2.68.4-3.81,1.15-1.55,1.04-3.56,1.04-5.12,0M54.78,89.86c-2.32-1.54-5.31-1.54-7.63,0-1.55,1.04-3.56,1.04-5.12,0-1.13-.75-2.45-1.15-3.81-1.15v2.27c.91,0,1.8.27,2.56.77,1.16.77,2.49,1.16,3.81,1.16s2.66-.39,3.81-1.16c1.55-1.04,3.56-1.04,5.12,0,2.32,1.55,5.31,1.55,7.63,0,.76-.51,1.64-.77,2.56-.77v-2.27c-1.36,0-2.68.4-3.81,1.15-1.55,1.04-3.56,1.04-5.12,0M81.07,27.3c2.81,2.04,6.78,1.8,9.31-.74l.8-.8-10.18-10.18-.8.8c-2.53,2.53-2.78,6.5-.74,9.31-2,1.97-5.07,5.03-9.98,10.01-7.98,8.09-20.81,21.24-41.79,43.02-.04.05-.06.1-.06.16,0,.06.02.11.07.16l.03.03s.1.07.16.07.11-.02.16-.06c21.78-20.98,34.93-33.81,43.02-41.79,4.98-4.91,8.04-7.98,10.01-9.98M85.49,64.28v21.2h-11.77l-2.35,4.71,14.12,7.07v4.71l5.73-5.74c6.27-2.33,10.74-8.37,10.74-15.46,0-9.11-7.37-16.49-16.47-16.49M54.78,84.76c-2.32-1.55-5.31-1.55-7.63,0-1.55,1.03-3.56,1.04-5.12,0-1.13-.76-2.45-1.16-3.81-1.16v2.27c.91,0,1.8.27,2.56.77,1.16.77,2.49,1.16,3.81,1.16s2.66-.39,3.81-1.16c1.55-1.04,3.56-1.04,5.12,0,2.32,1.54,5.31,1.54,7.63,0,.76-.51,1.64-.77,2.56-.77v-2.27c-1.36,0-2.68.4-3.81,1.16-1.55,1.03-3.56,1.04-5.12,0M66.14,62.14l1.06,1.06,3.45-3.45-1.22-1.22,13.08-13.08-1.6-1.6-13.08,13.08-.75-.75,16.35-16.35-1.6-1.6-28.52,28.52,1.27,2.73,2.04-2.04c.68-.68,1.77-.68,2.45,0s.68,1.78,0,2.45l-.85.85,3.2,6.25,5.96-5.96-2.81-1.95c-.99-.69-1.12-2.11-.27-2.96l1.68-1.68-1.06-1.06c-.62-.62-1.62-.62-2.24,0l-1.48,1.48-1-1,1.69-1.69c1.17-1.17,3.07-1.17,4.25,0M47.19,17.2c1.16.77,2.49,1.16,3.81,1.16s2.66-.39,3.81-1.16c1.55-1.04,3.56-1.04,5.12,0,1.13.75,2.45,1.15,3.81,1.15v-2.27c-.91,0-1.8-.27-2.56-.77-2.32-1.55-5.31-1.55-7.63,0-1.55,1.04-3.56,1.04-5.12,0-2.32-1.55-5.31-1.55-7.63,0-.76.51-1.65.77-2.56.77v2.27c1.36,0,2.68-.4,3.81-1.15,1.55-1.04,3.56-1.04,5.12,0M47.19,7.01c1.16.77,2.49,1.16,3.81,1.16s2.66-.39,3.81-1.16c1.55-1.04,3.56-1.04,5.12,0,1.13.76,2.45,1.16,3.81,1.16v-2.27c-.91,0-1.8-.27-2.56-.77-2.32-1.55-5.31-1.55-7.63,0-1.55,1.04-3.56,1.04-5.12,0-2.32-1.54-5.31-1.55-7.63,0-.76.51-1.65.77-2.56.77v2.27c1.36,0,2.68-.4,3.81-1.16,1.55-1.04,3.56-1.04,5.12,0M92.26,16.1l-1.6-1.6-4.37,4.37,1.6,1.6,4.37-4.37ZM47.19,12.1c1.16.77,2.49,1.16,3.81,1.16s2.66-.39,3.81-1.16c1.55-1.04,3.56-1.04,5.12,0,1.13.76,2.45,1.15,3.81,1.15v-2.27c-.91,0-1.8-.27-2.56-.77-2.32-1.55-5.31-1.55-7.63,0-1.55,1.04-3.56,1.04-5.12,0-2.32-1.55-5.31-1.55-7.63,0-.76.51-1.65.77-2.56.77v2.27c1.36,0,2.68-.4,3.81-1.15,1.55-1.04,3.56-1.04,5.12,0M16.47,16.49h11.77l2.35-4.71-14.12-7.07V0l-5.73,5.74C4.47,8.07,0,14.11,0,21.2,0,30.3,7.37,37.69,16.47,37.69v-21.2ZM47.34,30.93c-2.08,3.68-3.78,4.71-6.13,6.13-1.19.72-2.54,1.54-4.23,2.85-1.14.88-2.31,2.99-3.55,5.22-1.27,2.29-2.59,4.67-4.03,6.01-1.83,1.71-2.54,1.91-2.92,1.91-.29,0-.48-.13-.66-.26-.18-.12-.37-.25-.64-.25-.49,0-1.19.43-2.21,1.36,0,0,1.28,2.78,5.95-.6,0,0,4.77-2.88,7.7-7.81.77-1.3,1.78-2.45,3.01-3.33,4.27-3.05,6.53-5.88,6.53-5.88,3.58-3.69,2.22-4.65,1.18-5.36h0ZM33.86,33.37c.39,0,.71.32.71.71s-.32.71-.71.71h-3.94l-.4,1.25h2.89c.39,0,.71.32.71.71s-.32.71-.71.71h-3.34l-.4,1.26h2.28c.39,0,.71.32.71.71s-.32.71-.71.71h-2.73l-.4,1.25h1.67c.39,0,.71.32.71.71s-.32.71-.71.71h-2.12l-.02.07c-.62,1.95-1.13,2.92-2.18,4.68-.88,1.48-1.9,3.18-2.2,4.51.86-.65,1.55-.93,2.21-.93s1.11.28,1.38.46c.23-.11.78-.46,1.87-1.48,1.27-1.2,2.54-3.47,3.76-5.67,1.31-2.36,2.55-4.6,3.92-5.66,1.75-1.36,3.14-2.19,4.37-2.93,2.32-1.41,3.73-2.25,5.63-5.62l.18-.32c-1.35-1.21-3.9-3.22-7.03-4.28-2.45,1.84.05,6.6-8.25,5.46l-.67,2.28h3.51ZM32.48,66.26c7.98-8.09,20.81-21.24,41.79-43.02.04-.05.06-.1.06-.16,0-.06-.02-.11-.07-.16l-.03-.03s-.1-.07-.16-.07-.11.02-.16.06c-21.78,20.98-34.93,33.81-43.02,41.79-4.98,4.91-8.04,7.98-10.01,9.98-2.81-2.04-6.78-1.8-9.31.74l-.8.8,10.18,10.18.8-.8c2.53-2.53,2.78-6.5.74-9.31,2-1.97,5.07-5.03,9.98-10.01M14.07,81.49l1.6,1.6-4.37,4.37-1.6-1.6,4.37-4.37Z"/>
        </g>
      </g>
    </g>
  </g>
</svg>