<?xml version="1.0" encoding="UTF-8"?>
<svg id="Layer_2" data-name="Layer 2" xmlns="http://www.w3.org/2000/svg" xmlns:xlink="http://www.w3.org/1999/xlink" viewBox="0 0 101.96 98.45">
  <defs>
    <style>
      .cls-1 {
        fill: none;
      }

      .cls-2 {
        fill: #000;
      }

      .cls-3 {
        clip-path: url(#clippath);
      }
    </style>
    <clipPath id="clippath">
      <rect class="cls-1" x="0" y="0" width="101.96" height="98.45"/>
    </clipPath>
  </defs>
  <g id="svg2">
    <g id="g326">
      <g class="cls-3">
        <g id="g328">
          <path id="path334" class="cls-2" d="M71.62,87.98c.41-.61.86-1.25,1.36-1.92,1.41-1.89,2.91-3.66,4.39-5.18.97-.99,1.93-1.89,2.85-2.64,1.29-1.05,2.45-1.77,3.35-2.11.07-.02.21-.08.37-.12.49-.13,1.14-.2,1.72-.2.62,0,1.25.1,1.75.39,0-.57-.17-1.08-.53-1.52-.02-.02-.04-.05-.06-.07-1.14-1.16-3.44-1.77-7.98,1.93-1.43,1.17-2.96,2.67-4.46,4.34-1.98,2.21-3.87,4.71-5.36,7.09-2.05,3.27-3.99,7.33-2.59,9.41.38.56.9.89,1.52,1.05-.3-1.01-.09-2.53.32-3.85h0c.32-1.28,1.19-3.29,2.98-6.04.12-.19.25-.38.37-.57M83.88,59c.17.19.32.39.46.6-.02-1.21-.44-2.23-1.29-3.02-.55-.54-1.44-1.07-2.77-1.07-.51,0-1.08.08-1.73.26-2.5.72-5.46,2.92-8.12,6.03-2.79,3.26-4.79,6.98-5.63,10.46-1.11,4.63-.13,8.55,2.84,11.36.52.53,1.11.96,1.76,1.3.23-.32.46-.64.71-.98.2-.27.41-.54.62-.81-.58-.25-1.1-.6-1.55-1.06-.01-.01-.02-.02-.03-.03-2.41-2.27-3.16-5.38-2.22-9.27,1.63-6.77,8.02-13.68,12.23-14.9.45-.14,1.1-.26,1.54-.26.4,0,.79.06,1.17.17.76.21,1.45.62,2,1.22M66.97,62.78c.21-.2.34-.49.34-.78,0-.3-.11-.58-.32-.79l-3.38-3.37-.27.28-19.16-19.16-.97.97,19.16,19.16-.3.31,2.6,2.58c-1.36,1.35-4.23,4.27-6.86,7.54-5.15,6.39-6.62,10.61-4.5,12.91.03.03.06.06.09.09,2.15,1.86,5.9,1.46,10.88-1.14-.33-.65-.6-1.34-.8-2.05-4.02,2.13-7.19,2.72-8.6,1.58-.45-.55-1.21-2.77,4.62-10,3.44-4.28,7.44-8.09,7.48-8.12M82.87,59.92c-.23-.25-.49-.44-.78-.59.25,1.96-1.57,5.33-5.03,9.18-2.62,2.91-5.85,5.75-9.11,8.04.07.82.26,1.57.57,2.27,3.62-2.46,7.27-5.61,10.17-8.84,2.2-2.45,3.77-4.68,4.69-6.64h-.02c.51-1.26.33-2.53-.49-3.42M84.84,77.21c-.33.54-.89,1.25-1.81,2.07-1.57,1.41-3.53,2.61-5.48,3.39-.06.06-.12.13-.18.19-.81.88-1.6,1.82-2.35,2.78,3.48-.55,7.07-2.57,9.48-4.73.98-.89,1.72-1.76,2.21-2.58.14-.25.28-.69.1-.88-.31-.31-1.25-.33-1.97-.24M99.9,47.92c-.55.89-1.22,1.71-1.99,2.41,1.08,17.84-7.77,34.89-23.31,43.84-2.75,1.51-4.41,2.03-5.35,2.15-.13.77-.15,1.49.06,1.9.05.1.13.22.41.22.09,0,.2-.01.34-.04,1.81-.35,3.89-1.38,5.61-2.32,16.94-9.77,26.29-28.69,24.23-48.16M41.29,60.02c.16.05.33.08.51.08.93,0,1.68-.75,1.68-1.68s-.75-1.68-1.68-1.68-1.68.75-1.68,1.68c0,.17.03.34.08.51l.12.4-7.95,7.95v1.16l8.53-8.53.4.13ZM31.12,68.51l-3.11,3.11v1.16l3.11-3.11v-1.16ZM26.76,72.87l-3.11,3.11v1.16l3.11-3.11v-1.16ZM22.41,77.22l-2.71,2.71c-1.33,1.33-3.06,2.16-4.73,2.96-.33.16-.66.32-.98.48-3.45,1.72-5.01,3.07-6.96,6.01l-1.06,1.61,3.26,3.26,1.61-1.06c2.95-1.95,4.3-3.51,6.01-6.96.16-.32.32-.65.48-.98.8-1.67,1.63-3.4,2.96-4.73l2.13-2.13v-1.16ZM41.3,61.42l-20.06,20.06c-1.16,1.17-1.94,2.79-2.7,4.36-.16.34-.32.67-.49,1-1.82,3.66-3.33,5.41-6.48,7.49l-2.54,1.68-4.83-4.83,1.68-2.54c2.08-3.15,3.83-4.66,7.49-6.48.33-.16.66-.32,1-.49,1.57-.75,3.19-1.53,4.36-2.7l20.06-20.06c-.03-.16-.04-.33-.04-.49,0-1.68,1.37-3.05,3.05-3.05s3.05,1.37,3.05,3.05-1.37,3.05-3.05,3.05c-.17,0-.33-.01-.5-.04M15.82,66.95c1.41,2.79,3.16,5.42,5.19,7.81l.97-.97c-1.92-2.27-3.58-4.76-4.92-7.41-.4.22-.81.41-1.24.58M67.26,85.08c-.1-.08-.19-.16-.29-.25-.1-.09-.19-.18-.29-.28-.17-.16-.33-.33-.49-.5-4.77,2.08-9.97,3.17-15.22,3.17-8.68,0-17.16-3-23.89-8.45-.23-.18-.45-.37-.67-.55l-.97.97c.26.22.51.43.78.65,6.97,5.64,15.77,8.75,24.75,8.75,5.62,0,11.2-1.21,16.28-3.52h0M30.35,10.47c-.41.61-.86,1.25-1.36,1.92-1.41,1.89-2.91,3.66-4.39,5.18-.97.99-1.93,1.89-2.85,2.64-1.29,1.05-2.45,1.77-3.35,2.11-.07.02-.21.08-.37.12-.49.13-1.14.2-1.72.2-.62,0-1.25-.1-1.75-.39,0,.57.17,1.08.53,1.52.02.02.04.05.06.07,1.14,1.16,3.44,1.77,7.98-1.93,1.43-1.17,2.96-2.67,4.46-4.34,1.98-2.21,3.87-4.71,5.36-7.09,2.05-3.27,3.99-7.33,2.59-9.41-.38-.56-.9-.89-1.52-1.05.29,1.01.09,2.53-.32,3.85h0c-.32,1.29-1.19,3.29-2.98,6.04-.12.19-.25.38-.37.56M31.53,36.66c2.79-3.26,4.79-6.98,5.63-10.46,1.11-4.63.13-8.56-2.84-11.36-.52-.53-1.11-.97-1.76-1.31-.23.32-.46.64-.71.98-.2.27-.41.54-.62.81.58.25,1.1.6,1.55,1.06.01.01.02.02.03.03,2.41,2.27,3.16,5.38,2.23,9.27-1.63,6.77-8.02,13.68-12.23,14.9-.45.14-1.1.26-1.54.26-.4,0-.79-.06-1.17-.17h0c-.76-.21-1.45-.62-2-1.22-.17-.19-.32-.39-.46-.6.02,1.21.44,2.23,1.29,3.03.55.54,1.44,1.07,2.77,1.07.51,0,1.08-.08,1.73-.27,2.5-.72,5.46-2.92,8.12-6.03M38.37,40.6l.27-.28,19.16,19.16.97-.97-19.16-19.16.3-.31-2.6-2.58c1.36-1.35,4.23-4.28,6.85-7.54,5.15-6.39,6.62-10.61,4.5-12.91-.03-.03-.06-.06-.09-.09-2.15-1.86-5.9-1.46-10.88,1.14.33.65.6,1.34.8,2.05,4.02-2.13,7.19-2.72,8.6-1.58.45.55,1.21,2.77-4.62,10-3.44,4.27-7.44,8.09-7.48,8.12-.21.2-.34.49-.34.78,0,.29.11.58.32.79l3.38,3.37ZM19.09,38.53c.23.25.49.44.78.59-.25-1.96,1.57-5.33,5.03-9.18,2.62-2.91,5.85-5.75,9.11-8.04-.07-.82-.26-1.57-.57-2.27-3.62,2.46-7.27,5.61-10.17,8.84-2.2,2.45-3.77,4.68-4.69,6.64h.02c-.51,1.26-.33,2.53.49,3.42M17.13,21.23c.33-.54.89-1.25,1.81-2.07,1.57-1.41,3.53-2.61,5.48-3.39.06-.06.12-.13.18-.19.81-.88,1.6-1.82,2.35-2.78-3.48.55-7.07,2.57-9.48,4.73-.98.89-1.72,1.76-2.21,2.58-.14.25-.28.69-.1.87.31.31,1.25.33,1.97.24M27.37,4.27c2.75-1.51,4.41-2.03,5.35-2.14.13-.77.15-1.49-.06-1.9-.05-.1-.13-.22-.41-.22-.09,0-.2.01-.34.04-1.81.35-3.89,1.38-5.61,2.32C9.35,12.13,0,31.05,2.07,50.52c.55-.89,1.22-1.71,1.99-2.41C2.98,30.28,11.83,13.22,27.37,4.27M60.68,38.43c-.16-.05-.33-.08-.5-.08-.93,0-1.68.75-1.68,1.68s.75,1.68,1.68,1.68,1.68-.75,1.68-1.68c0-.17-.03-.34-.08-.51l-.12-.39,7.95-7.95v-1.16l-8.53,8.53-.4-.12ZM70.85,29.94l3.11-3.11v-1.16l-3.11,3.11v1.16ZM75.21,25.58l3.11-3.11v-1.16l-3.11,3.11v1.16ZM79.56,21.23l2.71-2.71c1.33-1.33,3.06-2.16,4.73-2.96.33-.16.66-.32.98-.48,3.45-1.72,5.01-3.06,6.96-6.01l1.06-1.61-3.26-3.25-1.61,1.06c-2.95,1.95-4.3,3.51-6.01,6.96-.16.32-.32.65-.48.98-.8,1.67-1.63,3.4-2.96,4.73l-2.13,2.13v1.16ZM60.67,37.03l20.06-20.06c1.16-1.17,1.94-2.79,2.7-4.36.16-.34.32-.67.49-1,1.82-3.66,3.33-5.41,6.48-7.49l2.54-1.68,4.83,4.84-1.68,2.54c-2.08,3.15-3.83,4.66-7.49,6.48-.33.16-.66.32-1,.49-1.57.75-3.19,1.53-4.36,2.7l-20.06,20.06c.03.16.04.33.04.49,0,1.68-1.37,3.05-3.05,3.05s-3.05-1.37-3.05-3.05,1.37-3.05,3.05-3.05c.17,0,.33.01.49.04M86.15,31.5c-1.41-2.79-3.15-5.41-5.19-7.81l-.97.97c1.92,2.27,3.58,4.77,4.92,7.41.4-.22.81-.41,1.24-.58M34.7,13.36c.1.08.19.16.29.25.1.09.19.18.29.27.17.16.33.33.49.5,4.77-2.08,9.97-3.17,15.22-3.17,8.68,0,17.16,3,23.89,8.45.23.18.45.37.67.55l.97-.97c-.26-.22-.51-.43-.78-.65-6.97-5.64-15.77-8.75-24.75-8.75-5.62,0-11.2,1.21-16.28,3.52h0M90.29,51.9c5.48,0,9.91-4.44,9.91-9.91s-4.44-9.91-9.91-9.91-9.91,4.44-9.91,9.91,4.44,9.91,9.91,9.91M21.59,56.46c0,5.47-4.44,9.91-9.91,9.91S1.76,61.94,1.76,56.46s4.44-9.91,9.91-9.91,9.91,4.44,9.91,9.91"/>
        </g>
      </g>
    </g>
  </g>
</svg>