<?xml version="1.0" encoding="UTF-8"?>
<svg id="Layer_2" data-name="Layer 2" xmlns="http://www.w3.org/2000/svg" xmlns:xlink="http://www.w3.org/1999/xlink" viewBox="0 0 101.96 101.96">
  <defs>
    <style>
      .cls-1 {
        fill: none;
      }

      .cls-2 {
        fill: #000;
      }

      .cls-3 {
        clip-path: url(#clippath);
      }
    </style>
    <clipPath id="clippath">
      <rect class="cls-1" width="101.96" height="101.96"/>
    </clipPath>
  </defs>
  <g id="svg2">
    <g id="g336">
      <g class="cls-3">
        <g id="g338">
          <path id="path344" class="cls-2" d="M61.74,65.44c.69.67,2.22,1.88,3.88,2.92,1.66,1.04,3.45,1.92,4.65,1.91.04-1.18-.85-2.95-1.92-4.61-1.07-1.65-2.32-3.18-2.99-3.87l-11.84-11.77-3.5,3.5,11.71,11.91ZM40.16,36.59c-.69-.67-2.21-1.92-3.87-2.99-1.65-1.07-3.43-1.96-4.61-1.92,0,1.2.87,2.99,1.91,4.65,1.04,1.66,2.25,3.19,2.92,3.88l11.91,11.71,3.5-3.5-11.77-11.84ZM101.96,37.99l-1.25.86c-2.26,1.55-4.74,2.71-7.37,3.44l-1.25.35-1.16-.66c-1.34-.76-2.78-1.28-4.29-1.56l-.49-.09-26.92,12.55,3.71,3.71c7.46,7.46,14.52,15.47,21,23.8l7.69,9.87c.3.39.27.93-.08,1.28-.19.19-.44.29-.69.29-.21,0-.42-.07-.59-.2l-10-7.74c-8.26-6.43-16.2-13.45-23.61-20.85l-3.79-3.79-12.54,26.89.09.49c.28,1.51.81,2.96,1.56,4.29l.66,1.16-.35,1.25c-.73,2.64-1.89,5.12-3.44,7.37l-.86,1.25-.68-.08c-1.83-.21-3.57-1.02-4.91-2.29l-.48-.45.28-1.16c.99-4.08,2.71-7.9,5.11-11.35l.85-1.22,13-27.88-12.11-12.11c-.13-.13-.26-.27-.39-.4l-13.73,29.44.09.49c.28,1.51.81,2.96,1.56,4.29l.66,1.16-.35,1.25c-.73,2.64-1.89,5.12-3.44,7.37l-.86,1.25-.68-.08c-1.83-.21-3.57-1.02-4.91-2.29l-.48-.45.28-1.16c.99-4.08,2.71-7.9,5.11-11.35l.85-1.22,14.2-30.45c-6.68-6.84-13.03-14.11-18.89-21.65l-7.69-9.91c-.3-.39-.27-.94.08-1.28.35-.35.89-.38,1.28-.08l10,7.77c7.5,5.84,14.73,12.16,21.54,18.82l30.48-14.21,1.22-.85c3.45-2.4,7.27-4.11,11.35-5.11l1.16-.28.45.48c1.27,1.34,2.08,3.08,2.29,4.91l.08.68-1.25.86c-2.26,1.55-4.74,2.71-7.37,3.44l-1.25.35-1.16-.66c-1.34-.76-2.78-1.28-4.29-1.56l-.49-.09-29.47,13.74c.11.11.21.21.32.31l12.19,12.19,27.91-13.01,1.22-.85c3.45-2.39,7.27-4.11,11.35-5.11l1.16-.28.45.48c1.27,1.34,2.08,3.08,2.29,4.91l.08.68ZM12.77,43.69l15.31,15.31.64-1.37-14.94-14.94-1,1ZM24.75,66.14L1,42.39,0,43.39l24.11,24.11.64-1.37ZM42.16,85.55l16.42,16.42,1-1-16.78-16.78-.64,1.37ZM32.68,49.13l-6.13-6.13-1,1,6.5,6.5.64-1.37ZM46.12,77.04l12.15,12.15,1-1-12.51-12.51-.64,1.37ZM31.92,62.83l10.37,10.37.64-1.37-10.37-10.37-.64,1.37ZM27.95,71.34l10.37,10.37.64-1.37-10.37-10.37-.64,1.37ZM50.73,67.17l-.64,1.37,7.88,7.88,1-1-8.24-8.24ZM46.89,63.34l-10.37-10.37-.64,1.37,10.37,10.37.64-1.37ZM67.5,24.11L43.39,0l-1,1,23.75,23.75,1.37-.64ZM84.18,42.79l16.78,16.78,1-1-16.42-16.42-1.37.64ZM81.71,38.32l-10.37-10.37-1.37.64,10.37,10.37,1.37-.64ZM89.19,58.27l-12.15-12.15-1.37.64,12.51,12.51,1-1ZM67.17,50.73l8.24,8.24,1-1-7.88-7.88-1.37.64ZM73.21,42.29l-10.37-10.37-1.37.64,10.37,10.37,1.37-.64ZM59,28.08l-15.31-15.31-1,1,14.94,14.94,1.37-.64ZM49.13,32.68l1.37-.64-6.5-6.5-1,1,6.13,6.13ZM54.33,35.88l10.37,10.37-1.37.64-10.37-10.37,1.37-.64Z"/>
        </g>
      </g>
    </g>
  </g>
</svg>