<?xml version="1.0" encoding="UTF-8"?>
<svg id="Layer_2" data-name="Layer 2" xmlns="http://www.w3.org/2000/svg" xmlns:xlink="http://www.w3.org/1999/xlink" viewBox="0 0 101.96 101.96">
  <defs>
    <style>
      .cls-1 {
        fill: none;
      }

      .cls-2 {
        fill: #000;
      }

      .cls-3 {
        clip-path: url(#clippath);
      }
    </style>
    <clipPath id="clippath">
      <rect class="cls-1" x="0" y="0" width="101.96" height="101.96"/>
    </clipPath>
  </defs>
  <g id="svg2">
    <g id="g346">
      <g class="cls-3">
        <g id="g348">
          <path id="path354" class="cls-2" d="M86.19,75.51l-.97-.97-4.85,4.86L22.58,21.6l4.86-4.85-.97-.97-4.85,4.86-9.82-9.82-.97.97,9.82,9.81-4.85,4.85.97.97,4.85-4.85,57.78,57.78-4.85,4.85.97.97,4.85-4.85,9.81,9.81.49-.49.49-.49-9.81-9.81,4.85-4.86ZM43.39,84.08l2.36,2.36.97-.97-2.36-2.36-.97.97ZM48.11,88.79l2.36,2.36.97-.97-2.36-2.36-.97.97ZM11.79,50.52l-.97.97,2.36,2.36.97-.97-2.36-2.36ZM45.59,79.68l12.07-12.07-3.51-3.51-12.07,12.07.97.97-2.03,2.03-18.25-18.25,2.03-2.03.97.97,12.07-12.07-3.51-3.51-12.07,12.07.97.97L1.38,79.22l1.56,1.56h0l18.28-18.28,18.25,18.25-18.28,18.28,1.56,1.56h0l21.87-21.87.97.97ZM92.54,53.8l2.36,2.36.97-.97-2.36-2.36-.97.97ZM98.22,57.54l-.97.97,2.36,2.36.97-.97-2.36-2.36ZM19.94,88.37c.13-.69.18-1.34.15-1.95-.75,2.31-2.55,5.1-5.12,7.66-2.57,2.57-5.36,4.37-7.66,5.12.61.03,1.27-.02,1.95-.15,2.37-.46,4.79-1.83,6.82-3.86s3.4-4.45,3.86-6.82M7.53,97.65c2.07-.83,4.37-2.45,6.46-4.54,2.09-2.09,3.71-4.39,4.54-6.46.64-1.6.74-2.95.24-3.45-.5-.5-1.85-.41-3.45.24-2.07.83-4.37,2.45-6.46,4.54-2.09,2.09-3.71,4.39-4.54,6.46-.64,1.6-.74,2.95-.24,3.45s1.85.41,3.45-.24M7.88,86.99c2.57-2.57,5.36-4.37,7.66-5.12-.61-.03-1.27.02-1.95.15-2.37.46-4.79,1.83-6.82,3.86-2.03,2.03-3.4,4.45-3.86,6.82-.13.69-.18,1.34-.15,1.95.75-2.3,2.55-5.09,5.12-7.66M17.05,96.16c-4.59,4.59-10.84,5.8-13.95,2.7C0,95.75,1.21,89.51,5.8,84.91s10.84-5.8,13.95-2.7,1.9,9.35-2.7,13.95M87.82,49.08l2.36,2.36.97-.97-2.36-2.36-.97.97ZM57.54,98.22l2.36,2.36.97-.97-2.36-2.36-.97.97ZM52.83,93.51l2.36,2.36.97-.97-2.36-2.36-.97.97ZM16.5,55.24l-.97.97,2.36,2.36.97-.97-2.36-2.36ZM58.57,17.88l-2.36-2.36-.97.97,2.36,2.36.97-.97ZM85.46,46.72l.97-.97-2.36-2.36-.97.97,2.36,2.36ZM4.71,43.45l-2.36-2.36-.97.97,2.36,2.36.97-.97ZM82.03,13.59c-.13.69-.18,1.34-.15,1.95.75-2.31,2.55-5.1,5.12-7.66s5.36-4.37,7.66-5.12c-.61-.03-1.27.02-1.95.15-2.37.46-4.79,1.83-6.82,3.86-2.03,2.03-3.4,4.45-3.86,6.82M94.43,4.32c-2.07.83-4.37,2.45-6.46,4.54-2.09,2.09-3.71,4.39-4.54,6.46-.64,1.6-.74,2.95-.24,3.45s1.85.41,3.45-.24c2.07-.83,4.37-2.45,6.46-4.54s3.71-4.39,4.54-6.46c.64-1.6.74-2.95.24-3.45s-1.85-.41-3.45.24M94.08,14.97c-2.57,2.57-5.36,4.37-7.66,5.12.61.03,1.27-.02,1.95-.15,2.37-.46,4.79-1.83,6.82-3.86,2.03-2.03,3.4-4.45,3.86-6.82.13-.69.18-1.34.15-1.95-.75,2.31-2.55,5.1-5.12,7.66M84.91,5.8C89.51,1.21,95.75,0,98.86,3.11c3.11,3.11,1.9,9.35-2.7,13.95-4.6,4.59-10.84,5.8-13.95,2.7-3.11-3.11-1.9-9.35,2.7-13.95M56.37,22.28l-12.07,12.07,3.51,3.51,12.07-12.07-.97-.97,2.03-2.03,18.25,18.25-2.03,2.03-.97-.97-12.07,12.07,3.51,3.51,12.07-12.07-.97-.97,21.87-21.87-1.56-1.56-18.28,18.28-18.25-18.25L80.78,2.94l-1.56-1.56-21.87,21.87-.97-.97ZM53.86,13.17l-2.36-2.36-.97.97,2.36,2.36.97-.97ZM9.43,48.16l-2.36-2.36-.97.97,2.36,2.36.97-.97ZM44.42,3.74l-2.36-2.36-.97.97,2.36,2.36.97-.97ZM48.17,9.43l-2.36-2.36.97-.97,2.36,2.36-.97.97Z"/>
        </g>
      </g>
    </g>
  </g>
</svg>