<?xml version="1.0" encoding="UTF-8"?>
<svg id="Layer_2" data-name="Layer 2" xmlns="http://www.w3.org/2000/svg" xmlns:xlink="http://www.w3.org/1999/xlink" viewBox="0 0 101.96 100.91">
  <defs>
    <style>
      .cls-1 {
        fill: none;
      }

      .cls-2 {
        fill: #000;
      }

      .cls-3 {
        clip-path: url(#clippath);
      }
    </style>
    <clipPath id="clippath">
      <rect class="cls-1" width="101.96" height="100.91"/>
    </clipPath>
  </defs>
  <g id="svg2">
    <g id="g386">
      <g class="cls-3">
        <g id="g388">
          <path id="path394" class="cls-2" d="M63.1,49.85l6.91,6.91c2.6-3.01,10.23-12.29,17.46-25.34-11.05,5.62-21.15,15.22-24.37,18.44M71,57.75l28.95,28.95c.14-3.3.21-9.42-.57-16.89-1.03-9.89-3.78-24.15-11.03-37.1-7.24,12.94-14.81,22.11-17.35,25.04M101.18,89.48l-.14,1.48-42.13-42.13c-1.49,1.31-2.98,2.55-4.45,3.7l-.77.6-1.76-1.71.76-.59c13.01-10.13,24.27-24.99,34.22-38.09.72-.95,1.43-1.88,2.13-2.81.26.04.52.13.76.29l.93.63-.64.93c-10.5,15.33-20.22,27.05-29.51,35.56l1.53,1.53c3.35-3.35,13.94-13.41,25.43-19.05l.58-.28.33.55c8.22,13.67,11.24,29.09,12.33,39.62,1.18,11.4.41,19.7.4,19.79M35.75,87.99c.91-1.25,10.02-13.41,10.02-13.41.59-.97.28-2.24-.7-2.83-.43-.26-.98-.12-1.24.31l-3.04,5.03-5-5c4.11-4.52,11.94-13.63,14.09-19.62h0c-12.45,9.93-23.38,24.33-33.04,37.07,0,0,0,0,0,0,4.09-2.62,10.78-8.67,17.43-15.8l5.33,5.33-3.55,5.86c-.42.69-1.31.91-2,.49l-1.57,2.59c1.11.67,2.39,1.18,3.27-.03M21.93,100.91h1.96c3.25-3.39,6.28-7.15,9.19-11.05-.48-.17-.91-.41-1.28-.63-3.11,4.16-6.36,8.15-9.87,11.68M38.86,51.06l-6.91-6.91c-2.6,3.01-10.23,12.29-17.46,25.34,11.05-5.62,21.15-15.22,24.37-18.44M30.96,43.16L2.01,14.21c-.14,3.3-.21,9.42.57,16.89,1.03,9.89,3.78,24.15,11.03,37.1,7.24-12.94,14.81-22.11,17.35-25.04M15.06,88.18c-.72.95-1.43,1.88-2.13,2.81-.26-.04-.52-.13-.76-.29l-.93-.63.64-.93c10.5-15.33,20.22-27.05,29.51-35.56l-1.53-1.53c-3.35,3.35-13.94,13.4-25.43,19.05l-.58.28-.33-.55C5.29,57.17,2.27,41.75,1.18,31.22,0,19.82.77,11.51.78,11.43l.14-1.48,42.13,42.13c1.49-1.31,2.98-2.55,4.46-3.7l.77-.6,1.76,1.71-.76.6c-13.01,10.13-24.27,24.99-34.22,38.09M74.08,69.2l-.99-.99c-7,6.81-12.07,14.35-17,21.68-2.46,3.66-4.96,7.37-7.72,11.03h1.75c2.53-3.41,4.85-6.86,7.13-10.25,4.89-7.27,9.92-14.75,16.83-21.47M72.96,100.91h1.67c3.76-5.83,7.52-11.44,13.63-17.55l-.99-.99c-6.51,6.53-10.5,12.62-14.31,18.54M67,62.11l-.99-.99c-7.16,6.87-12.76,15.06-18.2,23.01-3.87,5.66-7.83,11.44-12.37,16.79h1.83c4.26-5.13,8.02-10.62,11.7-16,5.4-7.9,10.97-16.03,18.03-22.81M80.18,75.29c-6.85,6.76-11.4,13.66-15.82,20.36-1.15,1.74-2.31,3.5-3.51,5.27h1.69c1.02-1.51,2.01-3.01,2.99-4.49,4.57-6.94,8.93-13.54,15.63-20.14l-.99-.99ZM80.04,0h-1.96c-3.25,3.39-6.28,7.15-9.19,11.05.48.17.91.41,1.28.63C73.28,7.52,76.53,3.53,80.04,0M56.16,30.36c-.22-.13-.42-.29-.6-.47-4.18,5.77-8.58,11.34-13.51,16l.99.99c5.03-4.76,9.49-10.42,13.72-16.27-.21-.06-.42-.14-.61-.25M66.21,12.93c-.91,1.25-10.02,13.41-10.02,13.41-.59.97-.28,2.24.7,2.83.43.26.98.12,1.24-.31l3.04-5.03,5,5c-4.11,4.52-11.94,13.63-14.09,19.62h0c12.45-9.93,23.38-24.33,33.04-37.07t0,0c-4.09,2.62-10.78,8.67-17.43,15.8l-5.33-5.33,3.55-5.87c.42-.69,1.31-.91,2-.49l1.57-2.59c-1.11-.67-2.39-1.18-3.27.03M45.2,70.3c.21.06.42.14.61.25.22.14.42.29.6.47,4.18-5.77,8.57-11.34,13.51-16l-.99-.99c-5.03,4.76-9.49,10.42-13.72,16.27M27.88,31.72l.99.99c7-6.81,12.07-14.35,17-21.67C48.33,7.38,50.83,3.66,53.59,0h-1.75c-2.53,3.41-4.85,6.86-7.13,10.25-4.89,7.27-9.92,14.75-16.83,21.47M34.96,38.8l.99.99c7.16-6.87,12.76-15.06,18.2-23.01C58.02,11.13,61.98,5.34,66.52,0h-1.83c-4.26,5.13-8.02,10.62-11.7,15.99-5.4,7.9-10.97,16.03-18.03,22.81M21.78,25.62c6.85-6.76,11.4-13.66,15.81-20.36C38.75,3.52,39.9,1.77,41.11,0h-1.69c-1.02,1.51-2.01,3.01-2.99,4.49-4.58,6.94-8.93,13.54-15.63,20.14l.99.99ZM14.7,18.54l-.99-.99C19.82,11.44,23.58,5.83,27.34,0h1.67c-3.81,5.92-7.8,12.01-14.31,18.54"/>
        </g>
      </g>
    </g>
  </g>
</svg>