<?xml version="1.0" encoding="UTF-8"?>
<svg id="Layer_2" data-name="Layer 2" xmlns="http://www.w3.org/2000/svg" xmlns:xlink="http://www.w3.org/1999/xlink" viewBox="0 0 101.96 101.96">
  <defs>
    <style>
      .cls-1 {
        fill: none;
      }

      .cls-2 {
        fill: #000;
      }

      .cls-3 {
        clip-path: url(#clippath);
      }
    </style>
    <clipPath id="clippath">
      <rect class="cls-1" width="101.96" height="101.96"/>
    </clipPath>
  </defs>
  <g id="svg2">
    <g id="g416">
      <g class="cls-3">
        <g id="g418">
          <path id="path424" class="cls-2" d="M56.37,50.98c0-2.97-2.41-5.39-5.39-5.39s-5.39,2.41-5.39,5.39,2.41,5.39,5.39,5.39,5.39-2.41,5.39-5.39M68.52,68.51h-35.07v-35.07h35.07v35.07ZM31.26,69.11h0l-21.86,21.86,1.6,1.6,21.86-21.86-1.6-1.6ZM31.26,32.86h0s1.6-1.6,1.6-1.6L11,9.39l-1.6,1.6,21.86,21.86h0ZM52.11,95.22v-11.04h-2.27v11.04c-10.55-.26-20.47-4.2-28.31-11.2l-1,1c7.82,7,18.06,11.34,29.31,11.61v5.32h2.27v-5.32c11.25-.27,21.49-4.62,29.31-11.61l-1-1c-7.83,7-17.76,10.94-28.31,11.2M96.64,49.85c-.27-11.25-4.62-21.49-11.61-29.31l-1,1c7,7.83,10.93,17.76,11.2,28.31h-11.04v2.27h11.04c-.26,10.55-4.2,20.47-11.2,28.31l1,1c6.99-7.82,11.34-18.06,11.61-29.31h5.32v-2.27h-5.32ZM27.69,31.29l-1.01-1.01c-10.16,11.9-10.16,29.49,0,41.39l1.01-1.01c-9.61-11.34-9.61-28.04,0-39.38M70.67,74.28c-11.34,9.61-28.04,9.61-39.38,0l-1.01,1.01c11.9,10.16,29.49,10.16,41.39,0l-1.01-1.01ZM31.29,27.68c11.34-9.61,28.04-9.61,39.38,0l1.01-1.01c-11.9-10.16-29.49-10.16-41.39,0l1.01,1.01ZM74.28,70.67l1.01,1.01c10.16-11.9,10.16-29.49,0-41.39l-1.01,1.01c9.61,11.34,9.61,28.04,0,39.38M69.11,70.71l21.86,21.86,1.6-1.6-21.86-21.86-1.6,1.6ZM17.94,80.42c-7-7.83-10.93-17.76-11.2-28.31h11.04v-2.27H6.74c.26-10.55,4.2-20.47,11.2-28.31l-1-1c-7,7.82-11.34,18.06-11.61,29.31H0v2.27h5.32c.27,11.25,4.62,21.49,11.61,29.31l1-1ZM49.85,6.74v11.04h2.27V6.74c10.55.26,20.47,4.2,28.31,11.2l1-1c-7.82-6.99-18.06-11.34-29.31-11.61V0h-2.27v5.32c-11.25.27-21.49,4.62-29.31,11.61l1,1c7.83-7,17.76-10.93,28.31-11.2M69.11,31.25l21.86-21.86h0l1.6,1.6-21.86,21.86h0s0,0,0,0l-1.6-1.6Z"/>
        </g>
      </g>
    </g>
  </g>
</svg>