<?xml version="1.0" encoding="UTF-8"?>
<svg id="Layer_2" data-name="Layer 2" xmlns="http://www.w3.org/2000/svg" xmlns:xlink="http://www.w3.org/1999/xlink" viewBox="0 0 101.96 101.96">
  <defs>
    <style>
      .cls-1 {
        fill: none;
      }

      .cls-2 {
        fill: #000;
      }

      .cls-3 {
        clip-path: url(#clippath);
      }
    </style>
    <clipPath id="clippath">
      <rect class="cls-1" x="0" y="0" width="101.96" height="101.96"/>
    </clipPath>
  </defs>
  <g id="svg2">
    <g id="g396">
      <g class="cls-3">
        <g id="g398">
          <path id="path404" class="cls-2" d="M75.35,73.75l-15.85-15.85,21.92-21.92c1.56-1.56,3.74-2.42,6.14-2.42,2.83,0,5.75,1.19,8.02,3.27l.84.85c2.08,2.27,3.27,5.2,3.27,8.03,0,2.4-.86,4.57-2.42,6.13l-21.92,21.92ZM20.54,65.99c-1.56,1.56-3.74,2.42-6.14,2.42-2.83,0-5.75-1.19-8.02-3.27l-.84-.85c-2.08-2.27-3.27-5.2-3.27-8.03,0-2.4.86-4.57,2.42-6.13l21.92-21.92,15.85,15.85-21.92,21.92ZM101.96,45.69c0-3.31-1.32-6.8-3.89-9.6l-.91-.91c-2.8-2.58-6.28-3.89-9.59-3.89-2.9,0-5.67,1.01-7.74,3.08l-21.92,21.92-5.31-5.31L92.57,11l-1.6-1.6-39.98,39.98L11,9.39l-1.6,1.6,15.61,15.61L3.08,48.53C1.02,50.6,0,53.36,0,56.26c0,3.31,1.31,6.8,3.89,9.6l.91.91c2.8,2.58,6.28,3.89,9.59,3.89,2.9,0,5.68-1.01,7.74-3.08l21.92-21.92,5.31,5.31L9.4,90.96l1.6,1.6,39.98-39.98,39.98,39.98,1.6-1.6-15.61-15.61,21.92-21.92c2.07-2.07,3.08-4.83,3.08-7.73M81.03,48.69c0,.47-.38.85-.85.85s-.85-.38-.85-.85.38-.85.85-.85.85.38.85.85M85.4,53.07c0,.47-.38.85-.85.85s-.85-.38-.85-.85.38-.85.85-.85.85.38.85.85M76.51,53.21c0,.47-.38.85-.85.85s-.85-.38-.85-.85.38-.85.85-.85.85.38.85.85M80.89,57.58c0,.47-.38.85-.85.85s-.85-.38-.85-.85.38-.85.85-.85.85.38.85.85M22.64,53.27c0,.47-.38.85-.85.85s-.85-.38-.85-.85.38-.85.85-.85.85.38.85.85M18.26,48.89c0,.47-.38.85-.85.85s-.85-.38-.85-.85.38-.85.85-.85.85.38.85.85M22.77,44.37c0,.47-.38.85-.85.85s-.85-.38-.85-.85.38-.85.85-.85.85.38.85.85M26.3,47.9c.47,0,.85.38.85.85s-.38.85-.85.85-.85-.38-.85-.85.38-.85.85-.85M50.98,21.36c1.4,0,2.53,1.14,2.53,2.53s-1.14,2.53-2.53,2.53-2.53-1.14-2.53-2.53,1.14-2.53,2.53-2.53M50.98,27.85c2.18,0,3.95-1.77,3.95-3.95s-1.77-3.95-3.95-3.95-3.95,1.77-3.95,3.95,1.77,3.95,3.95,3.95M50.98,23c.49,0,.89.4.89.89s-.4.89-.89.89-.89-.4-.89-.89.4-.89.89-.89M51.89,25.47l.91-1.58-.91-1.57h-1.82l-.91,1.57.91,1.58h1.82ZM50.98,15.25c4.77,0,8.65,3.88,8.65,8.65s-3.88,8.65-8.65,8.65-8.65-3.88-8.65-8.65,3.88-8.65,8.65-8.65M50.98,33.96c5.55,0,10.07-4.51,10.07-10.07s-4.51-10.07-10.07-10.07-10.07,4.51-10.07,10.07,4.51,10.07,10.07,10.07M34,9.86l16.28-7.08v2.57l-16.28,7.05v-2.53ZM62.46,23.9c0,6.33-5.15,11.48-11.48,11.48s-11.48-5.15-11.48-11.48,5.15-11.48,11.48-11.48,11.48,5.15,11.48,11.48M51.69,2.78l16.28,7.06v2.52l-16.28-7.01v-2.57ZM32.58,10.48v2.53l-11.14,4.83,29.54,29.54,29.58-29.58-11.18-4.82v-2.52l12.91,5.6,1.72-1.72L50.98,0,17.97,14.37l1.72,1.72,12.88-5.61ZM62.46,78.06c0,6.33-5.15,11.48-11.48,11.48s-11.48-5.15-11.48-11.48,5.15-11.48,11.48-11.48,11.48,5.15,11.48,11.48M16.6,88.96c2.16-1.37,4.46-2.01,7.22-2.01s5.22.68,7.44,2.16c2,1.33,3.61,3.1,5.3,4.98,1.72,1.9,3.49,3.86,5.73,5.34,2.57,1.71,5.41,2.53,8.69,2.53s6.12-.83,8.69-2.53c2.24-1.49,4.01-3.45,5.73-5.34,1.7-1.87,3.3-3.65,5.3-4.97,2.22-1.47,4.58-2.16,7.44-2.16s5.06.64,7.22,2.02l-34.38-34.38-34.38,34.38ZM50.98,77.17c.49,0,.89.4.89.89s-.4.89-.89.89-.89-.4-.89-.89.4-.89.89-.89M51.89,79.63l.91-1.57-.91-1.57h-1.82l-.91,1.57.91,1.57h1.82ZM50.98,75.53c1.4,0,2.53,1.14,2.53,2.53s-1.14,2.53-2.53,2.53-2.53-1.14-2.53-2.53,1.14-2.53,2.53-2.53M47.03,78.06c0,2.18,1.77,3.95,3.95,3.95s3.95-1.77,3.95-3.95-1.77-3.95-3.95-3.95-3.95,1.77-3.95,3.95M59.63,78.06c0,4.77-3.88,8.65-8.65,8.65s-8.65-3.88-8.65-8.65,3.88-8.65,8.65-8.65,8.65,3.88,8.65,8.65M40.92,78.06c0,5.55,4.51,10.07,10.07,10.07s10.07-4.51,10.07-10.07-4.51-10.07-10.07-10.07-10.07,4.51-10.07,10.07"/>
        </g>
      </g>
    </g>
  </g>
</svg>