<?xml version="1.0" encoding="UTF-8"?>
<svg id="Layer_2" data-name="Layer 2" xmlns="http://www.w3.org/2000/svg" xmlns:xlink="http://www.w3.org/1999/xlink" viewBox="0 0 101.96 101.96">
  <defs>
    <style>
      .cls-1 {
        fill: none;
      }

      .cls-2 {
        fill: #000;
      }

      .cls-3 {
        clip-path: url(#clippath);
      }
    </style>
    <clipPath id="clippath">
      <rect class="cls-1" width="101.96" height="101.96"/>
    </clipPath>
  </defs>
  <g id="svg2">
    <g id="g406">
      <g class="cls-3">
        <g id="g408">
          <path id="path414" class="cls-2" d="M71.92,92.28c1.09,0,1.98-.89,1.98-1.98s-.89-1.98-1.98-1.98-1.98.89-1.98,1.98.89,1.98,1.98,1.98M29.89,78.56c-1.09,0-1.98.89-1.98,1.98s.89,1.98,1.98,1.98,1.98-.89,1.98-1.98-.89-1.98-1.98-1.98M95.54,35.46c-1.09,0-1.98.89-1.98,1.98s.89,1.98,1.98,1.98,1.98-.89,1.98-1.98-.89-1.98-1.98-1.98M97.64,63.79c-.61-.57-1.18-.79-1.73-.79h0v1.42c.09,0,.33,0,.76.41.73.69.74,1.1.74,1.23.02.98-1.39,2.55-2.92,4.1-.57.58-.87.89-1.2,1.23-.33.34-.69.71-1.37,1.4-2.13,2.17-3.04,2.35-3.86,2.35-.18,0-.38-.01-.63-.04-1.25-.13-2.35-1.32-3.56-3.87-.54-1.14-.53-2.17.04-3.06.67-1.05,2.04-1.79,3.34-1.79.33,0,.62.05.89.14.59.21,1.19.31,1.78.31,1.72,0,3.08-.86,4.17-1.56.67-.42,1.37-.86,1.81-.86v-1.42c-1.84,0-3.55,2.42-5.99,2.42-.41,0-.85-.07-1.31-.23-.43-.15-.89-.22-1.36-.22-3.01,0-6.55,2.89-4.66,6.87,1.21,2.56,2.59,4.46,4.69,4.67.27.03.52.04.78.04,1.39,0,2.66-.52,4.87-2.77,1.36-1.38,1.43-1.48,2.57-2.63,3.19-3.24,4.46-5.17,2.14-7.36M50.98,60.24c-1.09,0-1.98.89-1.98,1.98s.89,1.98,1.98,1.98,1.98-.89,1.98-1.98-.89-1.98-1.98-1.98M61.37,69.08l-18.04,5.1,6.51,25.22,11.53-18.21v-12.12ZM62.41,82.22l-11.35,17.93,38.73-8.76-3.02-3.02-24.36-6.15ZM62.79,80.85l22.02,5.55-18.67-18.67-3.35.95v12.17ZM44.83,91.33c0-1.09-.89-1.98-1.98-1.98s-1.98.89-1.98,1.98.89,1.98,1.98,1.98,1.98-.89,1.98-1.98M31.92,89.32l9.62-15.55-5.87-5.87-23.25,23.25h18.37l1.13-1.83ZM50.98,41.72c1.09,0,1.98-.89,1.98-1.98s-.89-1.98-1.98-1.98-1.98.89-1.98,1.98.89,1.98,1.98,1.98M48.98,84.53c0-1.09.9-1.98,2-1.98s2,.89,2,1.98-.9,1.98-2,1.98-2-.89-2-1.98M52.98,17.43c0,1.09-.9,1.98-2,1.98s-2-.89-2-1.98.9-1.98,2-1.98,2,.89,2,1.98M40.59,32.88l18.04-5.1-6.51-25.22-11.53,18.21v12.12ZM39.56,19.74L50.91,1.82,12.18,10.58l3.02,3.02,24.36,6.15ZM39.17,21.11l-22.02-5.56,18.67,18.67,3.35-.95v-12.17ZM57.14,10.63c0,1.09.89,1.98,1.98,1.98s1.98-.89,1.98-1.98-.89-1.98-1.98-1.98-1.98.89-1.98,1.98M60.43,28.19l5.87,5.87,23.25-23.25h-18.37l-10.75,17.38ZM52.58,50.98l39.98,39.98-1.6,1.6h0l-41.52,9.39-18.2-9.39H11l-1.6-1.6,39.98-39.98L9.4,11l1.6-1.6L52.52,0l18.2,9.39h20.25l1.6,1.6-39.98,39.98ZM100.55,37.72c0-.8-.42-1.6-1.25-2.38-1.19-1.12-2.16-2.07-2.93-2.83-2.14-2.1-2.91-2.83-3.61-2.83-.16,0-.36.03-.6.09-.62.15-1.26.44-1.64,2.1-.39,1.68-.4,4.34-.31,7.81.06,2.11,1.1,3.14,3.18,3.14,1.56,0,3.44-.65,4.89-1.69,1.45-1.03,2.27-2.27,2.27-3.41M101.96,37.72c0,3.47-4.78,6.51-8.58,6.51-2.46,0-4.51-1.27-4.6-4.52-.19-7.38.11-10.61,3.03-11.32.34-.08.65-.13.94-.13,1.75,0,2.83,1.64,7.51,6.04,1.19,1.12,1.69,2.29,1.69,3.41M87.51,68.11c-1.09,0-1.98.89-1.98,1.98s.89,1.98,1.98,1.98,1.98-.89,1.98-1.98-.89-1.98-1.98-1.98M75.83,54.11c0-1.09-.89-1.98-1.98-1.98s-1.98.89-1.98,1.98.89,1.98,1.98,1.98,1.98-.89,1.98-1.98M80.81,45.29c0,.06,0,.12,0,.19-.04,4.13,2.67,7.1,5.21,8.14.35.14.29.67-.09.72-.81.1-3.7,0-4.67.19-2.87.57-4.85,2.61-5.45,4.85-.69,2.54-4,2.51-4.37-1.19-.26-2.65-2.77-4.3-4.16-4.55-1.35-.24-2.2.12-2.96.12-1.23,0-2.21-1.1-2.09-2.4.11-1.12,1.06-1.95,2.15-1.96,1.57-.01,3.14.26,5.26.39,3.94.25,8.18-1.6,10.33-4.78.26-.39.85-.2.85.28M69.88,75.24c-1.09,0-1.98.89-1.98,1.98s.89,1.98,1.98,1.98,1.98-.89,1.98-1.98-.89-1.98-1.98-1.98M9.81,72.2c.62-.15,1.26-.44,1.64-2.1.39-1.68.4-4.34.31-7.81-.06-2.11-1.1-3.14-3.18-3.14-1.56,0-3.44.65-4.89,1.69-1.44,1.03-2.27,2.27-2.27,3.41,0,.8.42,1.6,1.25,2.38,1.19,1.12,2.16,2.07,2.93,2.83,2.14,2.1,2.91,2.83,3.61,2.83.16,0,.36-.03.6-.09M10.15,73.57c-.34.08-.65.13-.94.13-1.75,0-2.83-1.64-7.51-6.04C.5,66.53,0,65.36,0,64.24c0-3.47,4.78-6.51,8.58-6.51,2.46,0,4.51,1.27,4.6,4.52.19,7.38-.11,10.61-3.03,11.32M32.08,26.72c1.09,0,1.98-.89,1.98-1.98s-.89-1.98-1.98-1.98-1.98.89-1.98,1.98.89,1.98,1.98,1.98M4.55,35.91c0,.13,0,.54.74,1.23.43.41.67.41.76.41.45,0,1.14-.44,1.81-.86,1.09-.69,2.46-1.56,4.17-1.56.59,0,1.19.11,1.78.31.27.09.56.14.89.14,1.3,0,2.68-.73,3.34-1.79.57-.9.58-1.93.04-3.06-1.21-2.55-2.31-3.75-3.56-3.87-.25-.03-.45-.04-.63-.04-.82,0-1.73.18-3.86,2.35-.68.69-1.04,1.06-1.37,1.4-.33.34-.63.65-1.2,1.23-1.53,1.55-2.94,3.13-2.92,4.1M6.46,30.81c1.13-1.15,1.21-1.25,2.57-2.63,2.22-2.26,3.49-2.77,4.87-2.77.25,0,.51.02.78.04,2.11.21,3.48,2.12,4.69,4.67,1.89,3.98-1.65,6.87-4.66,6.87-.47,0-.93-.07-1.36-.22-.46-.16-.9-.23-1.31-.23-2.44,0-4.14,2.42-5.99,2.42-.56,0-1.13-.22-1.73-.8-2.31-2.19-1.05-4.11,2.14-7.36M6.42,62.53c-1.09,0-1.98.89-1.98,1.98s.89,1.98,1.98,1.98,1.98-.89,1.98-1.98-.89-1.98-1.98-1.98M26.14,47.85c0,1.09.89,1.98,1.98,1.98s1.98-.89,1.98-1.98-.89-1.98-1.98-1.98-1.98.89-1.98,1.98M21.15,56.67c0-.06,0-.12,0-.19.05-4.13-2.67-7.1-5.21-8.14-.35-.14-.29-.67.09-.72.81-.11,3.7,0,4.67-.19,2.87-.57,4.85-2.61,5.45-4.85.69-2.54,4-2.51,4.37,1.19.26,2.65,2.77,4.3,4.16,4.55,1.35.24,2.2-.12,2.97-.12,1.23,0,2.21,1.1,2.09,2.4-.11,1.12-1.06,1.95-2.15,1.96-1.57.01-3.14-.26-5.26-.39-3.94-.25-8.18,1.6-10.33,4.78-.26.39-.85.2-.85-.28M72.07,23.39c1.09,0,1.98-.89,1.98-1.98s-.89-1.98-1.98-1.98-1.98.89-1.98,1.98.89,1.98,1.98,1.98M30.04,9.68c-1.09,0-1.98.89-1.98,1.98s.89,1.98,1.98,1.98,1.98-.89,1.98-1.98-.89-1.98-1.98-1.98M12.48,31.87c0-1.09.89-1.98,1.98-1.98s1.98.89,1.98,1.98-.89,1.98-1.98,1.98-1.98-.89-1.98-1.98"/>
        </g>
      </g>
    </g>
  </g>
</svg>