<?xml version="1.0" encoding="UTF-8"?>
<svg id="Layer_2" data-name="Layer 2" xmlns="http://www.w3.org/2000/svg" xmlns:xlink="http://www.w3.org/1999/xlink" viewBox="0 0 101.96 97.35">
  <defs>
    <style>
      .cls-1 {
        fill: none;
      }

      .cls-2 {
        fill: #000;
      }

      .cls-3 {
        clip-path: url(#clippath);
      }
    </style>
    <clipPath id="clippath">
      <rect class="cls-1" width="101.96" height="97.35"/>
    </clipPath>
  </defs>
  <g id="svg2">
    <g id="g466">
      <g class="cls-3">
        <g id="g468">
          <path id="path474" class="cls-2" d="M84.54,38.43c-12.17,3.96-13.81,7.92-13.52,8.81.29.89,3.94,3.13,16.11-.82,12.17-3.95,14.83-9.23,14.83-9.23,0,0-5.25-2.71-17.42,1.25M63.29,71.03c-.75.55-1.76,4.71,5.76,15.07,7.52,10.36,13.36,11.25,13.36,11.25,0,0,.95-5.83-6.57-16.18s-11.8-10.69-12.55-10.14M81.79,57.91c6.3,8.67,5.54,20.35-1.18,28.14-.36-.68-.76-1.38-1.2-2.11,5.56-7,6.05-17.12.55-24.7-2.56-3.52-6.04-5.98-9.87-7.29,2.87,1.46,5.42,3.64,7.43,6.41,5.17,7.12,4.81,15.57-.5,21.98,0,0,0,0,0-.01-.17-.24-.34-.46-.51-.69,4.89-6.01,5.33-13.89.33-20.78-3.47-4.78-8.44-7.49-13.57-7.98,4,.8,7.77,3.13,10.45,6.83,4.27,5.88,4.1,13.01.01,18.46-.19-.22-.38-.43-.57-.64,3.83-5.19,3.85-11.83-.13-17.32-2.98-4.1-7.34-6.42-11.84-6.75,3.35.63,6.49,2.53,8.72,5.6,3.51,4.84,3.41,10.86.15,15.42-.22-.19-.45-.37-.66-.55,3.01-4.26,3.09-9.87-.18-14.37-2.52-3.46-6.27-5.35-10.11-5.47,2.71.45,5.26,1.92,7,4.32,2.98,4.1,2.66,9.61-.45,13.34-.33-.11-.64-.19-.92-.24,3.12-3.43,3.52-8.71.69-12.6-2.94-4.04-8.35-5.23-12.67-3.01,9.01,7.58,10.76,20.99,3.73,30.66-6.3,8.67-17.65,11.56-27.13,7.57.53-.55,1.08-1.15,1.63-1.8,8.37,3.13,18.15.46,23.66-7.11,2.56-3.52,3.82-7.59,3.88-11.64-.51,3.18-1.79,6.28-3.8,9.04-5.17,7.12-13.32,9.38-21.06,6.32,0,0,0,0,0-.01.17-.23.33-.46.5-.69,7.23,2.79,14.85.78,19.86-6.11,3.47-4.78,4.52-10.35,3.39-15.37.47,4.06-.57,8.35-3.26,12.05-4.27,5.88-11.11,7.92-17.55,5.72.15-.25.3-.5.44-.74,6.11,2.04,12.44,0,16.43-5.48,2.98-4.1,3.84-8.97,2.76-13.34.44,3.38-.4,6.96-2.63,10.03-3.51,4.84-9.28,6.61-14.62,4.91.11-.27.22-.54.31-.8,4.98,1.55,10.34-.11,13.61-4.61,2.52-3.46,3.15-7.62,2.08-11.31.41,2.72-.21,5.59-1.95,7.99-2.98,4.1-8.32,5.5-12.83,3.69,0-.35-.02-.66-.06-.95,4.23,1.91,9.37.65,12.2-3.24,2.84-3.9,2.43-9.19-.71-12.62-4.47,10.82-16.63,16.57-27.95,12.89-10.2-3.31-16.45-13.21-15.59-23.46.69.33,1.43.67,2.21,1-.39,8.93,5.17,17.41,14.07,20.3,4.14,1.35,8.4,1.29,12.27.09-3.18.5-6.53.24-9.77-.82-8.37-2.72-13.04-9.77-12.51-18.07,0,0,0,0,.01,0,.28.09.55.17.81.26-.42,7.74,3.85,14.37,11.95,17,5.62,1.83,11.23,1.1,15.67-1.52-3.71,1.7-8.12,2.04-12.47.62-6.91-2.24-10.96-8.12-10.86-14.93.29.07.56.13.84.19-.05,6.45,3.84,11.84,10.29,13.93,4.82,1.57,9.72.88,13.54-1.5-3.08,1.46-6.74,1.77-10.35.6-5.69-1.85-9.15-6.78-9.19-12.39.29.02.58.04.86.05.07,5.22,3.3,9.8,8.59,11.52,4.07,1.32,8.22.64,11.39-1.52-2.46,1.23-5.38,1.53-8.2.62-4.82-1.57-7.8-6.21-7.47-11.06.33-.1.63-.22.89-.35-.51,4.61,2.27,9.11,6.85,10.6,4.82,1.57,9.98-.74,12.11-5.19-11.97-.6-21.53-10.53-21.53-22.65,0-10.72,7.48-19.72,17.5-22.07-.11.76-.19,1.56-.26,2.41-8.61,2.39-14.96,10.29-14.96,19.66,0,4.35,1.37,8.39,3.7,11.7-1.46-2.87-2.24-6.13-2.24-9.55,0-8.8,5.26-15.42,13.32-17.49,0,0,0,.01,0,.02,0,.29,0,.57,0,.85-7.49,1.99-12.48,8.1-12.48,16.62,0,5.91,2.43,11.03,6.29,14.43-2.77-3-4.45-7.09-4.45-11.67,0-7.26,4.33-12.94,10.84-14.94.03.29.05.58.08.85-6.15,1.94-10.07,7.31-10.07,14.09,0,5.07,2.17,9.51,5.61,12.42-2.34-2.48-3.76-5.87-3.76-9.66,0-5.98,3.62-10.8,8.94-12.56.07.29.14.57.21.83-4.94,1.67-8.3,6.17-8.3,11.73,0,4.28,1.93,8.01,4.97,10.37-1.93-1.96-3.12-4.65-3.12-7.61,0-5.07,3.5-9.34,8.21-10.53.2.28.4.53.61.74-4.54.94-7.96,4.97-7.96,9.79s3.68,9.14,8.48,9.88c-2.83-11.43,3.63-23.31,15-27,10.2-3.31,21.07,1.02,26.4,9.82-.75.13-1.55.3-2.38.49-4.93-7.45-14.41-11.05-23.32-8.15-4.14,1.35-7.55,3.9-9.98,7.14,2.28-2.28,5.14-4.03,8.39-5.08,8.37-2.72,16.29.24,20.75,7.27,0,0-.01,0-.01,0-.28.09-.54.18-.81.27-4.21-6.51-11.56-9.36-19.66-6.73-5.62,1.83-9.74,5.71-11.78,10.44,2-3.56,5.37-6.42,9.72-7.83,6.91-2.25,13.64.12,17.56,5.69-.27.11-.53.23-.79.34-3.75-5.24-10.06-7.32-16.51-5.23-4.82,1.57-8.38,5-10.08,9.17,1.63-2.99,4.41-5.39,8.02-6.57,5.69-1.85,11.39.11,14.71,4.62-.25.15-.49.31-.72.46-3.12-4.18-8.43-5.99-13.72-4.27-4.07,1.32-7.03,4.31-8.33,7.93,1.27-2.44,3.45-4.41,6.27-5.32,4.83-1.57,9.97.44,12.55,4.55-.21.28-.38.55-.51.8-2.3-4.03-7.19-6.03-11.77-4.55-4.75,1.54-7.56,6.33-6.78,11.11,10-6.22,23.29-3.75,30.31,5.93M38.28,71.03c-.75-.55-5.03-.22-12.55,10.14-7.52,10.36-6.57,16.18-6.57,16.18,0,0,5.84-.89,13.36-11.25,7.52-10.36,6.52-14.52,5.76-15.07M30.94,47.46c.29-.89-1.34-4.85-13.52-8.81C5.25,34.7,0,37.41,0,37.41c0,0,2.65,5.27,14.83,9.23,12.17,3.96,15.83,1.71,16.11.82M46.59,16.95C46.59,4.15,50.78,0,50.78,0c0,0,4.2,4.15,4.2,16.95s-3.26,15.58-4.2,15.58-4.2-2.78-4.2-15.58"/>
        </g>
      </g>
    </g>
  </g>
</svg>