<?xml version="1.0" encoding="UTF-8"?>
<svg id="Layer_2" data-name="Layer 2" xmlns="http://www.w3.org/2000/svg" xmlns:xlink="http://www.w3.org/1999/xlink" viewBox="0 0 101.96 101.96">
  <defs>
    <style>
      .cls-1 {
        fill: none;
      }

      .cls-2 {
        fill: #000;
      }

      .cls-3 {
        clip-path: url(#clippath);
      }
    </style>
    <clipPath id="clippath">
      <rect class="cls-1" width="101.96" height="101.96"/>
    </clipPath>
  </defs>
  <g id="svg2">
    <g id="g476">
      <g class="cls-3">
        <g id="g478">
          <path id="path484" class="cls-2" d="M101.01,50.98l-1.88-.48c-1.73-.44-2.58-1.56-3.17-4.13l-.05-.21c-.81-3.25-3.07-5.44-6.54-6.31-2.56-.65-4.55-2.65-5.19-5.23l-.21-.85c-.71-2.86-2.92-5.07-5.78-5.75-.66-.16-1.29-.44-1.85-.83l15.45-15.45-1.57-1.57-39.24,39.24L11.75,10.17l-1.57,1.57,15,15L.95,50.98l1.88.48c1.72.44,2.58,1.56,3.17,4.13l.05.21c.81,3.25,3.07,5.44,6.54,6.31,2.56.65,4.55,2.65,5.19,5.23l.21.85c.71,2.86,2.92,5.07,5.77,5.75.67.16,1.29.44,1.85.83l-15.45,15.45,1.57,1.57,39.24-39.24,39.24,39.24,1.57-1.57-15-15,24.22-24.23ZM58.81,21.45s0,0,0,0c0,0,.02.01,0,0M57.62,22.64s0,0,0,0c.01.02,0,0,0,0M65.73,11c-2.21-2.99-7.85-8.85-14.42-9.91-.55-.09-1.09-.14-1.62-.14-2.9-.02-5.46,1.26-8.39,4.19-3.46,3.46-4.62,6.41-4.05,10.01,1.05,6.57,6.91,12.21,9.9,14.42.41.35,1,.51,1.69.51,1.43,0,3.29-.67,4.89-1.62.91-.54,1.77-1.21,2.47-1.91,1.32-1.33,2.04-2.83,1.4-3.9t0,0c-.12-.21-.26-.57.18-1.01.43-.43.8-.3,1.01-.18t0,0c.27.16.6.26.91.26.93,0,2-.67,2.99-1.66.7-.7,1.36-1.57,1.91-2.47,1.42-2.37,2.19-5.31,1.11-6.58M51.59,27.99c-1.01.44-1.98.69-2.73.69-.34,0-.74-.06-.85-.24-.27-.46.84-2.32,3.42-3.87.05-.03.11-.06.16-.09v3.5ZM55.24,25.56c-.49.49-1.07.95-1.7,1.38v-3.35c.77-.27,1.49-.43,2.07-.43.34,0,.74.06.85.24.15.25-.13,1.08-1.21,2.17M61.43,19.36c-.78.71-1.4.97-1.71.97-.08,0-.13-.02-.16-.04-.46-.27-.35-2.45,1.19-5.02.22-.36.45-.7.68-1.01v5.1ZM59.56,14.55c-1.16,1.93-1.88,4.23-1.53,5.71-.36.08-.7.28-1.01.59-.31.31-.5.65-.58,1.01-.25-.06-.52-.09-.82-.09-1.43,0-3.29.67-4.89,1.62-1.63.98-3.11,2.33-3.77,3.61-.87-3.53.71-8.2,4.37-11.85,3.65-3.65,8.33-5.24,11.86-4.37-1.28.66-2.64,2.15-3.61,3.77M63.43,16.87s-.04.05-.05.08v-4.68c.43-.3.81-.46,1.09-.46.08,0,.12.02.16.04.46.27.35,2.44-1.19,5.02M36.23,90.96c2.21,2.99,7.85,8.85,14.42,9.91.55.09,1.09.14,1.62.14,2.9.02,5.47-1.26,8.39-4.19,3.46-3.46,4.62-6.41,4.05-10.01-1.05-6.57-6.91-12.21-9.9-14.42-.41-.35-1-.51-1.69-.51-1.43,0-3.29.67-4.89,1.62-.91.54-1.77,1.21-2.47,1.91-1.33,1.33-2.04,2.83-1.4,3.9t0,0c.12.21.26.57-.18,1.01s-.8.3-1.01.18t0,0c-.27-.16-.6-.26-.91-.26-.93,0-2,.67-2.99,1.66-.7.7-1.36,1.57-1.91,2.47-1.42,2.37-2.19,5.31-1.11,6.58M50.37,73.97c1.01-.44,1.99-.69,2.73-.69.34,0,.74.06.84.24.28.46-.84,2.32-3.42,3.87-.05.03-.11.06-.16.09v-3.5ZM46.72,76.4c.49-.49,1.07-.95,1.7-1.38v3.35c-.77.27-1.49.43-2.07.43-.34,0-.74-.06-.84-.24-.15-.25.13-1.08,1.21-2.17M40.54,82.61c.78-.71,1.4-.97,1.71-.97.08,0,.13.02.16.04.46.27.35,2.45-1.19,5.02-.22.36-.45.7-.68,1.01v-5.1ZM42.41,87.41c1.16-1.93,1.88-4.23,1.53-5.71.36-.08.7-.28,1.01-.59.31-.31.5-.65.58-1.01.25.06.53.09.82.09,1.43,0,3.29-.67,4.89-1.62,1.63-.98,3.11-2.33,3.77-3.61.87,3.53-.71,8.2-4.37,11.85-3.65,3.65-8.33,5.24-11.86,4.37,1.28-.66,2.64-2.15,3.61-3.77M38.54,85.09s.04-.05.05-.08v4.68c-.43.3-.81.46-1.09.46-.08,0-.13-.02-.16-.04-.46-.27-.35-2.44,1.19-5.02M27.21,73.18c-.86-.66-1.86-1.14-2.92-1.4-2.04-.49-3.63-2.08-4.14-4.13l-.21-.85c-.84-3.38-3.45-6-6.81-6.85-2.66-.67-4.31-2.24-4.92-4.67l-.04-.17c-.44-1.93-1.16-3.96-3.1-5.11l21.67-21.67,4.94,4.94-18.48,18.48-1.19-1.19-.98.98,3.35,3.35.98-.98-1.19-1.19,18.48-18.48,4.92,4.92-18.48,18.48-1.19-1.19-.98.98,3.35,3.35.98-.98-1.19-1.19,18.48-18.48,4.92,4.92-18.48,18.48-1.19-1.19-.98.98,3.35,3.35.98-.98-1.19-1.19,18.48-18.48,4.94,4.94-22.2,22.2ZM70.28,68.71l18.48-18.48,1.19,1.19.98-.98-3.35-3.35-.98.98,1.19,1.19-18.48,18.48-4.92-4.92,18.48-18.48,1.19,1.19.98-.98-3.35-3.35-.98.98,1.19,1.19-18.48,18.48-4.92-4.92,18.48-18.48,1.19,1.19.98-.98-3.35-3.35-.98.98,1.19,1.19-18.48,18.48-4.94-4.94,22.2-22.2c.86.66,1.86,1.14,2.92,1.4,2.04.49,3.63,2.08,4.14,4.13l.21.85c.84,3.38,3.45,6,6.81,6.85,2.66.67,4.31,2.24,4.92,4.67l.04.17c.44,1.93,1.16,3.96,3.1,5.11l-21.67,21.67-4.94-4.94Z"/>
        </g>
      </g>
    </g>
  </g>
</svg>