<?xml version="1.0" encoding="UTF-8"?>
<svg id="Layer_2" data-name="Layer 2" xmlns="http://www.w3.org/2000/svg" xmlns:xlink="http://www.w3.org/1999/xlink" viewBox="0 0 101.96 101.96">
  <defs>
    <style>
      .cls-1 {
        fill: none;
      }

      .cls-2 {
        fill: #000;
      }

      .cls-3 {
        clip-path: url(#clippath);
      }
    </style>
    <clipPath id="clippath">
      <rect class="cls-1" width="101.96" height="101.96"/>
    </clipPath>
  </defs>
  <g id="svg2">
    <g id="g436">
      <g class="cls-3">
        <g id="g438">
          <path id="path444" class="cls-2" d="M9.47,10.97c2.01,0,3.65,1.63,3.65,3.65s-1.63,3.65-3.65,3.65-3.65-1.63-3.65-3.65,1.63-3.65,3.65-3.65M7.05,24.04c1.83,1.83,4.11,2.94,6.49,3.34l13.87-13.87c-.4-2.37-1.51-4.64-3.35-6.47l-2.29-2.29C17.07.06,9.46.06,4.76,4.76.06,9.45.06,17.06,4.76,21.75l2.29,2.29Z"/>
          <path id="path446" class="cls-2" d="M27.53,16.6l-10.91,10.91c1.22-.11,2.43-.4,3.59-.88,1.07-.42,2.29-.15,3.1.66l5.97,5.97c.62.62,1.62.62,2.24,0l1.76-1.76c.62-.62.62-1.62,0-2.24l-5.97-5.97c-.82-.82-1.09-2.04-.66-3.11.48-1.15.77-2.37.88-3.6"/>
          <path id="path448" class="cls-2" d="M9.4,90.97l1.6,1.6,14.24-14.24-1.6-1.6-14.24,14.24Z"/>
          <path id="path450" class="cls-2" d="M74.43,85.37l10.91-10.91c-1.22.11-2.43.4-3.59.88-1.07.42-2.29.15-3.1-.66l-5.97-5.97c-.62-.62-1.62-.62-2.24,0l-1.76,1.76c-.62.62-.62,1.62,0,2.24l5.97,5.97c.82.82,1.09,2.04.66,3.11-.48,1.15-.77,2.37-.88,3.6"/>
          <path id="path452" class="cls-2" d="M92.49,91c-2.01,0-3.65-1.63-3.65-3.65s1.63-3.65,3.65-3.65,3.65,1.63,3.65,3.65-1.63,3.65-3.65,3.65M94.92,77.92c-1.83-1.83-4.11-2.94-6.49-3.34l-13.87,13.87c.4,2.37,1.51,4.64,3.35,6.47l2.29,2.29c4.7,4.69,12.31,4.69,17.01,0,4.7-4.69,4.7-12.3,0-17l-2.29-2.29Z"/>
          <path id="path454" class="cls-2" d="M30.1,67.81l3.63-3.64,4.1,4.1-3.63,3.64-4.1-4.1ZM29.02,77.1l-4.1-4.1,3.58-3.59,4.1,4.1-3.58,3.59ZM38.63,59.26l4.1,4.1-3.9,3.91-4.1-4.1,3.9-3.91ZM43.53,54.35l4.1,4.1-3.9,3.91-4.1-4.1,3.9-3.91ZM48.44,49.43l4.09,4.1-3.9,3.91-4.1-4.1,3.9-3.91ZM53.34,44.52l4.1,4.1-3.9,3.91-4.09-4.1,3.9-3.91ZM58.24,39.6l4.1,4.1-3.9,3.91-4.1-4.1,3.9-3.91ZM63.14,34.69l4.1,4.1-3.9,3.91-4.1-4.1,3.9-3.91ZM67.77,30.05l4.1,4.1-3.63,3.63-4.1-4.1,3.63-3.63ZM72.95,24.86l4.1,4.1-3.58,3.59-4.1-4.1,3.58-3.59ZM61.04,98.76l-25.85-25.85,18.33-18.38,14.52,14.56,1-1-14.52-14.56h0s18.33-18.38,18.33-18.38l25.89,25.89-11.95,11.95c.96.03,1.91.15,2.83.38l12.33-12.33-27.49-27.49,4.58-4.59-6.1-6.1-4.58,4.59L40.92,0l-12.31,12.31c.23.92.36,1.87.39,2.82l11.92-11.92,25.85,25.85-18.33,18.38-14.52-14.56-1,1,14.52,14.56h0s0,0,0,0l-18.34,18.38L3.2,40.92l11.95-11.95c-.96-.03-1.91-.15-2.83-.38L0,40.92l27.5,27.5-4.58,4.59,6.1,6.1,4.58-4.59,27.45,27.45,12.31-12.31c-.23-.92-.36-1.87-.39-2.82l-11.92,11.92Z"/>
        </g>
      </g>
    </g>
  </g>
</svg>