<?xml version="1.0" encoding="UTF-8"?>
<svg id="Layer_2" data-name="Layer 2" xmlns="http://www.w3.org/2000/svg" xmlns:xlink="http://www.w3.org/1999/xlink" viewBox="0 0 101.96 101.96">
  <defs>
    <style>
      .cls-1 {
        fill: none;
      }

      .cls-2 {
        fill: #000;
      }

      .cls-3 {
        clip-path: url(#clippath);
      }
    </style>
    <clipPath id="clippath">
      <rect class="cls-1" x="0" y="0" width="101.96" height="101.96"/>
    </clipPath>
  </defs>
  <g id="svg2">
    <g id="g456">
      <g class="cls-3">
        <g id="g458">
          <path id="path464" class="cls-2" d="M75.07,60.96v-19.96l-6.26-6.26,6.85-6.85,23.09,23.09-23.09,23.09-6.85-6.85,6.26-6.26ZM60.37,73.66h-2.99c-1.11-2.52-3.63-4.17-6.4-4.17s-5.29,1.66-6.4,4.17h-2.99l-5.84-5.84h30.47l-5.84,5.84ZM26.29,74.07L3.21,50.98l23.09-23.09,6.85,6.85-6.26,6.26v19.96l6.26,6.26-6.85,6.85ZM41.59,28.3h2.99c1.11,2.51,3.63,4.17,6.4,4.17s5.29-1.66,6.4-4.17h2.99l5.84,5.84h-30.47l5.84-5.84ZM52.58,50.98l15.23-15.23,5.84,5.84v18.79l-5.84,5.84-15.23-15.23ZM49.38,50.98l-15.23,15.23-5.84-5.84v-18.79l5.84-5.84,15.23,15.23ZM101.96,50.98l-24.69-24.69,15.29-15.29-1.6-1.6-23.75,23.75-6.26-6.26h-4.55l-.17.47c-.8,2.21-2.91,3.7-5.26,3.7s-4.46-1.49-5.26-3.7l-.17-.47h-4.55l-6.25,6.26L11,9.4l-1.6,1.6,15.29,15.29L0,50.98l24.69,24.69-15.29,15.29,1.6,1.6,23.75-23.75,6.25,6.26h4.55l.17-.47c.8-2.21,2.91-3.7,5.26-3.7s4.46,1.49,5.26,3.7l.17.47h4.55l6.26-6.26,23.75,23.75,1.6-1.6-15.29-15.29,24.69-24.69ZM35.49,56.25h-1.42v-10.53h1.42v10.53ZM66.48,45.71h1.42v10.53h-1.42v-10.53ZM56.32,92.04c-.25.02-.5,0-.75-.02l-2.08-.25c-.83-.1-1.67-.15-2.51-.15s-1.67.05-2.51.15l-2.08.25c-.25.03-.5.04-.75.02-1.17-.09-2.34-.28-3.47-.58l.52-4.69c.65-3.08.75-6.49,4.89-8.46.39-.19.66-.56.69-.99v-.13c1.77-.35,3.64-.35,5.42,0,0,.04,0,.09,0,.13.03.43.3.81.69.99,4.15,1.97,4.25,5.38,4.89,8.46l.52,4.69c-1.14.3-2.3.49-3.47.58M61.37,82.31s-.07,0-.1,0c-.56-3.05-2.88-5.49-5.87-6.2h0l-.9-.21c-2.28-.54-4.74-.54-7.02,0l-.9.21h0c-2.99.71-5.32,3.15-5.87,6.2-.03,0-.06,0-.1,0-.94,0-1.7.76-1.7,1.7v6.06c0,.94.76,1.7,1.7,1.7.1,1.46.44,3.13.99,4.28.18.37.55.6.96.62,1.51,3.13,4.72,5.3,8.44,5.3s6.92-2.16,8.44-5.3c.41-.02.78-.25.96-.62.55-1.14.89-2.81.99-4.28.94,0,1.7-.76,1.7-1.7v-6.06c0-.94-.76-1.7-1.7-1.7M45.64,9.93c.25-.02.5,0,.75.02l2.08.25c.83.1,1.67.15,2.51.15s1.67-.05,2.51-.15l2.08-.25c.25-.03.5-.04.75-.02,1.17.09,2.34.28,3.47.58l-.52,4.69c-.64,3.08-.75,6.49-4.89,8.46-.39.19-.66.56-.69.99,0,.05,0,.09,0,.13-1.77.35-3.64.35-5.42,0v-.13c-.03-.43-.3-.81-.69-.99-4.15-1.97-4.25-5.38-4.89-8.46l-.52-4.69c1.14-.3,2.3-.49,3.47-.58M40.6,19.66s.06,0,.1,0c.56,3.05,2.88,5.49,5.87,6.2l.9.21c1.14.27,2.32.41,3.51.41s2.37-.14,3.51-.41l.9-.21h0c2.99-.71,5.32-3.15,5.87-6.2.03,0,.06,0,.1,0,.94,0,1.7-.76,1.7-1.7v-6.06c0-.94-.76-1.7-1.7-1.7-.1-1.46-.44-3.13-.99-4.28-.18-.37-.55-.6-.96-.62C57.91,2.16,54.7,0,50.98,0s-6.93,2.16-8.44,5.3c-.41.02-.78.25-.96.62-.55,1.14-.89,2.81-.99,4.28-.94,0-1.7.76-1.7,1.7v6.06c0,.94.76,1.7,1.7,1.7"/>
        </g>
      </g>
    </g>
  </g>
</svg>