<?xml version="1.0" encoding="UTF-8"?>
<svg id="Layer_2" data-name="Layer 2" xmlns="http://www.w3.org/2000/svg" xmlns:xlink="http://www.w3.org/1999/xlink" viewBox="0 0 101.96 101.96">
  <defs>
    <style>
      .cls-1 {
        fill: none;
      }

      .cls-2 {
        fill: #000;
      }

      .cls-3 {
        clip-path: url(#clippath);
      }
    </style>
    <clipPath id="clippath">
      <rect class="cls-1" x="0" y="0" width="101.96" height="101.96"/>
    </clipPath>
  </defs>
  <g id="svg2">
    <g id="g558">
      <g class="cls-3">
        <g id="g560">
          <path id="path566" class="cls-2" d="M9.71,93.85l2.57,2.57s.81.14,1.93,0l-3.53-3.53-.96.96ZM9.71,88.72l7.02,7.02c.43-.18.86-.39,1.3-.63l-7.35-7.35-.96.96ZM12.28,81.03l10.31,10.31c.31-.36.59-.72.85-1.08l-10.2-10.2-.96.96ZM9.71,83.59l10.24,10.23c.35-.27.7-.57,1.05-.88l-10.32-10.32-.96.96ZM1.98,50.98c0,2.12,1.36,3.92,3.25,4.59.69.23,1.35.19,1.95-.13.82-.44,1.34-1.31,1.44-1.76.25-1.13.22-1.91-.62-3.02-.1-.13-.19-.25-.29-.38-.81-1.03-1.77-2.29-1.45-4.13-2.41.29-4.27,2.34-4.27,4.83M19.34,10.67l-.96-.96-10.24,10.24c.27.35.57.7.88,1.05l10.32-10.32ZM13.25,9.71l-7.02,7.02c.18.43.39.86.63,1.3l7.35-7.35-.96-.96ZM11.72,50.98c0-2.58-2.01-4.69-4.55-4.85-.35,1.55.42,2.55,1.24,3.6.1.13.2.26.3.39.69.91.93,1.7.93,2.51,0,.4-.06.81-.15,1.24-.09.43-.43,1.11-1.01,1.69,1.88-.67,3.23-2.47,3.23-4.58M17.41,81.03l7.2,7.2c.22-.47.39-.94.54-1.39l-6.78-6.77-.96.96ZM4.13,13.25c0,2.83,1.29,6.12,4.72,9.55h0c1.4,1.4,2.97,2.41,4.67,3.2,1.89.8,3.66,1.02,5.04,1.02,3.24-.01,5.62-1.23,6.44-2.04.81-.81,2.03-3.2,2.04-6.44,0-1.39-.22-3.15-1.02-5.04-.79-1.69-1.8-3.26-3.2-4.66h0c-3.44-3.43-6.73-4.72-9.55-4.72-2.65,0-4.89,1.13-6.45,2.69-1.56,1.56-2.69,3.8-2.69,6.45M26.55,26.52h0s0,0,0,0c0,0,0,0,0,0h0c-.85.85-2.39,1.71-4.37,2.22,3.36.88,6.75,1.87,9.75,3.86l.36-.36.36-.36c-1.99-3-2.98-6.39-3.86-9.75-.51,1.98-1.36,3.52-2.22,4.37M7.31,24.35C.02,17.05,1.03,9.51,5.28,5.26,9.52,1.02,17.07,0,24.36,7.29c1.81,1.81,2.97,3.67,3.71,5.44,1.16,2.54,1.87,5.24,2.55,7.9,1.2,4.63,2.33,9.01,5.73,12.41l9.64,9.1-1.91,1.91-1.91,1.91-9.1-9.64c-3.4-3.39-7.78-4.53-12.41-5.73-2.66-.69-5.36-1.39-7.9-2.55-1.77-.73-3.63-1.9-5.44-3.71M93.85,92.25l2.57-2.57s.13-.81,0-1.93l-3.53,3.53.96.96ZM8.12,9.71l-2.57,2.57s-.14.81,0,1.93l3.53-3.53-.96-.96ZM22.53,81.03l3.11,3.11c.05-.87,0-1.48-.05-1.98l-2.09-2.09-.96.96ZM82.63,91.29l.96.96,10.24-10.23c-.27-.35-.57-.7-.88-1.05l-10.32,10.32ZM90.26,78.53l-10.2,10.2.96.96,10.31-10.31c-.36-.31-.72-.59-1.08-.85M88.72,92.25l7.02-7.02c-.18-.43-.39-.86-.63-1.3l-7.35,7.35.96.96ZM32.61,70.05l-.36-.36-.36-.36c-3,1.99-6.39,2.98-9.75,3.86,1.98.51,3.52,1.36,4.37,2.22h0s0,0,0,0c0,0,0,0,0,0h0c.85.85,1.71,2.39,2.22,4.37.88-3.36,1.87-6.75,3.86-9.75M27.03,83.4c-.01-3.24-1.23-5.62-2.04-6.44-.82-.81-3.2-2.03-6.44-2.04-1.39,0-3.15.22-5.04,1.02-1.69.79-3.26,1.8-4.66,3.2h0c-3.43,3.43-4.72,6.73-4.72,9.55,0,2.65,1.13,4.89,2.69,6.45,1.56,1.56,3.8,2.69,6.45,2.69,2.83,0,6.12-1.29,9.55-4.72h0c1.4-1.4,2.41-2.97,3.2-4.67.8-1.89,1.02-3.66,1.02-5.04M44.06,57.89l1.91,1.91-9.64,9.1c-3.39,3.4-4.53,7.78-5.73,12.41-.69,2.66-1.39,5.36-2.55,7.9-.73,1.77-1.9,3.63-3.71,5.44-7.29,7.29-14.84,6.28-19.08,2.03C1.02,92.44,0,84.9,7.29,77.6c1.81-1.81,3.67-2.97,5.44-3.71,2.54-1.17,5.24-1.87,7.9-2.56,4.63-1.2,9.01-2.33,12.41-5.73l9.11-9.64,1.91,1.91ZM88.23,77.35c-.47-.22-.94-.39-1.39-.53l-6.77,6.77.96.96,7.2-7.2ZM49.73,93.55c.13-.1.26-.2.39-.3.91-.69,1.7-.93,2.51-.93.4,0,.81.06,1.24.15.43.09,1.11.43,1.69,1.01-.67-1.88-2.47-3.23-4.58-3.23-2.58,0-4.69,2.01-4.85,4.55,1.54.35,2.55-.42,3.6-1.24M84.13,76.32c-.87-.05-1.48,0-1.98.05l-2.09,2.09.96.96,3.11-3.11ZM53.68,93.35c-1.13-.25-1.91-.22-3.02.62-.13.09-.25.19-.38.29-1.04.81-2.29,1.77-4.13,1.45.29,2.41,2.34,4.27,4.83,4.27,2.12,0,3.92-1.36,4.59-3.25.23-.69.19-1.35-.13-1.95-.44-.82-1.31-1.34-1.76-1.44M97.84,88.71c0-2.83-1.29-6.12-4.72-9.55h0c-1.4-1.4-2.97-2.41-4.66-3.2-1.89-.8-3.66-1.02-5.04-1.02-3.24.01-5.62,1.23-6.44,2.04-.81.82-2.03,3.2-2.04,6.44,0,1.39.22,3.15,1.02,5.04.79,1.69,1.8,3.26,3.2,4.67h0c3.44,3.43,6.73,4.72,9.55,4.72,2.65,0,4.89-1.13,6.45-2.69,1.56-1.56,2.69-3.8,2.69-6.45M75.42,75.44h0s0,0,0,0,0,0,0,0h0c.85-.86,2.39-1.71,4.37-2.22-3.36-.88-6.75-1.87-9.75-3.86l-.36.36-.36.36c1.99,3,2.98,6.39,3.86,9.75.51-1.98,1.36-3.52,2.22-4.37M94.66,77.62c7.29,7.29,6.27,14.84,2.03,19.08-4.24,4.24-11.79,5.26-19.08-2.03-1.81-1.81-2.97-3.67-3.71-5.44-1.17-2.54-1.87-5.24-2.55-7.9-1.2-4.63-2.33-9.01-5.73-12.41l-9.64-9.1,1.91-1.91,1.91-1.91,9.1,9.64c3.4,3.39,7.78,4.53,12.41,5.73,2.65.69,5.36,1.39,7.9,2.56,1.77.73,3.63,1.9,5.44,3.71M69.35,31.91l.36.36.36.36c3-1.99,6.39-2.98,9.75-3.86-1.98-.51-3.52-1.36-4.37-2.22h0s0,0,0,0c0,0,0,0,0,0h0c-.85-.85-1.71-2.39-2.22-4.37-.88,3.36-1.87,6.75-3.86,9.75M74.94,18.56c.01,3.24,1.23,5.62,2.04,6.44.82.81,3.2,2.03,6.44,2.04,1.39,0,3.15-.22,5.04-1.02,1.69-.79,3.26-1.8,4.66-3.2h0c3.43-3.43,4.72-6.73,4.72-9.55,0-2.65-1.13-4.89-2.69-6.45-1.56-1.56-3.8-2.69-6.45-2.69-2.83,0-6.12,1.29-9.55,4.72h0c-1.4,1.4-2.41,2.97-3.2,4.67-.8,1.89-1.02,3.66-1.02,5.04M57.91,44.07l-1.91-1.91,9.64-9.11c3.39-3.4,4.53-7.78,5.73-12.41.69-2.66,1.39-5.36,2.55-7.9.73-1.77,1.9-3.63,3.71-5.44C84.91.01,92.46,1.03,96.7,5.28c4.24,4.24,5.26,11.79-2.03,19.08-1.81,1.81-3.67,2.97-5.44,3.71-2.54,1.17-5.24,1.87-7.9,2.55-4.63,1.2-9.01,2.33-12.41,5.73l-9.11,9.64-1.91-1.91ZM92.25,8.11l-2.57-2.57s-.81-.13-1.93,0l3.53,3.53.96-.96ZM99.99,50.98c0-2.12-1.36-3.92-3.25-4.59-.69-.23-1.35-.19-1.95.13-.82.44-1.34,1.31-1.44,1.76-.25,1.13-.22,1.91.62,3.02.1.13.19.25.29.38.81,1.04,1.78,2.29,1.45,4.13,2.41-.29,4.27-2.34,4.27-4.83M11.7,23.44l10.2-10.2-.96-.96-10.31,10.31c.36.31.72.59,1.08.85M92.25,18.37l-10.24-10.23c-.35.27-.7.56-1.05.88l10.32,10.32.96-.96ZM79.43,20.94l-3.11-3.1c-.05.87,0,1.48.05,1.98l2.09,2.09.96-.96ZM89.69,20.94l-10.31-10.31c-.31.36-.59.72-.85,1.08l10.2,10.2.96-.96ZM93.48,46.4c-1.88.67-3.23,2.47-3.23,4.58,0,2.58,2.01,4.69,4.55,4.85.35-1.54-.42-2.55-1.24-3.6-.1-.13-.2-.26-.3-.39-.69-.91-.93-1.7-.93-2.51,0-.4.06-.81.15-1.24.09-.43.43-1.11,1.01-1.69M92.25,13.24l-7.02-7.02c-.43.18-.86.39-1.3.63l7.35,7.35.96-.96ZM13.73,24.61c.47.22.94.39,1.39.53l6.77-6.78-.96-.96-7.2,7.2ZM17.83,25.64c.87.05,1.48,0,1.98-.05l2.09-2.09-.96-.96-3.11,3.11ZM48.28,8.61c1.13.25,1.91.22,3.02-.62.13-.1.25-.19.38-.29,1.04-.81,2.29-1.77,4.13-1.45-.29-2.41-2.34-4.27-4.83-4.27-2.12,0-3.92,1.36-4.59,3.25-.23.69-.19,1.35.13,1.95.44.82,1.31,1.34,1.76,1.44M84.56,20.94l-7.2-7.2c-.22.47-.39.94-.54,1.39l6.78,6.78.96-.96ZM54.99,58.89l3.9-3.9-.66-.69c-.31-.33-.75-.52-1.2-.53h-.03c-.45,0-.87.17-1.19.49l-1.55,1.55c-.32.32-.5.77-.49,1.22,0,.45.2.89.53,1.2l.69.66ZM57.03,48.2c.45,0,.89-.2,1.2-.53l.65-.69-3.9-3.9-.69.66c-.33.31-.52.75-.53,1.2v.03c0,.45.17.87.49,1.19l1.55,1.55c.32.32.77.5,1.22.49M44.96,48.2c.45,0,.87-.17,1.19-.49l1.55-1.55c.32-.32.5-.77.49-1.22,0-.45-.2-.89-.53-1.2l-.69-.65-3.9,3.9.66.69c.31.33.75.52,1.2.53h.03M52.24,8.41c-.13.1-.26.2-.39.3-.91.69-1.7.93-2.51.93-.4,0-.81-.06-1.24-.15-.43-.09-1.11-.43-1.69-1.01.67,1.88,2.47,3.23,4.58,3.23,2.58,0,4.69-2.01,4.85-4.54-1.54-.35-2.55.42-3.6,1.24M46.98,58.89l-3.9-3.9.66-.69c.31-.33.75-.52,1.2-.53.45,0,.9.17,1.22.49l1.55,1.55c.32.32.49.74.49,1.19v.03c0,.45-.2.89-.53,1.2l-.69.65Z"/>
        </g>
      </g>
    </g>
  </g>
</svg>