<?xml version="1.0" encoding="UTF-8"?>
<svg id="Layer_2" data-name="Layer 2" xmlns="http://www.w3.org/2000/svg" xmlns:xlink="http://www.w3.org/1999/xlink" viewBox="0 0 101.96 101.96">
  <defs>
    <style>
      .cls-1 {
        fill: none;
      }

      .cls-2 {
        fill: #000;
      }

      .cls-3 {
        clip-path: url(#clippath);
      }
    </style>
    <clipPath id="clippath">
      <rect class="cls-1" width="101.96" height="101.96"/>
    </clipPath>
  </defs>
  <g id="svg2">
    <g id="g516">
      <g class="cls-3">
        <g id="g518">
          <path id="path524" class="cls-2" d="M55.48,56.48l1-1-4.5-4.5,4.5-4.5-1-1-4.5,4.5-4.5-4.5-1,1,4.5,4.5-4.5,4.5,1,1,4.5-4.5,4.5,4.5ZM52.55,81.02l1-1-6.69-6.69,26.47-26.47,6.69,6.69,1-1-6.69-6.69,12.72-12.72-1-1-12.72,12.72-16.23-16.23,12.72-12.72-1-1-12.72,12.72-6.68-6.68-1,1,6.68,6.69-26.47,26.47-6.68-6.69-1,1,6.68,6.68-12.72,12.72,1,1,12.72-12.72,16.23,16.23-12.72,12.72,1,1,12.72-12.72,6.69,6.69ZM78.16,81.76l1,1-19.2,19.2-12.57-12.57-7.56,7.55L5.02,62.14l7.56-7.55L0,42.01l19.2-19.2,1,1L2,42.01l11.57,11.57,5.77-5.77-2.19-2.19c-.67.27-1.46.14-2-.4-.72-.72-.72-1.88,0-2.6.72-.72,1.88-.72,2.6,0,.54.54.67,1.34.4,2l2.19,2.19,8.16-8.16-2.19-2.19c-.67.27-1.46.14-2-.4-.72-.72-.72-1.88,0-2.6.72-.72,1.88-.72,2.6,0,.54.54.68,1.34.4,2l2.19,2.19,8.16-8.16-2.19-2.19c-.67.27-1.46.14-2-.4-.72-.72-.72-1.89,0-2.6.72-.72,1.89-.72,2.6,0,.54.54.67,1.34.4,2l2.19,2.19,8.16-8.16-2.19-2.19c-.67.27-1.46.14-2-.4-.72-.72-.72-1.89,0-2.6s1.89-.72,2.6,0c.54.54.67,1.34.4,2l2.19,2.19,5.77-5.77-11.57-11.57-18.2,18.2-1-1L42.01,0l12.57,12.57,7.55-7.55,34.81,34.81-7.56,7.56,12.57,12.57-19.2,19.2-1-1,18.2-18.2-11.57-11.57-5.77,5.77,2.19,2.19c.67-.27,1.46-.14,2,.4.72.72.72,1.88,0,2.6-.72.72-1.88.72-2.6,0-.54-.54-.67-1.34-.4-2l-2.19-2.19-8.16,8.15,2.19,2.19c.67-.27,1.46-.14,2,.4.72.72.72,1.89,0,2.6-.72.72-1.89.72-2.6,0-.54-.54-.67-1.34-.4-2l-2.19-2.19-8.16,8.16,2.19,2.19c.67-.27,1.46-.14,2,.4.72.72.72,1.89,0,2.6s-1.89.72-2.6,0c-.54-.54-.67-1.34-.4-2l-2.19-2.19-8.16,8.16,2.19,2.19c.67-.27,1.46-.14,2,.4.72.72.72,1.88,0,2.6-.72.72-1.88.72-2.6,0-.54-.54-.67-1.34-.4-2l-2.19-2.19-5.77,5.77,11.57,11.57,18.2-18.2ZM92.57,11l-1.6-1.6-10.62,10.62,1.6,1.6,10.62-10.63ZM77.48,75.87h0l-1.6,1.6,15.09,15.09,1.6-1.6-15.09-15.09ZM24.49,26.09h0l1.6-1.6-15.09-15.09h0l-1.6,1.6,15.09,15.09ZM20.02,80.34l1.6,1.6-10.62,10.62-1.6-1.6,10.62-10.62Z"/>
        </g>
      </g>
    </g>
  </g>
</svg>