<?xml version="1.0" encoding="UTF-8"?>
<svg id="Layer_2" data-name="Layer 2" xmlns="http://www.w3.org/2000/svg" xmlns:xlink="http://www.w3.org/1999/xlink" viewBox="0 0 101.96 101.96">
  <defs>
    <style>
      .cls-1 {
        fill: none;
      }

      .cls-2 {
        fill: #000;
      }

      .cls-3 {
        clip-path: url(#clippath);
      }
    </style>
    <clipPath id="clippath">
      <rect class="cls-1" width="101.96" height="101.96"/>
    </clipPath>
  </defs>
  <g id="svg2">
    <g id="g526">
      <g class="cls-3">
        <g id="g528">
          <path id="path534" class="cls-2" d="M6.71,56.28c-1.64.87-3.34,1.76-6.71,1.76v-1.42c3.01,0,4.49-.78,6.05-1.6,1.64-.87,3.34-1.76,6.71-1.76,1.92,0,3.29.29,4.43.7-.05.49-.08.98-.09,1.49-1.1-.45-2.4-.77-4.34-.77-3.01,0-4.49.78-6.05,1.6M12.75,40.29c3.01,0,4.49.77,6.05,1.6,1.32.7,2.68,1.41,4.91,1.66.86-.54,1.77-1,2.74-1.35-.3.02-.61.03-.94.03-3.01,0-4.49-.78-6.05-1.6-1.64-.87-3.34-1.76-6.71-1.76s-5.06.89-6.71,1.76c-1.56.82-3.03,1.6-6.05,1.6v1.42c3.36,0,5.06-.89,6.71-1.76,1.56-.82,3.03-1.6,6.05-1.6M12.75,47.49c2.93,0,4.41.74,5.93,1.53.22-.42.46-.83.72-1.22-1.62-.85-3.32-1.73-6.64-1.73s-5.06.89-6.71,1.76c-1.56.82-3.03,1.6-6.05,1.6v1.42c3.36,0,5.06-.89,6.71-1.76,1.56-.82,3.03-1.6,6.05-1.6M12.75,61.88c3.01,0,4.49.78,6.05,1.6.38.2.77.4,1.17.6-.55-.72-1.03-1.5-1.43-2.32-1.4-.69-3.04-1.29-5.79-1.29-3.36,0-5.06.89-6.71,1.76-1.56.82-3.03,1.6-6.05,1.6v1.42c3.36,0,5.06-.89,6.71-1.76,1.56-.82,3.03-1.6,6.05-1.6M70.08,55.81l2.19-.58-5.86-21.94c-.02-.09,0-.15.04-.19.03-.04.09-.09.18-.09h4.7c1.02,0,1.86.84,1.86,1.86s-.83,1.86-1.86,1.86v2.27c2.27,0,4.12-1.85,4.12-4.12s-1.85-4.12-4.11-4.12h-4.72c-.77,0-1.49.34-1.96.95-.47.61-.64,1.39-.45,2.15l5.86,21.96ZM29.93,41.42c.44-.04.88-.06,1.33-.06.59,0,1.18.04,1.76.11,1.31-.65,2.75-1.18,5.24-1.18.15,0,.29,0,.44,0l-1.4-1.39c-2.74.15-4.27.95-5.75,1.73-.53.28-1.05.55-1.62.79M66.7,48.64l-1.21-4.53c-4.19,2.09-7.06,6.41-7.06,11.41,0,7.04,5.71,12.75,12.75,12.75s12.75-5.71,12.75-12.75-5.71-12.75-12.75-12.75c-.25,0-.51.01-.76.03l1.21,4.52c4.32.23,7.77,3.82,7.77,8.2s-3.69,8.22-8.22,8.22-8.22-3.69-8.22-8.22c0-2.88,1.49-5.42,3.74-6.89M31.11,29.5L11,9.39l-1.6,1.6,20.11,20.11,1.6-1.6ZM12.75,33.09c3.01,0,4.49.78,6.05,1.6,1.64.87,3.34,1.76,6.71,1.76s5.06-.89,6.71-1.76c.19-.1.38-.2.57-.3l-1.05-1.05c-.06.03-.12.07-.18.1-1.56.82-3.03,1.6-6.05,1.6s-4.49-.77-6.05-1.6c-1.64-.87-3.34-1.76-6.71-1.76s-5.06.89-6.71,1.76c-1.56.82-3.03,1.6-6.05,1.6v1.42c3.36,0,5.06-.89,6.71-1.76,1.56-.82,3.03-1.6,6.05-1.6M91.6,37.04c.81,1.2,1.44,2.51,1.87,3.89l1.35-.43c-.48-1.51-1.17-2.93-2.05-4.25l-1.18.79ZM88.57,57.45c-1.12.92-2.36,1.67-3.69,2.24l.56,1.3c1.45-.62,2.81-1.44,4.03-2.45l-.9-1.1ZM87.33,30.38l-1,1,3.22,3.2.99-1.01-3.21-3.19ZM95.33,48.64c.19-1.01.28-2.04.28-3.07,0-.55-.03-1.1-.08-1.64l-1.41.14c.05.5.07,1,.07,1.51,0,.94-.09,1.89-.26,2.81l1.39.26ZM80.74,25.81l3.21,3.2,1-1-3.21-3.2-1,1ZM91.93,56.05c.99-1.23,1.8-2.6,2.41-4.06l-1.31-.54c-.55,1.33-1.29,2.58-2.2,3.71l1.1.89ZM62.17,90.5h-2.36c-.39,0-.71-.32-.71-.71s.32-.71.71-.71h1.9l-.47-1.5h-2.88c-.39,0-.71-.32-.71-.71s.32-.71.71-.71h2.43l-.47-1.5h-3.41c-.39,0-.71-.32-.71-.71s.32-.71.71-.71h2.96l-.47-1.5h-3.94c-.39,0-.71-.32-.71-.71s.32-.71.71-.71h3.51l-.67-2.28c-8.3,1.15-5.8-3.62-8.25-5.46-3.04,1.04-5.61,3-7.03,4.28l.18.31c1.91,3.38,3.31,4.23,5.64,5.63,1.22.74,2.61,1.58,4.37,2.94,1.37,1.06,2.61,3.29,3.92,5.65,1.22,2.2,2.48,4.47,3.76,5.67,1.08,1.01,1.63,1.36,1.87,1.48,1.15-.76,2.2-.61,3.74.59-.37-1.38-1.47-3.15-2.35-4.63-.92-1.55-1.43-2.49-1.96-4.03M43.54,58.92c-1.49,5.39-6.42,9.35-12.29,9.35-7.04,0-12.75-5.71-12.75-12.75s5.71-12.75,12.75-12.75c2.04,0,3.97.48,5.68,1.34l4.83-6.8-1.88-6.2-.33.08c-.42.14-.86.21-1.29.21-1.34,0-2.64-.66-3.42-1.83l-.48-.71c-.19-.29-.21-.65-.05-.96.16-.3.48-.49.82-.49h10.91c.58,0,1.06.48,1.06,1.06,0,.46-.29.86-.73,1.01l-4.31,1.08,1.5,4.93h19.61l1.25,4.66-14.45,16.67c-.38.43-.92.68-1.5.68h-17.23c-1.1,0-1.98-.89-1.98-1.98,0-.41.13-.8.34-1.11,0,0,0,0,0,0l4.64-6.53c-.93-.37-1.94-.57-3-.57-4.53,0-8.22,3.69-8.22,8.22s3.69,8.22,8.22,8.22c3.32,0,6.18-1.98,7.48-4.82h4.81ZM56.43,3.59c.59-.49,1.24-1.13,1.61-1.81C56.3.55,54.07,0,50.98,0,46.48,0,43.8,1.16,41.84,3.88c-1.29,1.78-2.1,3.89-2.58,6.01,2.31-2.14,6.18-2.98,9.75-3.75,3.03-.66,5.89-1.28,7.42-2.55M38.9,19.71c-.19-1.26-.33-3.09-.24-5.15.17-4.72,5.5-5.88,10.66-7,3.21-.69,6.23-1.35,8.04-2.86.79-.66,1.39-1.32,1.8-1.97h0c.34.35.66.73.96,1.15,3.59,4.96,3.45,12.44,2.94,15.83-.12,1.53-2.54,2.94-5.01,3.56-.94.24-1.94.37-2.85.37-1.72,0-3.16-.48-3.44-1.6-.06-.23-.21-.52-.78-.52s-.72.28-.78.52c-.28,1.12-1.72,1.6-3.44,1.6-.91,0-1.91-.13-2.85-.37-2.47-.62-4.89-2.03-5.01-3.56M46.91,20.1l-1.95,1.95c.61.11,1.22.17,1.79.17,1.46,0,2.03-.38,2.07-.52.06-.22-.57-.95-1.91-1.6M57.81,19.22c-.25.04-.49.09-.73.16-2.75.69-4.02,2.01-3.94,2.33.03.12.51.45,1.69.51l2.99-2.99ZM60.69,19.14l-2.66,2.66c2.52-.71,3.7-1.94,3.62-2.24-.02-.09-.3-.3-.96-.43M40.43,17.89c.56-.18,1.23-.26,1.96-.26.91,0,1.91.13,2.85.37,1.98.49,3.92,1.5,4.68,2.66.3-.18.66-.27,1.07-.27s.77.1,1.07.27c.76-1.16,2.71-2.16,4.68-2.66.94-.24,1.94-.37,2.85-.37.73,0,1.4.08,1.96.26-1.73-2.86-5.8-4.87-10.56-4.87s-8.83,2.01-10.56,4.87M42.79,21.41l2.05-2.05c-.84-.21-1.69-.32-2.46-.32-1.46,0-2.03.39-2.07.52-.06.25.74,1.15,2.48,1.85M44.01,36.9l4.67,15.37,13.32-15.37h-17.99ZM35.54,48.52l-3.57,5.02h14.73l-4.41-14.51-4.11,5.79c2.59,1.68,4.53,4.26,5.37,7.31h-4.81c-.68-1.5-1.8-2.75-3.19-3.6M63.48,99.77c-.31.21-.56.35-1.04.19-.58-.18-1.41-.79-2.54-1.85-1.44-1.35-2.75-3.72-4.02-6.01-1.24-2.23-2.41-4.34-3.55-5.22-1.69-1.31-3.04-2.12-4.23-2.84-2.34-1.42-4.04-2.44-6.13-6.13h0s-.01-.02,0,0c-1.04.71-2.4,1.67,1.18,5.36,0,0,2.26,2.83,6.53,5.88,1.23.88,2.24,2.03,3.01,3.33,2.93,4.93,7.7,7.81,7.7,7.81,1.75,1.27,3.03,1.67,3.93,1.68,1.51,0,2.01-1.08,2.01-1.08,0,0,0,0,0,0-1.91-1.74-2.36-1.43-2.84-1.11M71.18,69.69c-1.22,0-2.41-.16-3.54-.45l23.33,23.33,1.6-1.6-21.28-21.28s-.07,0-.11,0M9.4,90.97l1.6,1.6,23.19-23.19c-.95.2-1.92.31-2.93.31-.19,0-.37,0-.55-.01,0,0-.02.01-.03.02-1.39.71-2.48,1.33-5.16,1.33-3.01,0-4.49-.78-6.05-1.6-1.64-.87-3.34-1.76-6.71-1.76s-5.06.89-6.71,1.76c-1.56.82-3.03,1.6-6.05,1.6v1.42c3.36,0,5.06-.89,6.71-1.76,1.56-.82,3.03-1.6,6.05-1.6s4.49.78,6.05,1.6c1.64.87,3.34,1.76,6.71,1.76,1.02,0,1.88-.08,2.64-.22l-5.66,5.66h0c-1.2-.3-2.1-.77-3.02-1.26-1.64-.87-3.34-1.76-6.71-1.76s-5.06.89-6.71,1.76c-1.56.82-3.03,1.6-6.05,1.6v1.42c3.36,0,5.06-.9,6.71-1.76,1.56-.82,3.03-1.6,6.05-1.6s4.49.78,6.05,1.6c.77.41,1.57.82,2.54,1.15l-11.94,11.94ZM94.38,28.46l-9.63-9.63h.01s7.81-7.83,7.81-7.83l-1.6-1.6-19.94,19.94h.33c.84,0,1.63.19,2.35.53l1.06-1.06,10.09,10.09.03.02c1.88,1.7,2.96,4.13,2.96,6.66s-1.12,4.96-2.9,6.6c.13.52.22,1.06.29,1.61,2.44-1.91,4.02-4.87,4.02-8.2,0-2.92-1.24-5.73-3.41-7.7l-10.08-10.08,7.98-7.98,9.65,9.65.03.02c4.53,4.11,7.14,9.97,7.14,16.08,0,11.88-9.6,21.56-21.45,21.69-.84.57-1.74,1.04-2.69,1.42h2.45c12.74,0,23.11-10.37,23.11-23.11,0-6.51-2.77-12.75-7.59-17.12"/>
        </g>
      </g>
    </g>
  </g>
</svg>