<?xml version="1.0" encoding="UTF-8"?>
<svg id="Layer_2" data-name="Layer 2" xmlns="http://www.w3.org/2000/svg" viewBox="0 0 103 103">
  <defs>
    <style>
      .cls-1 {
        fill: none;
      }

      .cls-2 {
        fill: #000;
      }

      .cls-3 {
        clip-path: url(#clippath);
      }
    </style>
    <clipPath id="clippath">
      <rect class="cls-1" width="103" height="103"/>
    </clipPath>
  </defs>
  <g id="svg2">
    <g id="g496" class="cls-3">
      <path class="cls-2" d="M46.0801 44.0799L11.79 9.78986L10.1901 11.3899L25.48 26.6799L0.790039 51.3699L18.7801 69.3599L19.7801 68.3599L15.17 63.7499L38.86 40.0599L44.47 45.6699L4.79004 85.3499L17.79 98.3499L57.47 58.6699L91.7601 92.9599L93.36 91.3599L78.0701 76.0699L102.76 51.3799L84.7701 33.3899L83.7701 34.3899L88.3801 38.9999L64.6901 62.6899L59.0801 57.0799L98.7601 17.3999L85.7601 4.3999L46.0801 44.0799ZM6.80005 85.3699L85.7601 6.40985L86.7601 7.40985L7.79004 86.3699L6.79004 85.3699H6.80005ZM83.7701 12.3999L87.7701 8.3999L91.7701 12.3999L87.7701 16.3999L83.7701 12.3999ZM88.7701 17.3999L92.7701 13.3999L96.7701 17.3999L92.7701 21.3999L88.7701 17.3999ZM78.7801 17.3999L82.7801 13.3999L86.7801 17.3999L82.7801 21.3999L78.7801 17.3999ZM83.7701 22.3999L87.7701 18.3999L91.7701 22.3999L87.7701 26.3999L83.7701 22.3999ZM73.7801 22.3999L77.7801 18.3999L81.7801 22.3999L77.7801 26.3999L73.7801 22.3999ZM78.7801 27.3999L82.7801 23.3999L86.7801 27.3999L82.7801 31.3999L78.7801 27.3999ZM68.7801 27.3999L72.7801 23.3999L76.7801 27.3999L72.7801 31.3999L68.7801 27.3999ZM2.80005 51.3899L26.4901 27.6999L37.8701 39.0799L14.1801 62.7699L2.80005 51.3899ZM73.7801 32.3899L77.7801 28.3899L81.7801 32.3899L77.7801 36.3899L73.7801 32.3899ZM63.7801 32.3899L67.7801 28.3899L71.7801 32.3899L67.7801 36.3899L63.7801 32.3899ZM68.7801 37.3899L72.7801 33.3899L76.7801 37.3899L72.7801 41.3899L68.7801 37.3899ZM58.7801 37.3899L62.7801 33.3899L66.7801 37.3899L62.7801 41.3899L58.7801 37.3899ZM63.7801 42.3899L67.7801 38.3899L71.7801 42.3899L67.7801 46.3899L63.7801 42.3899ZM53.7801 42.3899L57.7801 38.3899L61.7801 42.3899L57.7801 46.3899L53.7801 42.3899ZM65.7001 63.6999L89.3901 40.0099L100.76 51.3899L77.0701 75.0799L65.6901 63.6999H65.7001ZM58.7801 47.3899L62.7801 43.3899L66.7801 47.3899L62.7801 51.3899L58.7801 47.3899ZM48.79 47.3899L52.79 43.3899L56.79 47.3899L52.79 51.3899L48.79 47.3899ZM53.79 52.3899L57.79 48.3899L61.79 52.3899L57.79 56.3899L53.79 52.3899ZM43.79 52.3899L47.79 48.3899L51.79 52.3899L47.79 56.3899L43.79 52.3899ZM48.79 57.3799L52.79 53.3799L56.79 57.3799L52.79 61.3799L48.79 57.3799ZM38.79 57.3799L42.79 53.3799L46.79 57.3799L42.79 61.3799L38.79 57.3799ZM43.79 62.3799L47.79 58.3799L51.79 62.3799L47.79 66.3799L43.79 62.3799ZM33.79 62.3799L37.79 58.3799L41.79 62.3799L37.79 66.3799L33.79 62.3799ZM38.79 67.3799L42.79 63.3799L46.79 67.3799L42.79 71.3799L38.79 67.3799ZM28.8 67.3799L32.8 63.3799L36.8 67.3799L32.8 71.3799L28.8 67.3799ZM33.79 72.3799L37.79 68.3799L41.79 72.3799L37.79 76.3799L33.79 72.3799ZM23.8 72.3799L27.8 68.3799L31.8 72.3799L27.8 76.3799L23.8 72.3799ZM28.8 77.3799L32.8 73.3799L36.8 77.3799L32.8 81.3799L28.8 77.3799ZM18.8 77.3799L22.8 73.3799L26.8 77.3799L22.8 81.3799L18.8 77.3799ZM23.8 82.3699L27.8 78.3699L31.8 82.3699L27.8 86.3699L23.8 82.3699ZM13.8 82.3699L17.8 78.3699L21.8 82.3699L17.8 86.3699L13.8 82.3699ZM18.8 87.3699L22.8 83.3699L26.8 87.3699L22.8 91.3699L18.8 87.3699ZM8.81006 87.3699L12.8101 83.3699L16.8101 87.3699L12.8101 91.3699L8.81006 87.3699ZM13.8 92.3699L17.8 88.3699L21.8 92.3699L17.8 96.3699L13.8 92.3699Z"/>
      <g>
        <path class="cls-2" d="M32.47 13.0099C34.44 13.8299 36.8601 18.3299 37.3901 19.3499C36.4701 20.9099 35.7701 23.1499 36.6501 25.8799C33.9201 23.3399 32.2101 19.72 32.2101 15.71C32.2101 14.79 32.3 13.89 32.48 13.02M46.0901 1.81995C49.6901 1.81995 52.9801 3.19996 55.4501 5.45996C53.9101 5.40996 51.6001 6.01994 49.0301 9.05994C44.4001 14.5299 38.5801 13.3799 38.5801 13.3799C37.6701 8.79994 36.5901 7.02991 35.8401 6.34991C38.3801 3.56991 42.0401 1.81995 46.0901 1.81995ZM59.04 10.7C59.64 12.25 59.98 13.94 59.98 15.7C59.98 23.14 54.09 29.2299 46.73 29.5699C45.22 28.9699 41.91 27.2299 41.55 23.3599C41.35 21.1799 42.08 19.1699 42.8 17.7899C48.86 18.8299 53.6701 15.8799 55.4901 13.2299C56.8501 11.2599 58.22 10.7799 59.04 10.6899M46.0901 31.0099C54.5401 31.0099 61.3901 24.16 61.3901 15.71C61.3901 7.25996 54.5401 0.409912 46.0901 0.409912C37.6401 0.409912 30.79 7.25996 30.79 15.71C30.79 24.16 37.6401 31.0099 46.0901 31.0099Z"/>
        <path class="cls-2" d="M71.1 89.76C69.13 88.94 66.7101 84.44 66.1801 83.42C67.1001 81.86 67.8 79.62 66.92 76.89C69.65 79.43 71.36 83.05 71.36 87.06C71.36 87.98 71.2701 88.88 71.0901 89.75M57.48 100.95C53.88 100.95 50.5901 99.57 48.1201 97.31C49.6601 97.36 51.97 96.75 54.54 93.71C59.17 88.24 64.9901 89.39 64.9901 89.39C65.9001 93.97 66.98 95.74 67.73 96.42C65.19 99.2 61.53 100.95 57.47 100.95M44.5301 92.07C43.9301 90.52 43.5901 88.83 43.5901 87.07C43.5901 79.63 49.4801 73.54 56.8401 73.2C58.3501 73.8 61.6601 75.54 62.0201 79.41C62.2201 81.59 61.4901 83.6 60.7701 84.98C54.7101 83.94 49.9001 86.89 48.0801 89.54C46.7201 91.51 45.3501 91.99 44.5301 92.08M57.48 71.76C49.03 71.76 42.1801 78.61 42.1801 87.06C42.1801 95.51 49.03 102.36 57.48 102.36C65.93 102.36 72.7801 95.51 72.7801 87.06C72.7801 78.61 65.93 71.76 57.48 71.76Z"/>
      </g>
    </g>
  </g>
</svg>
