<?xml version="1.0" encoding="UTF-8"?>
<svg id="Layer_2" data-name="Layer 2" xmlns="http://www.w3.org/2000/svg" xmlns:xlink="http://www.w3.org/1999/xlink" viewBox="0 0 101.14 101.96">
  <defs>
    <style>
      .cls-1 {
        fill: none;
      }

      .cls-2 {
        fill: #000;
      }

      .cls-3 {
        clip-path: url(#clippath);
      }
    </style>
    <clipPath id="clippath">
      <rect class="cls-1" width="101.14" height="101.96"/>
    </clipPath>
  </defs>
  <g id="svg2">
    <g id="g506">
      <g class="cls-3">
        <g id="g508">
          <path id="path514" class="cls-2" d="M21.18,10.1c3.4-1.49,7.46-1.49,10.86,0,2.01.88,4.21,1.32,6.42,1.34,0-.1,0-.21,0-.31,0-.37.02-.73.05-1.09-2.03-.01-4.05-.42-5.9-1.23-1.88-.82-3.93-1.23-5.99-1.23s-4.11.41-5.99,1.23c-1.88.82-4.49,1.44-7.25,1.39l1.37,1.37c2.46-.14,4.73-.73,6.44-1.48M0,59.7h6.21v-2.25h-3.97v-12.92h3.97v-2.25H0v17.42ZM21.18,2.93c3.4-1.48,7.46-1.48,10.86,0,2.69,1.17,5.72,1.57,8.64,1.21.43-.6.91-1.17,1.44-1.68-3.15.75-6.56.48-9.51-.82-1.88-.82-3.93-1.23-5.99-1.23s-4.11.41-5.99,1.23c-1.54.67-3.58,1.22-5.79,1.36l-1.43,1.43c2.97.05,5.77-.63,7.78-1.51M30.71,29.53L9.5,8.32l-1.59,1.59,21.2,21.2,1.59-1.59ZM23.68,65.41l-2.25-2.25v4.4h-11.56v-33.15h11.56v4.4l2.25-2.25v-4.4H7.62v37.65h16.06v-4.4ZM65.09,24.17l1.19,1.19c.97-.22,1.92-.53,2.83-.92,1.73-.76,3.63-1.12,5.53-1.11l1.34-1.34c-.48-.05-.96-.07-1.44-.07-2.06,0-4.11.41-5.99,1.23-1.1.48-2.27.82-3.46,1.02M80.52,8.81c-3.78-1.62-8.26-1.62-11.98,0-1.85.81-3.87,1.21-5.9,1.23.03.36.05.72.05,1.09,0,.1,0,.21,0,.31,2.21-.02,4.41-.46,6.42-1.34,3.37-1.47,7.43-1.47,10.86,0,2.11.91,4.27,1.39,6.47,1.44l1.43-1.43c-2.51.16-4.97-.27-7.35-1.3M42.53,6.45c-.8,1.38-1.27,2.97-1.27,4.68,0,2.3.84,4.41,2.23,6.04-.5-4.67,1.72-8.31,2.41-9.32-.95-.55-2.07-1.05-3.38-1.4M43.37,5.23c4.4,1.32,6.8,4.15,7.55,5.16.62-.08,1.97-.31,3.58-1.03-.47-.98-2.81-5.34-7.83-6.68-1.28.59-2.41,1.47-3.29,2.55M48.88,1.97c4.3,1.9,6.35,5.65,6.87,6.75.95-.55,1.95-1.27,2.9-2.22-1.61-2.8-4.63-4.68-8.08-4.68-.58,0-1.14.06-1.69.16M59.28,7.84c-3.35,3.15-6.99,3.82-8.25,3.95-.25.58-.71,1.87-.9,3.61,1.09.08,6.03.23,9.7-3.44.02-.28.04-.56.04-.84,0-1.16-.21-2.27-.6-3.29M59.35,14.24c-3.79,2.78-8.07,2.67-9.28,2.57,0,1.1.13,2.33.48,3.63h.03c4.05,0,7.49-2.59,8.78-6.2M49.76,11.2c-.38-.5-1.26-1.55-2.68-2.58-.62.9-3.21,5.1-1.87,10.12,1.13.8,2.44,1.35,3.86,1.58-1.05-4.47.19-7.97.7-9.12M39.85,11.13c0-5.91,4.81-10.72,10.72-10.72s10.72,4.81,10.72,10.72-4.81,10.72-10.72,10.72-10.72-4.81-10.72-10.72M69.11,2.93c3.4-1.48,7.46-1.48,10.86,0,2.51,1.06,5.08,1.53,7.69,1.41l-1.4-1.4c-1.94-.08-3.86-.51-5.73-1.3C76.78,0,72.3,0,68.55,1.64c-2.96,1.29-6.37,1.56-9.51.82.53.51,1.01,1.08,1.44,1.68,2.92.36,5.95-.04,8.64-1.21M32.04,99.04c-3.4,1.48-7.46,1.49-10.86,0-2.51-1.06-5.08-1.53-7.69-1.41l1.4,1.4c1.94.08,3.86.51,5.73,1.3,3.75,1.64,8.23,1.64,11.98,0,2.96-1.29,6.37-1.56,9.51-.81-.53-.52-1.01-1.08-1.44-1.68-2.92-.36-5.95.04-8.64,1.21M70.44,72.44l21.2,21.2,1.59-1.59-21.2-21.2-1.59,1.59ZM94.93,42.26v2.25h3.97v12.92h-3.97v2.25h6.21v-17.42h-6.21ZM79.96,91.86c-3.4,1.49-7.46,1.49-10.86,0-2.01-.88-4.21-1.32-6.42-1.34,0,.1,0,.21,0,.31,0,.37-.02.73-.05,1.09,2.03.01,4.05.42,5.9,1.23,1.88.82,3.93,1.23,5.99,1.23s4.12-.41,5.99-1.23c1.88-.82,4.49-1.45,7.25-1.39l-1.37-1.37c-2.46.14-4.73.73-6.44,1.48M77.47,36.55l2.25,2.25v-4.4h11.56v33.15h-11.56v-4.39l-2.25,2.25v4.4h16.06v-37.65h-16.06v4.4ZM80.5,17.48l1.09-1.09c-.36-.12-.71-.26-1.06-.41-3.78-1.63-8.26-1.62-11.98,0-2.32,1.01-4.92,1.4-7.45,1.16-.26.46-.55.89-.87,1.31,3,.42,6.12.03,8.88-1.18,3.37-1.47,7.43-1.47,10.86,0,.17.07.35.14.53.21M20.62,93.15c3.78,1.62,8.26,1.62,11.98,0,1.85-.81,3.87-1.21,5.9-1.23-.03-.36-.05-.72-.05-1.09,0-.1,0-.21,0-.31-2.21.02-4.41.46-6.42,1.34-3.37,1.47-7.43,1.47-10.86,0-2.11-.91-4.27-1.39-6.47-1.44l-1.43,1.43c2.51-.16,4.97.27,7.35,1.3M58.62,95.52c.8-1.38,1.27-2.97,1.27-4.68,0-2.3-.84-4.41-2.23-6.04.5,4.67-1.72,8.31-2.41,9.32.95.55,2.07,1.05,3.38,1.4M57.77,96.73c-4.4-1.32-6.8-4.15-7.55-5.16-.62.08-1.97.31-3.58,1.03.47.98,2.81,5.34,7.83,6.68,1.28-.59,2.41-1.47,3.29-2.55M52.27,99.99c-4.3-1.9-6.35-5.65-6.87-6.75-.95.55-1.95,1.27-2.9,2.22,1.61,2.8,4.63,4.68,8.08,4.68.58,0,1.14-.05,1.69-.16M41.86,94.12c3.34-3.15,6.99-3.82,8.24-3.95.25-.58.71-1.87.9-3.61-1.09-.08-6.03-.23-9.7,3.44-.03.28-.04.56-.04.84,0,1.16.21,2.27.6,3.29M41.79,87.72c3.79-2.78,8.07-2.67,9.28-2.57,0-1.1-.13-2.33-.48-3.63h-.03c-4.04,0-7.49,2.59-8.78,6.2M51.38,90.76c.38.5,1.26,1.55,2.68,2.58.62-.9,3.21-5.11,1.87-10.12-1.13-.8-2.44-1.35-3.86-1.58,1.05,4.47-.19,7.97-.7,9.12M61.29,90.84c0,5.91-4.81,10.72-10.72,10.72s-10.72-4.81-10.72-10.72,4.81-10.72,10.72-10.72,10.72,4.81,10.72,10.72M79.96,99.04c-3.4,1.49-7.46,1.49-10.86,0-2.69-1.17-5.72-1.57-8.64-1.21-.43.6-.91,1.17-1.44,1.68,3.15-.75,6.56-.48,9.51.81,1.88.82,3.93,1.23,5.99,1.23s4.12-.41,5.99-1.23c1.54-.67,3.58-1.22,5.79-1.36l1.43-1.43c-2.97-.05-5.77.63-7.78,1.51M29.12,70.85l-21.2,21.2,1.59,1.59,21.2-21.2-1.59-1.59ZM49.09,60.16l-6.77-6.77c-.15,1.03-.16,1.74-.16,1.75v.08l5.93,5.93c.25-.41.59-.75.99-.99M60.38,55.15c1.56,0,2.83-1.35,2.83-3.7v-4.27c0-2.34-1.27-3.8-2.83-3.8h-.97c-.93-3.17-2.61-6.06-5.61-7.26,1.33,2.04,2.72,5.18,3.19,9.78,3.39,3.46,3.39,9.26,3.39,9.26M41.73,43.37h-.97c-1.56,0-2.83,1.47-2.83,3.8v4.27c0,2.35,1.27,3.7,2.83,3.7,0,0,0-5.8,3.39-9.26.47-4.59,1.86-7.74,3.19-9.78-3,1.2-4.68,4.09-5.61,7.26M23.26,46.09h-1.41v3.26h1.41v-3.26ZM36.06,77.79l-1.19-1.19c-.97.22-1.92.53-2.83.92-1.73.76-3.63,1.13-5.54,1.11l-1.34,1.34c.48.05.96.07,1.44.07,2.06,0,4.11-.41,5.99-1.23,1.1-.48,2.27-.82,3.46-1.02M50.57,35.52c-.37,0-.73.02-1.07.06-1.27,1.53-3.03,4.39-3.76,9.04,1.26-.77,2.85-1.25,4.84-1.25s3.57.48,4.83,1.25c-.74-4.66-2.49-7.51-3.76-9.04-.34-.04-.7-.06-1.07-.06M79.29,46.09h-1.41v3.26h1.41v-3.26ZM32.04,24.44c.91.4,1.86.7,2.83.92l1.19-1.19c-1.19-.2-2.36-.53-3.46-1.02-2.32-1.01-4.91-1.39-7.43-1.16l1.33,1.33c1.9-.02,3.8.35,5.54,1.11M44.05,80.62l-29.64-29.64,29.64-29.64c-.64-.41-1.24-.87-1.79-1.39l-26.42,26.42-4.61,4.61,31.03,31.03c.55-.52,1.15-.98,1.79-1.39M40.92,18.45c-.32-.42-.61-.85-.87-1.31-2.53.24-5.13-.14-7.45-1.16-1.88-.82-3.93-1.23-5.99-1.23s-4.11.41-5.99,1.23c-.33.14-.68.28-1.06.41l1.09,1.09c.18-.07.36-.14.53-.22,3.4-1.49,7.46-1.48,10.86,0,2.76,1.21,5.89,1.6,8.88,1.18M21.85,55.87h1.41v-3.26h-1.41v3.26ZM72.03,31.12l21.2-21.2-1.59-1.59-21.2,21.2,1.59,1.59ZM20.65,84.48l-1.09,1.09c.35.13.71.26,1.06.41,3.78,1.62,8.26,1.62,11.98,0,2.32-1.01,4.92-1.4,7.45-1.16.26-.46.55-.89.87-1.31-3-.42-6.12-.03-8.88,1.18-3.37,1.47-7.43,1.47-10.86,0-.17-.08-.35-.14-.53-.21M50.15,64.06c.28.08.57.08.85,0l3.29,3.29.99-.99-3.29-3.29c.15-.51.03-1.07-.37-1.47-.58-.58-1.52-.58-2.1,0-.4.4-.52.97-.37,1.47l-3.29,3.29.99.99,3.29-3.29ZM77.89,55.87h1.41v-3.26h-1.41v3.26ZM69.11,77.52c-.91-.4-1.86-.7-2.83-.92l-1.19,1.19c1.19.2,2.36.53,3.46,1.02,2.31,1.01,4.91,1.39,7.43,1.16l-1.33-1.33c-1.9.02-3.8-.35-5.54-1.11M58.98,55.15s0-.72-.15-1.75l-6.77,6.77c.41.24.75.59.99.99l5.93-5.93v-.08ZM60.22,83.51c.32.42.61.85.87,1.31,2.53-.24,5.13.14,7.45,1.16,1.88.82,3.93,1.23,5.99,1.23s4.12-.41,5.99-1.23c.33-.14.69-.28,1.06-.41l-1.09-1.09c-.18.07-.36.14-.53.22-3.4,1.49-7.46,1.49-10.86,0-2.76-1.21-5.89-1.6-8.88-1.18M89.91,50.98l-31.03,31.03c-.55-.52-1.15-.98-1.79-1.39l29.64-29.64-29.64-29.64c.64-.41,1.24-.87,1.79-1.39l31.03,31.03Z"/>
        </g>
      </g>
    </g>
  </g>
</svg>