<?xml version="1.0" encoding="UTF-8"?>
<svg id="Layer_2" data-name="Layer 2" xmlns="http://www.w3.org/2000/svg" viewBox="0 0 103 103">
  <defs>
    <style>
      .cls-1 {
        fill: none;
      }

      .cls-2 {
        fill: #000;
      }

      .cls-3 {
        clip-path: url(#clippath);
      }
    </style>
    <clipPath id="clippath">
      <rect class="cls-1" width="103" height="103"/>
    </clipPath>
  </defs>
  <g id="svg2">
    <g id="g496" class="cls-3">
      <path class="cls-2" d="M99.24 0.400024L92.47 7.15997L90.9301 5.62L89.9301 6.62L96.01 12.7L97.01 11.7L95.47 10.16L102.24 3.40002L99.24 0.390015V0.400024ZM93.48 8.16998L99.24 2.40997L100.24 3.40997L94.47 9.16998L93.47 8.16998H93.48ZM3.28998 0.400024L0.289978 3.40002L7.04999 10.17L5.51001 11.71L6.51001 12.71L12.59 6.63L11.59 5.63L10.05 7.16998L3.28003 0.409973L3.28998 0.400024ZM2.28998 3.40997L3.28998 2.40997L9.04999 8.17999L8.04999 9.17999L2.28998 3.41998V3.40997ZM78.5 3.60999L99.04 24.15L102.24 20.95L81.7 0.409973L78.5 3.60999ZM0.289978 20.95L3.5 24.16L24.04 3.62L20.84 0.419983L0.299988 20.96L0.289978 20.95ZM4.5 25.16L7.71002 28.37L28.25 7.83002L25.04 4.62L4.5 25.16ZM74.29 7.82001L94.83 28.36L98.04 25.16L77.5 4.62L74.29 7.82001ZM70.0699 12.04L90.61 32.58L93.8101 29.37L73.27 8.83002L70.0699 12.04ZM8.71002 29.37L11.92 32.57L32.46 12.03L29.26 8.83002L8.71997 29.37H8.71002ZM20.14 26.34L21.14 27.34L22.6801 25.8L48.26 51.38L22.6801 76.96L21.14 75.42L20.14 76.42L26.22 82.5L27.22 81.5L25.6801 79.96L51.26 54.38L76.84 79.96L75.3 81.5L76.3 82.5L82.38 76.42L81.38 75.42L79.84 76.96L54.26 51.38L79.84 25.8L81.38 27.34L82.38 26.34L76.3 20.26L75.3 21.26L76.84 22.8L51.26 48.38L25.6801 22.8L27.22 21.26L26.22 20.26L20.14 26.34ZM52.27 49.38L77.85 23.8L78.85 24.8L53.27 50.38L52.27 49.38ZM23.6801 24.8L24.6801 23.8L78.85 77.97L77.85 78.97L23.6801 24.8ZM23.6801 77.97L49.26 52.39L50.26 53.39L24.6801 78.97L23.6801 77.97ZM70.0699 90.73L73.28 93.93L93.8199 73.39L90.61 70.18L70.0699 90.72V90.73ZM8.71002 73.4L29.25 93.94L32.46 90.73L11.92 70.19L8.71997 73.4H8.71002ZM74.29 94.95L77.49 98.15L98.03 77.61L94.83 74.41L74.29 94.95ZM4.5 77.61L25.04 98.15L28.25 94.94L7.71002 74.4L4.51001 77.61H4.5ZM78.5 99.16L81.71 102.37L102.25 81.83L99.05 78.63L78.51 99.17L78.5 99.16ZM0.289978 81.82L20.83 102.36L24.03 99.16L3.48999 78.62L0.280029 81.82H0.289978ZM89.9399 96.14L90.9399 97.14L92.48 95.6L99.25 102.37L102.25 99.37L95.48 92.6L97.02 91.06L96.02 90.06L89.9399 96.14ZM93.48 94.6L94.48 93.6L100.24 99.36L99.24 100.36L93.48 94.6ZM5.51001 91.06L7.04999 92.6L0.280029 99.37L3.28003 102.37L10.05 95.61L11.59 97.15L12.59 96.15L6.51001 90.07L5.51001 91.07V91.06ZM2.28998 99.36L8.04999 93.6L9.04999 94.6L3.28998 100.37L2.28998 99.37V99.36Z"/>
    </g>
  </g>
</svg>
