<?xml version="1.0" encoding="UTF-8"?>
<svg id="Layer_2" data-name="Layer 2" xmlns="http://www.w3.org/2000/svg" xmlns:xlink="http://www.w3.org/1999/xlink" viewBox="0 0 101.96 101.96">
  <defs>
    <style>
      .cls-1 {
        fill: none;
      }

      .cls-2 {
        fill: #000;
      }

      .cls-3 {
        clip-path: url(#clippath);
      }
    </style>
    <clipPath id="clippath">
      <rect class="cls-1" width="101.96" height="101.96"/>
    </clipPath>
  </defs>
  <g id="svg2">
    <g id="g496">
      <g class="cls-3">
        <g id="g498">
          <path id="path504" class="cls-2" d="M52.75,54.35l-5.14-5.14c-.76,1.44-.53,3.25.68,4.46s3.02,1.43,4.46.68M49.21,47.61l5.14,5.14c.76-1.44.53-3.25-.68-4.46-1.21-1.21-3.02-1.43-4.46-.68M55.38,53.78l37.19,37.19-1.6,1.6-37.19-37.19c-2.02,1.29-4.73,1.06-6.49-.71-1.76-1.76-2-4.47-.71-6.49L9.4,11l1.6-1.6,37.19,37.19c2.02-1.29,4.73-1.06,6.49.71,1.76,1.76,1.99,4.47.71,6.49M38.39,76.04c-.11.05-.24.1-.37.16-.31.14-.7.49-1.14,1.03h0c10.57,5.69,23.84,4.54,33.31-3.45l-4.02-4.02c-6.9,5.59-16.17,6.81-24.11,3.65-1.46,1.55-2.19,1.98-3.66,2.63M28.18,31.78c-7.99,9.47-9.14,22.74-3.46,33.31h0c.54-.45.9-.85,1.03-1.15.06-.13.11-.25.16-.37.65-1.47,1.08-2.2,2.63-3.66-3.16-7.93-1.94-17.2,3.65-24.11l-4.02-4.02ZM50.98,3.2l16.73,16.73h0s1.93-1.27,1.93-1.27L50.98,0l-23.69,23.69,1.6,1.6L50.98,3.2ZM50.98,98.76l-16.73-16.73h0s-1.93,1.27-1.93,1.27l18.66,18.66,23.69-23.69-1.6-1.6-22.09,22.09ZM31.98,80.14c.92-2.17,2.74-5.56,4.89-6.52,1.69-.75,1.88-.69,4.3-3.45.17-.19.33-.38.49-.57-1.79-.89-3.42-2.04-4.88-3.41l-3.73,3.73-1-1,3.73-3.73c-1.37-1.47-2.51-3.1-3.41-4.89-.19.16-.38.33-.57.5-2.76,2.42-2.7,2.62-3.45,4.3-.96,2.15-4.35,3.97-6.52,4.89l-7.48,11.51.95.95,2.26-2.26c.58-.58,1.35-.87,2.11-.87s1.53.29,2.11.87c1.16,1.16,1.16,3.05,0,4.22l-2.26,2.26.95.95,11.51-7.48ZM34.17,58.8c.82,1.75,1.89,3.36,3.21,4.78l1.93-1.93c-1.13-1.2-2.1-2.64-2.96-4.52-.32.21-1.16.84-2.19,1.67M40.31,62.65l-1.93,1.93c1.42,1.32,3.02,2.39,4.78,3.21.83-1.03,1.47-1.87,1.67-2.19-1.88-.86-3.33-1.83-4.52-2.96M33.11,81.09l-12.84,8.34-2.76-2.76,3.26-3.26c.3-.3.46-.69.46-1.11s-.16-.81-.46-1.11-.69-.46-1.11-.46-.81.16-1.11.46l-3.26,3.26-2.76-2.76,8.34-12.84.4-.17c2.94-1.24,5.21-2.87,5.78-4.16.06-.13.11-.26.17-.38.69-1.57.98-2.08,3.65-4.41,1.91-1.68,4.07-3.36,4.71-3.78l1.38-.91.69,1.5c.84,1.85,1.8,3.26,3.01,4.46l.32.32c1.19,1.2,2.6,2.16,4.45,3l1.5.69-.91,1.38c-.42.64-2.11,2.8-3.78,4.71-2.33,2.67-2.84,2.96-4.41,3.65-.12.05-.24.11-.38.17-1.29.58-2.92,2.85-4.16,5.78l-.17.4ZM0,50.98l18.66,18.66,1.25-1.93h.01S3.21,50.98,3.21,50.98l22.09-22.09-1.6-1.6L0,50.98ZM101.97,50.98l-18.67-18.67-1.25,1.93h-.01s16.73,16.73,16.73,16.73l-22.09,22.09,1.6,1.6,23.69-23.69ZM63.57,25.92c.11-.05.24-.1.37-.16.3-.14.7-.49,1.14-1.03h0c-10.57-5.69-23.84-4.54-33.31,3.45l4.02,4.02c6.9-5.59,16.17-6.81,24.11-3.66,1.46-1.55,2.19-1.98,3.66-2.63M69.99,21.82c-.92,2.17-2.74,5.56-4.89,6.52-1.69.75-1.88.69-4.3,3.45-.17.19-.33.38-.5.57,1.79.89,3.42,2.04,4.89,3.41l3.73-3.73,1,1-3.73,3.73c1.37,1.47,2.51,3.1,3.41,4.89.19-.16.38-.33.57-.5,2.77-2.42,2.7-2.62,3.45-4.3.96-2.15,4.35-3.97,6.52-4.89l7.48-11.51-.95-.95-2.26,2.26c-.58.58-1.35.87-2.11.87s-1.53-.29-2.11-.87c-1.16-1.16-1.16-3.05,0-4.22l2.26-2.26-.95-.95-11.52,7.48ZM67.8,43.16c-.82-1.75-1.89-3.36-3.21-4.78l-1.93,1.93c1.13,1.2,2.1,2.64,2.96,4.52.32-.21,1.15-.84,2.18-1.67M61.65,39.31l1.93-1.93c-1.42-1.32-3.02-2.39-4.78-3.21-.83,1.03-1.47,1.87-1.67,2.19,1.88.86,3.32,1.83,4.52,2.96M68.85,20.87l12.84-8.34,2.77,2.76-3.26,3.26c-.3.3-.46.69-.46,1.11s.16.81.46,1.11c.29.3.69.46,1.11.46s.81-.16,1.11-.46l3.26-3.26,2.76,2.76-8.34,12.84-.4.17c-2.94,1.24-5.21,2.87-5.78,4.16-.06.13-.11.26-.17.38-.69,1.57-.98,2.08-3.65,4.41-1.91,1.68-4.07,3.36-4.71,3.78l-1.38.91-.69-1.5c-.84-1.85-1.8-3.26-3.01-4.46l-.32-.32c-1.19-1.2-2.6-2.16-4.45-3l-1.5-.69.91-1.38c.42-.64,2.11-2.8,3.78-4.71,2.33-2.67,2.84-2.96,4.41-3.65.12-.05.24-.11.38-.17,1.29-.58,2.92-2.85,4.16-5.78l.17-.4ZM69.76,66.16c5.59-6.9,6.81-16.17,3.66-24.11,1.55-1.46,1.98-2.19,2.63-3.66.05-.11.1-.24.16-.37.14-.31.49-.7,1.03-1.15h0c5.68,10.56,4.53,23.84-3.46,33.31l-4.02-4.02Z"/>
        </g>
      </g>
    </g>
  </g>
</svg>